<svg width="1028.5" height="679.8000000000001" xmlns="http://www.w3.org/2000/svg" xmlns:xlink="http://www.w3.org/1999/xlink"><line x1="174.75" y1="8.0" x2="40.0" y2="33.0" style="stroke:black; stroke-width:1px;" />
<line x1="40.0" y1="41.0" x2="13.0" y2="66.0" style="stroke:black; stroke-width:1px;" />
<line x1="13.0" y1="74.0" x2="13.0" y2="99.0" style="stroke:black; stroke-width:1px;" />
<line x1="40.0" y1="41.0" x2="34.5" y2="66.0" style="stroke:black; stroke-width:1px;" />
<line x1="40.0" y1="41.0" x2="67.0" y2="66.0" style="stroke:black; stroke-width:1px;" />
<line x1="67.0" y1="74.0" x2="67.0" y2="99.0" style="stroke:black; stroke-width:1px;" />
<line x1="67.0" y1="107.0" x2="13.75" y2="132.0" style="stroke:black; stroke-width:1px;" />
<line x1="67.0" y1="107.0" x2="31.75" y2="132.0" style="stroke:black; stroke-width:1px;" />
<line x1="67.0" y1="107.0" x2="60.75" y2="132.0" style="stroke:black; stroke-width:1px;" />
<line x1="60.75" y1="140.0" x2="42.75" y2="165.0" style="stroke:black; stroke-width:1px;" />
<line x1="42.75" y1="173.0" x2="42.75" y2="198.0" style="stroke:black; stroke-width:1px;" />
<line x1="60.75" y1="140.0" x2="60.75" y2="165.0" style="stroke:black; stroke-width:1px;" />
<line x1="60.75" y1="140.0" x2="78.75" y2="165.0" style="stroke:black; stroke-width:1px;" />
<line x1="78.75" y1="173.0" x2="78.75" y2="198.0" style="stroke:black; stroke-width:1px;" />
<line x1="67.0" y1="107.0" x2="96.0" y2="132.0" style="stroke:black; stroke-width:1px;" />
<line x1="67.0" y1="107.0" x2="120.25" y2="132.0" style="stroke:black; stroke-width:1px;" />
<line x1="120.25" y1="140.0" x2="96.75" y2="165.0" style="stroke:black; stroke-width:1px;" />
<line x1="120.25" y1="140.0" x2="120.25" y2="165.0" style="stroke:black; stroke-width:1px;" />
<line x1="120.25" y1="173.0" x2="120.25" y2="198.0" style="stroke:black; stroke-width:1px;" />
<line x1="120.25" y1="206.0" x2="120.25" y2="231.0" style="stroke:black; stroke-width:1px;" />
<line x1="120.25" y1="239.0" x2="87.75" y2="264.0" style="stroke:black; stroke-width:1px;" />
<line x1="87.75" y1="272.0" x2="87.75" y2="297.0" style="stroke:black; stroke-width:1px;" />
<line x1="120.25" y1="239.0" x2="105.75" y2="264.0" style="stroke:black; stroke-width:1px;" />
<line x1="120.25" y1="239.0" x2="129.25" y2="264.0" style="stroke:black; stroke-width:1px;" />
<line x1="129.25" y1="272.0" x2="129.25" y2="297.0" style="stroke:black; stroke-width:1px;" />
<line x1="129.25" y1="305.0" x2="129.25" y2="330.0" style="stroke:black; stroke-width:1px;" />
<line x1="129.25" y1="338.0" x2="109.25" y2="363.0" style="stroke:black; stroke-width:1px;" />
<line x1="109.25" y1="371.0" x2="109.25" y2="396.0" style="stroke:black; stroke-width:1px;" />
<line x1="129.25" y1="338.0" x2="129.25" y2="363.0" style="stroke:black; stroke-width:1px;" />
<line x1="129.25" y1="338.0" x2="149.25" y2="363.0" style="stroke:black; stroke-width:1px;" />
<line x1="149.25" y1="371.0" x2="149.25" y2="396.0" style="stroke:black; stroke-width:1px;" />
<line x1="120.25" y1="239.0" x2="152.75" y2="264.0" style="stroke:black; stroke-width:1px;" />
<line x1="120.25" y1="140.0" x2="143.75" y2="165.0" style="stroke:black; stroke-width:1px;" />
<line x1="174.75" y1="8.0" x2="112.6875" y2="33.0" style="stroke:black; stroke-width:1px;" />
<line x1="174.75" y1="8.0" x2="185.375" y2="33.0" style="stroke:black; stroke-width:1px;" />
<line x1="185.375" y1="41.0" x2="185.375" y2="66.0" style="stroke:black; stroke-width:1px;" />
<line x1="185.375" y1="74.0" x2="149.75" y2="99.0" style="stroke:black; stroke-width:1px;" />
<line x1="149.75" y1="107.0" x2="149.75" y2="132.0" style="stroke:black; stroke-width:1px;" />
<line x1="185.375" y1="74.0" x2="170.875" y2="99.0" style="stroke:black; stroke-width:1px;" />
<line x1="185.375" y1="74.0" x2="197.5" y2="99.0" style="stroke:black; stroke-width:1px;" />
<line x1="197.5" y1="107.0" x2="177.25" y2="132.0" style="stroke:black; stroke-width:1px;" />
<line x1="177.25" y1="140.0" x2="158.75" y2="165.0" style="stroke:black; stroke-width:1px;" />
<line x1="177.25" y1="140.0" x2="175.75" y2="165.0" style="stroke:black; stroke-width:1px;" />
<line x1="177.25" y1="140.0" x2="195.75" y2="165.0" style="stroke:black; stroke-width:1px;" />
<line x1="195.75" y1="173.0" x2="195.75" y2="198.0" style="stroke:black; stroke-width:1px;" />
<line x1="197.5" y1="107.0" x2="197.5" y2="132.0" style="stroke:black; stroke-width:1px;" />
<line x1="197.5" y1="107.0" x2="217.75" y2="132.0" style="stroke:black; stroke-width:1px;" />
<line x1="217.75" y1="140.0" x2="217.75" y2="165.0" style="stroke:black; stroke-width:1px;" />
<line x1="217.75" y1="173.0" x2="217.75" y2="198.0" style="stroke:black; stroke-width:1px;" />
<line x1="185.375" y1="74.0" x2="221.0" y2="99.0" style="stroke:black; stroke-width:1px;" />
<line x1="174.75" y1="8.0" x2="225.6875" y2="33.0" style="stroke:black; stroke-width:1px;" />
<line x1="174.75" y1="8.0" x2="266.0" y2="33.0" style="stroke:black; stroke-width:1px;" />
<line x1="266.0" y1="41.0" x2="239.0" y2="66.0" style="stroke:black; stroke-width:1px;" />
<line x1="239.0" y1="74.0" x2="239.0" y2="99.0" style="stroke:black; stroke-width:1px;" />
<line x1="266.0" y1="41.0" x2="260.5" y2="66.0" style="stroke:black; stroke-width:1px;" />
<line x1="266.0" y1="41.0" x2="293.0" y2="66.0" style="stroke:black; stroke-width:1px;" />
<line x1="293.0" y1="74.0" x2="293.0" y2="99.0" style="stroke:black; stroke-width:1px;" />
<line x1="293.0" y1="107.0" x2="275.0" y2="132.0" style="stroke:black; stroke-width:1px;" />
<line x1="275.0" y1="140.0" x2="275.0" y2="165.0" style="stroke:black; stroke-width:1px;" />
<line x1="293.0" y1="107.0" x2="293.0" y2="132.0" style="stroke:black; stroke-width:1px;" />
<line x1="293.0" y1="107.0" x2="311.0" y2="132.0" style="stroke:black; stroke-width:1px;" />
<line x1="311.0" y1="140.0" x2="311.0" y2="165.0" style="stroke:black; stroke-width:1px;" />
<line x1="174.75" y1="8.0" x2="309.5" y2="33.0" style="stroke:black; stroke-width:1px;" />
<rect x="140.25" y="165.0" width="7.0" height="16.0" style="fill:orange; stroke:rgb(0,0,0);" rx="1"/>
<text x="142" y="174" style="font-family:sans-serif;font-size:10px;">
}
</text>
<rect x="285.5" y="99.0" width="15.0" height="16.0" style="fill:orange; stroke:rgb(0,0,0);" rx="1"/>
<text x="287" y="108" style="font-family:sans-serif;font-size:10px;">
式
</text>
<rect x="231.5" y="99.0" width="15.0" height="16.0" style="fill:orange; stroke:rgb(0,0,0);" rx="1"/>
<text x="233" y="108" style="font-family:sans-serif;font-size:10px;">
列
</text>
<rect x="35.25" y="165.0" width="15.0" height="16.0" style="fill:orange; stroke:rgb(0,0,0);" rx="1"/>
<text x="37" y="174" style="font-family:sans-serif;font-size:10px;">
形
</text>
<rect x="121.75" y="297.0" width="15.0" height="16.0" style="fill:orange; stroke:rgb(0,0,0);" rx="1"/>
<text x="123" y="306" style="font-family:sans-serif;font-size:10px;">
子
</text>
<rect x="104.6875" y="33.0" width="16.0" height="16.0" style="fill:orange; stroke:rgb(0,0,0);" rx="1"/>
<text x="106" y="42" style="font-family:sans-serif;font-size:10px;">
\n
</text>
<rect x="184.5" y="99.0" width="26.0" height="16.0" style="fill:orange; stroke:rgb(0,0,0);" rx="1"/>
<text x="186" y="108" style="font-family:sans-serif;font-size:10px;">
子列
</text>
<rect x="170.25" y="165.0" width="11.0" height="16.0" style="fill:orange; stroke:rgb(0,0,0);" rx="1"/>
<text x="172" y="174" style="font-family:sans-serif;font-size:10px;">
=
</text>
<rect x="21.5" y="33.0" width="37.0" height="16.0" style="fill:orange; stroke:rgb(0,0,0);" rx="1"/>
<text x="23" y="42" style="font-family:sans-serif;font-size:10px;">
式或赋
</text>
<rect x="112.75" y="132.0" width="15.0" height="16.0" style="fill:orange; stroke:rgb(0,0,0);" rx="1"/>
<text x="114" y="141" style="font-family:sans-serif;font-size:10px;">
式
</text>
<rect x="274.5" y="66.0" width="37.0" height="16.0" style="fill:orange; stroke:rgb(0,0,0);" rx="1"/>
<text x="276" y="75" style="font-family:sans-serif;font-size:10px;">
式或赋
</text>
<rect x="289.5" y="132.0" width="7.0" height="16.0" style="fill:orange; stroke:rgb(0,0,0);" rx="1"/>
<text x="291" y="141" style="font-family:sans-serif;font-size:10px;">
:
</text>
<rect x="305.5" y="165.0" width="11.0" height="16.0" style="fill:orange; stroke:rgb(0,0,0);" rx="1"/>
<text x="307" y="174" style="font-family:sans-serif;font-size:10px;">
6
</text>
<rect x="28.25" y="132.0" width="7.0" height="16.0" style="fill:orange; stroke:rgb(0,0,0);" rx="1"/>
<text x="30" y="141" style="font-family:sans-serif;font-size:10px;">
(
</text>
<rect x="269.5" y="165.0" width="11.0" height="16.0" style="fill:orange; stroke:rgb(0,0,0);" rx="1"/>
<text x="271" y="174" style="font-family:sans-serif;font-size:10px;">
2
</text>
<rect x="38.25" y="198.0" width="9.0" height="16.0" style="fill:orange; stroke:rgb(0,0,0);" rx="1"/>
<text x="40" y="207" style="font-family:sans-serif;font-size:10px;">
x
</text>
<rect x="104.75" y="396.0" width="9.0" height="16.0" style="fill:orange; stroke:rgb(0,0,0);" rx="1"/>
<text x="106" y="405" style="font-family:sans-serif;font-size:10px;">
x
</text>
<rect x="74.25" y="198.0" width="9.0" height="16.0" style="fill:orange; stroke:rgb(0,0,0);" rx="1"/>
<text x="76" y="207" style="font-family:sans-serif;font-size:10px;">
y
</text>
<rect x="80.25" y="297.0" width="15.0" height="16.0" style="fill:orange; stroke:rgb(0,0,0);" rx="1"/>
<text x="82" y="306" style="font-family:sans-serif;font-size:10px;">
返
</text>
<rect x="107.25" y="165.0" width="26.0" height="16.0" style="fill:orange; stroke:rgb(0,0,0);" rx="1"/>
<text x="109" y="174" style="font-family:sans-serif;font-size:10px;">
式列
</text>
<rect x="166.875" y="33.0" width="37.0" height="16.0" style="fill:orange; stroke:rgb(0,0,0);" rx="1"/>
<text x="168" y="42" style="font-family:sans-serif;font-size:10px;">
式或赋
</text>
<rect x="303.5" y="132.0" width="15.0" height="16.0" style="fill:orange; stroke:rgb(0,0,0);" rx="1"/>
<text x="305" y="141" style="font-family:sans-serif;font-size:10px;">
式
</text>
<rect x="112.75" y="231.0" width="15.0" height="16.0" style="fill:orange; stroke:rgb(0,0,0);" rx="1"/>
<text x="114" y="240" style="font-family:sans-serif;font-size:10px;">
式
</text>
<rect x="6.25" y="132.0" width="15.0" height="16.0" style="fill:orange; stroke:rgb(0,0,0);" rx="1"/>
<text x="8" y="141" style="font-family:sans-serif;font-size:10px;">
函
</text>
<rect x="123.75" y="363.0" width="11.0" height="16.0" style="fill:orange; stroke:rgb(0,0,0);" rx="1"/>
<text x="125" y="372" style="font-family:sans-serif;font-size:10px;">
+
</text>
<rect x="167.375" y="99.0" width="7.0" height="16.0" style="fill:orange; stroke:rgb(0,0,0);" rx="1"/>
<text x="169" y="108" style="font-family:sans-serif;font-size:10px;">
(
</text>
<rect x="154.25" y="165.0" width="9.0" height="16.0" style="fill:orange; stroke:rgb(0,0,0);" rx="1"/>
<text x="156" y="174" style="font-family:sans-serif;font-size:10px;">
x
</text>
<rect x="210.25" y="132.0" width="15.0" height="16.0" style="fill:orange; stroke:rgb(0,0,0);" rx="1"/>
<text x="212" y="141" style="font-family:sans-serif;font-size:10px;">
子
</text>
<rect x="102.25" y="264.0" width="7.0" height="16.0" style="fill:orange; stroke:rgb(0,0,0);" rx="1"/>
<text x="104" y="273" style="font-family:sans-serif;font-size:10px;">
(
</text>
<rect x="136.75" y="132.0" width="26.0" height="16.0" style="fill:orange; stroke:rgb(0,0,0);" rx="1"/>
<text x="138" y="141" style="font-family:sans-serif;font-size:10px;">
相加
</text>
<rect x="188.25" y="165.0" width="15.0" height="16.0" style="fill:orange; stroke:rgb(0,0,0);" rx="1"/>
<text x="190" y="174" style="font-family:sans-serif;font-size:10px;">
式
</text>
<rect x="217.6875" y="33.0" width="16.0" height="16.0" style="fill:orange; stroke:rgb(0,0,0);" rx="1"/>
<text x="219" y="42" style="font-family:sans-serif;font-size:10px;">
\n
</text>
<rect x="80.25" y="264.0" width="15.0" height="16.0" style="fill:orange; stroke:rgb(0,0,0);" rx="1"/>
<text x="82" y="273" style="font-family:sans-serif;font-size:10px;">
式
</text>
<rect x="57.25" y="165.0" width="7.0" height="16.0" style="fill:orange; stroke:rgb(0,0,0);" rx="1"/>
<text x="59" y="174" style="font-family:sans-serif;font-size:10px;">
,
</text>
<rect x="121.75" y="330.0" width="15.0" height="16.0" style="fill:orange; stroke:rgb(0,0,0);" rx="1"/>
<text x="123" y="339" style="font-family:sans-serif;font-size:10px;">
式
</text>
<rect x="190.25" y="198.0" width="11.0" height="16.0" style="fill:orange; stroke:rgb(0,0,0);" rx="1"/>
<text x="192" y="207" style="font-family:sans-serif;font-size:10px;">
3
</text>
<rect x="177.875" y="66.0" width="15.0" height="16.0" style="fill:orange; stroke:rgb(0,0,0);" rx="1"/>
<text x="179" y="75" style="font-family:sans-serif;font-size:10px;">
式
</text>
<rect x="267.5" y="132.0" width="15.0" height="16.0" style="fill:orange; stroke:rgb(0,0,0);" rx="1"/>
<text x="269" y="141" style="font-family:sans-serif;font-size:10px;">
式
</text>
<rect x="167.25" y="0.0" width="15.0" height="16.0" style="fill:orange; stroke:rgb(0,0,0);" rx="1"/>
<text x="169" y="9" style="font-family:sans-serif;font-size:10px;">
程
</text>
<rect x="48.5" y="66.0" width="37.0" height="16.0" style="fill:orange; stroke:rgb(0,0,0);" rx="1"/>
<text x="50" y="75" style="font-family:sans-serif;font-size:10px;">
式或赋
</text>
<rect x="247.5" y="33.0" width="37.0" height="16.0" style="fill:orange; stroke:rgb(0,0,0);" rx="1"/>
<text x="249" y="42" style="font-family:sans-serif;font-size:10px;">
式或赋
</text>
<rect x="169.75" y="132.0" width="15.0" height="16.0" style="fill:orange; stroke:rgb(0,0,0);" rx="1"/>
<text x="171" y="141" style="font-family:sans-serif;font-size:10px;">
子
</text>
<rect x="291.5" y="33.0" width="36.0" height="16.0" style="fill:orange; stroke:rgb(0,0,0);" rx="1"/>
<text x="293" y="42" style="font-family:sans-serif;font-size:10px;">
&lt;EOF&gt;
</text>
<rect x="101.75" y="198.0" width="37.0" height="16.0" style="fill:orange; stroke:rgb(0,0,0);" rx="1"/>
<text x="103" y="207" style="font-family:sans-serif;font-size:10px;">
式或赋
</text>
<rect x="71.25" y="165.0" width="15.0" height="16.0" style="fill:orange; stroke:rgb(0,0,0);" rx="1"/>
<text x="73" y="174" style="font-family:sans-serif;font-size:10px;">
形
</text>
<rect x="42.25" y="132.0" width="37.0" height="16.0" style="fill:orange; stroke:rgb(0,0,0);" rx="1"/>
<text x="44" y="141" style="font-family:sans-serif;font-size:10px;">
形参列
</text>
<rect x="141.75" y="363.0" width="15.0" height="16.0" style="fill:orange; stroke:rgb(0,0,0);" rx="1"/>
<text x="143" y="372" style="font-family:sans-serif;font-size:10px;">
式
</text>
<rect x="27.5" y="66.0" width="14.0" height="16.0" style="fill:orange; stroke:rgb(0,0,0);" rx="1"/>
<text x="29" y="75" style="font-family:sans-serif;font-size:10px;">
&lt;-
</text>
<rect x="144.75" y="396.0" width="9.0" height="16.0" style="fill:orange; stroke:rgb(0,0,0);" rx="1"/>
<text x="146" y="405" style="font-family:sans-serif;font-size:10px;">
y
</text>
<rect x="208.75" y="198.0" width="18.0" height="16.0" style="fill:orange; stroke:rgb(0,0,0);" rx="1"/>
<text x="210" y="207" style="font-family:sans-serif;font-size:10px;">
20
</text>
<rect x="93.25" y="165.0" width="7.0" height="16.0" style="fill:orange; stroke:rgb(0,0,0);" rx="1"/>
<text x="95" y="174" style="font-family:sans-serif;font-size:10px;">
{
</text>
<rect x="210.25" y="165.0" width="15.0" height="16.0" style="fill:orange; stroke:rgb(0,0,0);" rx="1"/>
<text x="212" y="174" style="font-family:sans-serif;font-size:10px;">
式
</text>
<rect x="101.75" y="363.0" width="15.0" height="16.0" style="fill:orange; stroke:rgb(0,0,0);" rx="1"/>
<text x="103" y="372" style="font-family:sans-serif;font-size:10px;">
式
</text>
<rect x="142.25" y="99.0" width="15.0" height="16.0" style="fill:orange; stroke:rgb(0,0,0);" rx="1"/>
<text x="144" y="108" style="font-family:sans-serif;font-size:10px;">
式
</text>
<rect x="0.0" y="99.0" width="26.0" height="16.0" style="fill:orange; stroke:rgb(0,0,0);" rx="1"/>
<text x="2" y="108" style="font-family:sans-serif;font-size:10px;">
相加
</text>
<rect x="116.25" y="264.0" width="26.0" height="16.0" style="fill:orange; stroke:rgb(0,0,0);" rx="1"/>
<text x="118" y="273" style="font-family:sans-serif;font-size:10px;">
子列
</text>
<rect x="194.0" y="132.0" width="7.0" height="16.0" style="fill:orange; stroke:rgb(0,0,0);" rx="1"/>
<text x="196" y="141" style="font-family:sans-serif;font-size:10px;">
,
</text>
<rect x="59.5" y="99.0" width="15.0" height="16.0" style="fill:orange; stroke:rgb(0,0,0);" rx="1"/>
<text x="61" y="108" style="font-family:sans-serif;font-size:10px;">
式
</text>
<rect x="231.5" y="66.0" width="15.0" height="16.0" style="fill:orange; stroke:rgb(0,0,0);" rx="1"/>
<text x="233" y="75" style="font-family:sans-serif;font-size:10px;">
式
</text>
<rect x="253.5" y="66.0" width="14.0" height="16.0" style="fill:orange; stroke:rgb(0,0,0);" rx="1"/>
<text x="255" y="75" style="font-family:sans-serif;font-size:10px;">
&lt;-
</text>
<rect x="92.5" y="132.0" width="7.0" height="16.0" style="fill:orange; stroke:rgb(0,0,0);" rx="1"/>
<text x="94" y="141" style="font-family:sans-serif;font-size:10px;">
)
</text>
<rect x="5.5" y="66.0" width="15.0" height="16.0" style="fill:orange; stroke:rgb(0,0,0);" rx="1"/>
<text x="7" y="75" style="font-family:sans-serif;font-size:10px;">
式
</text>
<rect x="217.5" y="99.0" width="7.0" height="16.0" style="fill:orange; stroke:rgb(0,0,0);" rx="1"/>
<text x="219" y="108" style="font-family:sans-serif;font-size:10px;">
)
</text>
<rect x="149.25" y="264.0" width="7.0" height="16.0" style="fill:orange; stroke:rgb(0,0,0);" rx="1"/>
<text x="151" y="273" style="font-family:sans-serif;font-size:10px;">
)
</text>
</svg>