<svg width="1115.4" height="603.9000000000001" xmlns="http://www.w3.org/2000/svg" xmlns:xlink="http://www.w3.org/1999/xlink"><line x1="103.75" y1="8.0" x2="103.75" y2="33.0" style="stroke:black; stroke-width:1px;" />
<line x1="103.75" y1="41.0" x2="3.5" y2="66.0" style="stroke:black; stroke-width:1px;" />
<line x1="103.75" y1="41.0" x2="21.5" y2="66.0" style="stroke:black; stroke-width:1px;" />
<line x1="21.5" y1="74.0" x2="21.5" y2="99.0" style="stroke:black; stroke-width:1px;" />
<line x1="103.75" y1="41.0" x2="42.0" y2="66.0" style="stroke:black; stroke-width:1px;" />
<line x1="103.75" y1="41.0" x2="62.5" y2="66.0" style="stroke:black; stroke-width:1px;" />
<line x1="62.5" y1="74.0" x2="62.5" y2="99.0" style="stroke:black; stroke-width:1px;" />
<line x1="103.75" y1="41.0" x2="87.75" y2="66.0" style="stroke:black; stroke-width:1px;" />
<line x1="103.75" y1="41.0" x2="113.0" y2="66.0" style="stroke:black; stroke-width:1px;" />
<line x1="113.0" y1="74.0" x2="113.0" y2="99.0" style="stroke:black; stroke-width:1px;" />
<line x1="103.75" y1="41.0" x2="131.0" y2="66.0" style="stroke:black; stroke-width:1px;" />
<line x1="103.75" y1="41.0" x2="149.0" y2="66.0" style="stroke:black; stroke-width:1px;" />
<line x1="149.0" y1="74.0" x2="149.0" y2="99.0" style="stroke:black; stroke-width:1px;" />
<line x1="103.75" y1="41.0" x2="167.5" y2="66.0" style="stroke:black; stroke-width:1px;" />
<line x1="103.75" y1="41.0" x2="186.0" y2="66.0" style="stroke:black; stroke-width:1px;" />
<line x1="186.0" y1="74.0" x2="186.0" y2="99.0" style="stroke:black; stroke-width:1px;" />
<line x1="103.75" y1="41.0" x2="204.0" y2="66.0" style="stroke:black; stroke-width:1px;" />
<rect x="105.5" y="66.0" width="15.0" height="16.0" style="fill:orange; stroke:rgb(0,0,0);" rx="1"/>
<text x="107" y="75" style="font-family:sans-serif;font-size:10px;">
值
</text>
<rect x="168.0" y="99.0" width="36.0" height="16.0" style="fill:orange; stroke:rgb(0,0,0);" rx="1"/>
<text x="170" y="108" style="font-family:sans-serif;font-size:10px;">
"队列"
</text>
<rect x="84.25" y="66.0" width="7.0" height="16.0" style="fill:orange; stroke:rgb(0,0,0);" rx="1"/>
<text x="86" y="75" style="font-family:sans-serif;font-size:10px;">
,
</text>
<rect x="96.25" y="33.0" width="15.0" height="16.0" style="fill:orange; stroke:rgb(0,0,0);" rx="1"/>
<text x="98" y="42" style="font-family:sans-serif;font-size:10px;">
队
</text>
<rect x="127.5" y="66.0" width="7.0" height="16.0" style="fill:orange; stroke:rgb(0,0,0);" rx="1"/>
<text x="129" y="75" style="font-family:sans-serif;font-size:10px;">
,
</text>
<rect x="200.5" y="66.0" width="7.0" height="16.0" style="fill:orange; stroke:rgb(0,0,0);" rx="1"/>
<text x="202" y="75" style="font-family:sans-serif;font-size:10px;">
]
</text>
<rect x="96.0" y="99.0" width="34.0" height="16.0" style="fill:orange; stroke:rgb(0,0,0);" rx="1"/>
<text x="98" y="108" style="font-family:sans-serif;font-size:10px;">
2.4e5
</text>
<rect x="178.5" y="66.0" width="15.0" height="16.0" style="fill:orange; stroke:rgb(0,0,0);" rx="1"/>
<text x="180" y="75" style="font-family:sans-serif;font-size:10px;">
值
</text>
<rect x="137.0" y="99.0" width="24.0" height="16.0" style="fill:orange; stroke:rgb(0,0,0);" rx="1"/>
<text x="139" y="108" style="font-family:sans-serif;font-size:10px;">
true
</text>
<rect x="164.0" y="66.0" width="7.0" height="16.0" style="fill:orange; stroke:rgb(0,0,0);" rx="1"/>
<text x="166" y="75" style="font-family:sans-serif;font-size:10px;">
,
</text>
<rect x="141.5" y="66.0" width="15.0" height="16.0" style="fill:orange; stroke:rgb(0,0,0);" rx="1"/>
<text x="143" y="75" style="font-family:sans-serif;font-size:10px;">
值
</text>
<rect x="0.0" y="66.0" width="7.0" height="16.0" style="fill:orange; stroke:rgb(0,0,0);" rx="1"/>
<text x="2" y="75" style="font-family:sans-serif;font-size:10px;">
[
</text>
<rect x="14.0" y="66.0" width="15.0" height="16.0" style="fill:orange; stroke:rgb(0,0,0);" rx="1"/>
<text x="16" y="75" style="font-family:sans-serif;font-size:10px;">
值
</text>
<rect x="36.0" y="99.0" width="53.0" height="16.0" style="fill:orange; stroke:rgb(0,0,0);" rx="1"/>
<text x="38" y="108" style="font-family:sans-serif;font-size:10px;">
"\u4e00"
</text>
<rect x="91.75" y="0.0" width="24.0" height="16.0" style="fill:orange; stroke:rgb(0,0,0);" rx="1"/>
<text x="93" y="9" style="font-family:sans-serif;font-size:10px;">
json
</text>
<rect x="38.5" y="66.0" width="7.0" height="16.0" style="fill:orange; stroke:rgb(0,0,0);" rx="1"/>
<text x="40" y="75" style="font-family:sans-serif;font-size:10px;">
,
</text>
<rect x="14.0" y="99.0" width="15.0" height="16.0" style="fill:orange; stroke:rgb(0,0,0);" rx="1"/>
<text x="16" y="108" style="font-family:sans-serif;font-size:10px;">
真
</text>
<rect x="55.0" y="66.0" width="15.0" height="16.0" style="fill:orange; stroke:rgb(0,0,0);" rx="1"/>
<text x="57" y="75" style="font-family:sans-serif;font-size:10px;">
值
</text>
</svg>