<svg width="1097.8000000000002" height="612.7" xmlns="http://www.w3.org/2000/svg" xmlns:xlink="http://www.w3.org/1999/xlink"><line x1="195.25" y1="8.0" x2="195.25" y2="33.0" style="stroke:black; stroke-width:1px;" />
<line x1="195.25" y1="41.0" x2="177.25" y2="66.0" style="stroke:black; stroke-width:1px;" />
<line x1="195.25" y1="41.0" x2="195.25" y2="66.0" style="stroke:black; stroke-width:1px;" />
<line x1="195.25" y1="74.0" x2="172.0" y2="99.0" style="stroke:black; stroke-width:1px;" />
<line x1="195.25" y1="74.0" x2="200.5" y2="99.0" style="stroke:black; stroke-width:1px;" />
<line x1="195.25" y1="74.0" x2="218.5" y2="99.0" style="stroke:black; stroke-width:1px;" />
<line x1="218.5" y1="107.0" x2="218.5" y2="132.0" style="stroke:black; stroke-width:1px;" />
<line x1="218.5" y1="140.0" x2="23.25" y2="165.0" style="stroke:black; stroke-width:1px;" />
<line x1="218.5" y1="140.0" x2="41.25" y2="165.0" style="stroke:black; stroke-width:1px;" />
<line x1="41.25" y1="173.0" x2="18.0" y2="198.0" style="stroke:black; stroke-width:1px;" />
<line x1="41.25" y1="173.0" x2="46.5" y2="198.0" style="stroke:black; stroke-width:1px;" />
<line x1="41.25" y1="173.0" x2="64.5" y2="198.0" style="stroke:black; stroke-width:1px;" />
<line x1="64.5" y1="206.0" x2="64.5" y2="231.0" style="stroke:black; stroke-width:1px;" />
<line x1="218.5" y1="140.0" x2="80.75" y2="165.0" style="stroke:black; stroke-width:1px;" />
<line x1="218.5" y1="140.0" x2="120.25" y2="165.0" style="stroke:black; stroke-width:1px;" />
<line x1="120.25" y1="173.0" x2="97.0" y2="198.0" style="stroke:black; stroke-width:1px;" />
<line x1="120.25" y1="173.0" x2="125.5" y2="198.0" style="stroke:black; stroke-width:1px;" />
<line x1="120.25" y1="173.0" x2="143.5" y2="198.0" style="stroke:black; stroke-width:1px;" />
<line x1="143.5" y1="206.0" x2="143.5" y2="231.0" style="stroke:black; stroke-width:1px;" />
<line x1="218.5" y1="140.0" x2="168.0" y2="165.0" style="stroke:black; stroke-width:1px;" />
<line x1="218.5" y1="140.0" x2="215.75" y2="165.0" style="stroke:black; stroke-width:1px;" />
<line x1="215.75" y1="173.0" x2="187.0" y2="198.0" style="stroke:black; stroke-width:1px;" />
<line x1="215.75" y1="173.0" x2="226.5" y2="198.0" style="stroke:black; stroke-width:1px;" />
<line x1="215.75" y1="173.0" x2="244.5" y2="198.0" style="stroke:black; stroke-width:1px;" />
<line x1="244.5" y1="206.0" x2="244.5" y2="231.0" style="stroke:black; stroke-width:1px;" />
<line x1="218.5" y1="140.0" x2="258.0" y2="165.0" style="stroke:black; stroke-width:1px;" />
<line x1="218.5" y1="140.0" x2="300.25" y2="165.0" style="stroke:black; stroke-width:1px;" />
<line x1="300.25" y1="173.0" x2="277.0" y2="198.0" style="stroke:black; stroke-width:1px;" />
<line x1="300.25" y1="173.0" x2="305.5" y2="198.0" style="stroke:black; stroke-width:1px;" />
<line x1="300.25" y1="173.0" x2="323.5" y2="198.0" style="stroke:black; stroke-width:1px;" />
<line x1="323.5" y1="206.0" x2="323.5" y2="231.0" style="stroke:black; stroke-width:1px;" />
<line x1="218.5" y1="140.0" x2="348.0" y2="165.0" style="stroke:black; stroke-width:1px;" />
<line x1="218.5" y1="140.0" x2="395.75" y2="165.0" style="stroke:black; stroke-width:1px;" />
<line x1="395.75" y1="173.0" x2="367.0" y2="198.0" style="stroke:black; stroke-width:1px;" />
<line x1="395.75" y1="173.0" x2="406.5" y2="198.0" style="stroke:black; stroke-width:1px;" />
<line x1="395.75" y1="173.0" x2="424.5" y2="198.0" style="stroke:black; stroke-width:1px;" />
<line x1="424.5" y1="206.0" x2="424.5" y2="231.0" style="stroke:black; stroke-width:1px;" />
<line x1="218.5" y1="140.0" x2="413.75" y2="165.0" style="stroke:black; stroke-width:1px;" />
<line x1="195.25" y1="41.0" x2="213.25" y2="66.0" style="stroke:black; stroke-width:1px;" />
<rect x="77.25" y="165.0" width="7.0" height="16.0" style="fill:orange; stroke:rgb(0,0,0);" rx="1"/>
<text x="79" y="174" style="font-family:sans-serif;font-size:10px;">
,
</text>
<rect x="316.0" y="198.0" width="15.0" height="16.0" style="fill:orange; stroke:rgb(0,0,0);" rx="1"/>
<text x="318" y="207" style="font-family:sans-serif;font-size:10px;">
值
</text>
<rect x="158.0" y="198.0" width="58.0" height="16.0" style="fill:orange; stroke:rgb(0,0,0);" rx="1"/>
<text x="160" y="207" style="font-family:sans-serif;font-size:10px;">
"日地距离"
</text>
<rect x="33.75" y="165.0" width="15.0" height="16.0" style="fill:orange; stroke:rgb(0,0,0);" rx="1"/>
<text x="35" y="174" style="font-family:sans-serif;font-size:10px;">
双
</text>
<rect x="112.75" y="165.0" width="15.0" height="16.0" style="fill:orange; stroke:rgb(0,0,0);" rx="1"/>
<text x="114" y="174" style="font-family:sans-serif;font-size:10px;">
双
</text>
<rect x="187.75" y="33.0" width="15.0" height="16.0" style="fill:orange; stroke:rgb(0,0,0);" rx="1"/>
<text x="189" y="42" style="font-family:sans-serif;font-size:10px;">
物
</text>
<rect x="200.5" y="231.0" width="88.0" height="16.0" style="fill:orange; stroke:rgb(0,0,0);" rx="1"/>
<text x="202" y="240" style="font-family:sans-serif;font-size:10px;">
149597870700
</text>
<rect x="338.0" y="198.0" width="58.0" height="16.0" style="fill:orange; stroke:rgb(0,0,0);" rx="1"/>
<text x="340" y="207" style="font-family:sans-serif;font-size:10px;">
"自转周期"
</text>
<rect x="208.25" y="165.0" width="15.0" height="16.0" style="fill:orange; stroke:rgb(0,0,0);" rx="1"/>
<text x="210" y="174" style="font-family:sans-serif;font-size:10px;">
双
</text>
<rect x="187.75" y="66.0" width="15.0" height="16.0" style="fill:orange; stroke:rgb(0,0,0);" rx="1"/>
<text x="189" y="75" style="font-family:sans-serif;font-size:10px;">
双
</text>
<rect x="259.0" y="198.0" width="36.0" height="16.0" style="fill:orange; stroke:rgb(0,0,0);" rx="1"/>
<text x="261" y="207" style="font-family:sans-serif;font-size:10px;">
"质量"
</text>
<rect x="197.0" y="99.0" width="7.0" height="16.0" style="fill:orange; stroke:rgb(0,0,0);" rx="1"/>
<text x="199" y="108" style="font-family:sans-serif;font-size:10px;">
:
</text>
<rect x="223.0" y="198.0" width="7.0" height="16.0" style="fill:orange; stroke:rgb(0,0,0);" rx="1"/>
<text x="225" y="207" style="font-family:sans-serif;font-size:10px;">
:
</text>
<rect x="120.0" y="231.0" width="47.0" height="16.0" style="fill:orange; stroke:rgb(0,0,0);" rx="1"/>
<text x="122" y="240" style="font-family:sans-serif;font-size:10px;">
"太阳系"
</text>
<rect x="122.0" y="198.0" width="7.0" height="16.0" style="fill:orange; stroke:rgb(0,0,0);" rx="1"/>
<text x="124" y="207" style="font-family:sans-serif;font-size:10px;">
:
</text>
<rect x="302.0" y="198.0" width="7.0" height="16.0" style="fill:orange; stroke:rgb(0,0,0);" rx="1"/>
<text x="304" y="207" style="font-family:sans-serif;font-size:10px;">
:
</text>
<rect x="57.0" y="231.0" width="15.0" height="16.0" style="fill:orange; stroke:rgb(0,0,0);" rx="1"/>
<text x="59" y="240" style="font-family:sans-serif;font-size:10px;">
真
</text>
<rect x="237.0" y="198.0" width="15.0" height="16.0" style="fill:orange; stroke:rgb(0,0,0);" rx="1"/>
<text x="239" y="207" style="font-family:sans-serif;font-size:10px;">
值
</text>
<rect x="154.0" y="99.0" width="36.0" height="16.0" style="fill:orange; stroke:rgb(0,0,0);" rx="1"/>
<text x="156" y="108" style="font-family:sans-serif;font-size:10px;">
"太阳"
</text>
<rect x="173.75" y="66.0" width="7.0" height="16.0" style="fill:orange; stroke:rgb(0,0,0);" rx="1"/>
<text x="175" y="75" style="font-family:sans-serif;font-size:10px;">
{
</text>
<rect x="183.25" y="0.0" width="24.0" height="16.0" style="fill:orange; stroke:rgb(0,0,0);" rx="1"/>
<text x="185" y="9" style="font-family:sans-serif;font-size:10px;">
json
</text>
<rect x="254.5" y="165.0" width="7.0" height="16.0" style="fill:orange; stroke:rgb(0,0,0);" rx="1"/>
<text x="256" y="174" style="font-family:sans-serif;font-size:10px;">
,
</text>
<rect x="292.75" y="165.0" width="15.0" height="16.0" style="fill:orange; stroke:rgb(0,0,0);" rx="1"/>
<text x="294" y="174" style="font-family:sans-serif;font-size:10px;">
双
</text>
<rect x="211.0" y="99.0" width="15.0" height="16.0" style="fill:orange; stroke:rgb(0,0,0);" rx="1"/>
<text x="213" y="108" style="font-family:sans-serif;font-size:10px;">
值
</text>
<rect x="79.0" y="198.0" width="36.0" height="16.0" style="fill:orange; stroke:rgb(0,0,0);" rx="1"/>
<text x="81" y="207" style="font-family:sans-serif;font-size:10px;">
"星系"
</text>
<rect x="43.0" y="198.0" width="7.0" height="16.0" style="fill:orange; stroke:rgb(0,0,0);" rx="1"/>
<text x="45" y="207" style="font-family:sans-serif;font-size:10px;">
:
</text>
<rect x="164.5" y="165.0" width="7.0" height="16.0" style="fill:orange; stroke:rgb(0,0,0);" rx="1"/>
<text x="166" y="174" style="font-family:sans-serif;font-size:10px;">
,
</text>
<rect x="136.0" y="198.0" width="15.0" height="16.0" style="fill:orange; stroke:rgb(0,0,0);" rx="1"/>
<text x="138" y="207" style="font-family:sans-serif;font-size:10px;">
值
</text>
<rect x="209.75" y="66.0" width="7.0" height="16.0" style="fill:orange; stroke:rgb(0,0,0);" rx="1"/>
<text x="211" y="75" style="font-family:sans-serif;font-size:10px;">
}
</text>
<rect x="211.0" y="132.0" width="15.0" height="16.0" style="fill:orange; stroke:rgb(0,0,0);" rx="1"/>
<text x="213" y="141" style="font-family:sans-serif;font-size:10px;">
物
</text>
<rect x="407.0" y="231.0" width="35.0" height="16.0" style="fill:orange; stroke:rgb(0,0,0);" rx="1"/>
<text x="409" y="240" style="font-family:sans-serif;font-size:10px;">
25.05
</text>
<rect x="0.0" y="198.0" width="36.0" height="16.0" style="fill:orange; stroke:rgb(0,0,0);" rx="1"/>
<text x="2" y="207" style="font-family:sans-serif;font-size:10px;">
"恒星"
</text>
<rect x="403.0" y="198.0" width="7.0" height="16.0" style="fill:orange; stroke:rgb(0,0,0);" rx="1"/>
<text x="405" y="207" style="font-family:sans-serif;font-size:10px;">
:
</text>
<rect x="57.0" y="198.0" width="15.0" height="16.0" style="fill:orange; stroke:rgb(0,0,0);" rx="1"/>
<text x="59" y="207" style="font-family:sans-serif;font-size:10px;">
值
</text>
<rect x="410.25" y="165.0" width="7.0" height="16.0" style="fill:orange; stroke:rgb(0,0,0);" rx="1"/>
<text x="412" y="174" style="font-family:sans-serif;font-size:10px;">
}
</text>
<rect x="417.0" y="198.0" width="15.0" height="16.0" style="fill:orange; stroke:rgb(0,0,0);" rx="1"/>
<text x="419" y="207" style="font-family:sans-serif;font-size:10px;">
值
</text>
<rect x="344.5" y="165.0" width="7.0" height="16.0" style="fill:orange; stroke:rgb(0,0,0);" rx="1"/>
<text x="346" y="174" style="font-family:sans-serif;font-size:10px;">
,
</text>
<rect x="308.0" y="231.0" width="31.0" height="16.0" style="fill:orange; stroke:rgb(0,0,0);" rx="1"/>
<text x="310" y="240" style="font-family:sans-serif;font-size:10px;">
2e30
</text>
<rect x="19.75" y="165.0" width="7.0" height="16.0" style="fill:orange; stroke:rgb(0,0,0);" rx="1"/>
<text x="21" y="174" style="font-family:sans-serif;font-size:10px;">
{
</text>
<rect x="388.25" y="165.0" width="15.0" height="16.0" style="fill:orange; stroke:rgb(0,0,0);" rx="1"/>
<text x="390" y="174" style="font-family:sans-serif;font-size:10px;">
双
</text>
</svg>