<svg width="731.5000000000001" height="495.00000000000006" xmlns="http://www.w3.org/2000/svg" xmlns:xlink="http://www.w3.org/1999/xlink"><line x1="62.25" y1="7.0" x2="24.0" y2="31.0" style="stroke:black; stroke-width:1px;" />
<line x1="24.0" y1="38.0" x2="14.0" y2="62.0" style="stroke:black; stroke-width:1px;" />
<line x1="24.0" y1="38.0" x2="34.0" y2="62.0" style="stroke:black; stroke-width:1px;" />
<line x1="34.0" y1="69.0" x2="9.0" y2="93.0" style="stroke:black; stroke-width:1px;" />
<line x1="34.0" y1="69.0" x2="34.0" y2="93.0" style="stroke:black; stroke-width:1px;" />
<line x1="34.0" y1="69.0" x2="59.0" y2="93.0" style="stroke:black; stroke-width:1px;" />
<line x1="62.25" y1="7.0" x2="100.5" y2="31.0" style="stroke:black; stroke-width:1px;" />
<line x1="100.5" y1="38.0" x2="90.5" y2="62.0" style="stroke:black; stroke-width:1px;" />
<line x1="100.5" y1="38.0" x2="110.5" y2="62.0" style="stroke:black; stroke-width:1px;" />
<line x1="110.5" y1="69.0" x2="91.0" y2="93.0" style="stroke:black; stroke-width:1px;" />
<line x1="110.5" y1="69.0" x2="130.0" y2="93.0" style="stroke:black; stroke-width:1px;" />
<rect x="54.75" y="0.0" width="15.0" height="14.0" style="fill:orange; stroke:rgb(0,0,0);" rx="1"/>
<text x="56" y="9" style="font-family:sans-serif;font-size:10px;">
档
</text>
<rect x="114.0" y="93.0" width="32.0" height="14.0" style="fill:orange; stroke:rgb(0,0,0);" rx="1"/>
<text x="116" y="102" style="font-family:sans-serif;font-size:10px;">
1999
</text>
<rect x="26.5" y="62.0" width="15.0" height="14.0" style="fill:orange; stroke:rgb(0,0,0);" rx="1"/>
<text x="28" y="71" style="font-family:sans-serif;font-size:10px;">
队
</text>
<rect x="75.0" y="93.0" width="32.0" height="14.0" style="fill:orange; stroke:rgb(0,0,0);" rx="1"/>
<text x="77" y="102" style="font-family:sans-serif;font-size:10px;">
1995
</text>
<rect x="0.0" y="93.0" width="18.0" height="14.0" style="fill:orange; stroke:rgb(0,0,0);" rx="1"/>
<text x="2" y="102" style="font-family:sans-serif;font-size:10px;">
98
</text>
<rect x="103.0" y="62.0" width="15.0" height="14.0" style="fill:orange; stroke:rgb(0,0,0);" rx="1"/>
<text x="105" y="71" style="font-family:sans-serif;font-size:10px;">
队
</text>
<rect x="87.5" y="31.0" width="26.0" height="14.0" style="fill:orange; stroke:rgb(0,0,0);" rx="1"/>
<text x="89" y="40" style="font-family:sans-serif;font-size:10px;">
行程
</text>
<rect x="11.0" y="31.0" width="26.0" height="14.0" style="fill:orange; stroke:rgb(0,0,0);" rx="1"/>
<text x="13" y="40" style="font-family:sans-serif;font-size:10px;">
行程
</text>
<rect x="8.5" y="62.0" width="11.0" height="14.0" style="fill:orange; stroke:rgb(0,0,0);" rx="1"/>
<text x="10" y="71" style="font-family:sans-serif;font-size:10px;">
3
</text>
<rect x="50.0" y="93.0" width="18.0" height="14.0" style="fill:orange; stroke:rgb(0,0,0);" rx="1"/>
<text x="52" y="102" style="font-family:sans-serif;font-size:10px;">
22
</text>
<rect x="85.0" y="62.0" width="11.0" height="14.0" style="fill:orange; stroke:rgb(0,0,0);" rx="1"/>
<text x="87" y="71" style="font-family:sans-serif;font-size:10px;">
2
</text>
<rect x="25.0" y="93.0" width="18.0" height="14.0" style="fill:orange; stroke:rgb(0,0,0);" rx="1"/>
<text x="27" y="102" style="font-family:sans-serif;font-size:10px;">
43
</text>
</svg>