<svg width="1631.3000000000002" height="570.9000000000001" xmlns="http://www.w3.org/2000/svg" xmlns:xlink="http://www.w3.org/1999/xlink"><line x1="421.9375" y1="8.0" x2="421.9375" y2="33.0" style="stroke:black; stroke-width:1px;" />
<line x1="421.9375" y1="41.0" x2="403.9375" y2="66.0" style="stroke:black; stroke-width:1px;" />
<line x1="421.9375" y1="41.0" x2="421.9375" y2="66.0" style="stroke:black; stroke-width:1px;" />
<line x1="421.9375" y1="74.0" x2="398.6875" y2="99.0" style="stroke:black; stroke-width:1px;" />
<line x1="421.9375" y1="74.0" x2="427.1875" y2="99.0" style="stroke:black; stroke-width:1px;" />
<line x1="421.9375" y1="74.0" x2="445.1875" y2="99.0" style="stroke:black; stroke-width:1px;" />
<line x1="445.1875" y1="107.0" x2="445.1875" y2="132.0" style="stroke:black; stroke-width:1px;" />
<line x1="445.1875" y1="140.0" x2="23.25" y2="165.0" style="stroke:black; stroke-width:1px;" />
<line x1="445.1875" y1="140.0" x2="41.25" y2="165.0" style="stroke:black; stroke-width:1px;" />
<line x1="41.25" y1="173.0" x2="18.0" y2="198.0" style="stroke:black; stroke-width:1px;" />
<line x1="41.25" y1="173.0" x2="46.5" y2="198.0" style="stroke:black; stroke-width:1px;" />
<line x1="41.25" y1="173.0" x2="64.5" y2="198.0" style="stroke:black; stroke-width:1px;" />
<line x1="64.5" y1="206.0" x2="64.5" y2="231.0" style="stroke:black; stroke-width:1px;" />
<line x1="445.1875" y1="140.0" x2="80.75" y2="165.0" style="stroke:black; stroke-width:1px;" />
<line x1="445.1875" y1="140.0" x2="120.25" y2="165.0" style="stroke:black; stroke-width:1px;" />
<line x1="120.25" y1="173.0" x2="97.0" y2="198.0" style="stroke:black; stroke-width:1px;" />
<line x1="120.25" y1="173.0" x2="125.5" y2="198.0" style="stroke:black; stroke-width:1px;" />
<line x1="120.25" y1="173.0" x2="143.5" y2="198.0" style="stroke:black; stroke-width:1px;" />
<line x1="143.5" y1="206.0" x2="143.5" y2="231.0" style="stroke:black; stroke-width:1px;" />
<line x1="445.1875" y1="140.0" x2="168.0" y2="165.0" style="stroke:black; stroke-width:1px;" />
<line x1="445.1875" y1="140.0" x2="215.75" y2="165.0" style="stroke:black; stroke-width:1px;" />
<line x1="215.75" y1="173.0" x2="187.0" y2="198.0" style="stroke:black; stroke-width:1px;" />
<line x1="215.75" y1="173.0" x2="226.5" y2="198.0" style="stroke:black; stroke-width:1px;" />
<line x1="215.75" y1="173.0" x2="244.5" y2="198.0" style="stroke:black; stroke-width:1px;" />
<line x1="244.5" y1="206.0" x2="244.5" y2="231.0" style="stroke:black; stroke-width:1px;" />
<line x1="445.1875" y1="140.0" x2="258.0" y2="165.0" style="stroke:black; stroke-width:1px;" />
<line x1="445.1875" y1="140.0" x2="300.25" y2="165.0" style="stroke:black; stroke-width:1px;" />
<line x1="300.25" y1="173.0" x2="277.0" y2="198.0" style="stroke:black; stroke-width:1px;" />
<line x1="300.25" y1="173.0" x2="305.5" y2="198.0" style="stroke:black; stroke-width:1px;" />
<line x1="300.25" y1="173.0" x2="323.5" y2="198.0" style="stroke:black; stroke-width:1px;" />
<line x1="323.5" y1="206.0" x2="323.5" y2="231.0" style="stroke:black; stroke-width:1px;" />
<line x1="445.1875" y1="140.0" x2="348.0" y2="165.0" style="stroke:black; stroke-width:1px;" />
<line x1="445.1875" y1="140.0" x2="395.75" y2="165.0" style="stroke:black; stroke-width:1px;" />
<line x1="395.75" y1="173.0" x2="367.0" y2="198.0" style="stroke:black; stroke-width:1px;" />
<line x1="395.75" y1="173.0" x2="406.5" y2="198.0" style="stroke:black; stroke-width:1px;" />
<line x1="395.75" y1="173.0" x2="424.5" y2="198.0" style="stroke:black; stroke-width:1px;" />
<line x1="424.5" y1="206.0" x2="424.5" y2="231.0" style="stroke:black; stroke-width:1px;" />
<line x1="445.1875" y1="140.0" x2="446.25" y2="165.0" style="stroke:black; stroke-width:1px;" />
<line x1="445.1875" y1="140.0" x2="496.75" y2="165.0" style="stroke:black; stroke-width:1px;" />
<line x1="496.75" y1="173.0" x2="468.0" y2="198.0" style="stroke:black; stroke-width:1px;" />
<line x1="496.75" y1="173.0" x2="507.5" y2="198.0" style="stroke:black; stroke-width:1px;" />
<line x1="496.75" y1="173.0" x2="525.5" y2="198.0" style="stroke:black; stroke-width:1px;" />
<line x1="525.5" y1="206.0" x2="525.5" y2="231.0" style="stroke:black; stroke-width:1px;" />
<line x1="525.5" y1="239.0" x2="321.75" y2="264.0" style="stroke:black; stroke-width:1px;" />
<line x1="525.5" y1="239.0" x2="339.75" y2="264.0" style="stroke:black; stroke-width:1px;" />
<line x1="339.75" y1="272.0" x2="339.75" y2="297.0" style="stroke:black; stroke-width:1px;" />
<line x1="525.5" y1="239.0" x2="361.25" y2="264.0" style="stroke:black; stroke-width:1px;" />
<line x1="525.5" y1="239.0" x2="382.75" y2="264.0" style="stroke:black; stroke-width:1px;" />
<line x1="382.75" y1="272.0" x2="382.75" y2="297.0" style="stroke:black; stroke-width:1px;" />
<line x1="525.5" y1="239.0" x2="404.25" y2="264.0" style="stroke:black; stroke-width:1px;" />
<line x1="525.5" y1="239.0" x2="425.75" y2="264.0" style="stroke:black; stroke-width:1px;" />
<line x1="425.75" y1="272.0" x2="425.75" y2="297.0" style="stroke:black; stroke-width:1px;" />
<line x1="525.5" y1="239.0" x2="447.25" y2="264.0" style="stroke:black; stroke-width:1px;" />
<line x1="525.5" y1="239.0" x2="468.75" y2="264.0" style="stroke:black; stroke-width:1px;" />
<line x1="468.75" y1="272.0" x2="468.75" y2="297.0" style="stroke:black; stroke-width:1px;" />
<line x1="525.5" y1="239.0" x2="490.25" y2="264.0" style="stroke:black; stroke-width:1px;" />
<line x1="525.5" y1="239.0" x2="511.75" y2="264.0" style="stroke:black; stroke-width:1px;" />
<line x1="511.75" y1="272.0" x2="511.75" y2="297.0" style="stroke:black; stroke-width:1px;" />
<line x1="525.5" y1="239.0" x2="533.25" y2="264.0" style="stroke:black; stroke-width:1px;" />
<line x1="525.5" y1="239.0" x2="554.75" y2="264.0" style="stroke:black; stroke-width:1px;" />
<line x1="554.75" y1="272.0" x2="554.75" y2="297.0" style="stroke:black; stroke-width:1px;" />
<line x1="525.5" y1="239.0" x2="579.0" y2="264.0" style="stroke:black; stroke-width:1px;" />
<line x1="525.5" y1="239.0" x2="603.25" y2="264.0" style="stroke:black; stroke-width:1px;" />
<line x1="603.25" y1="272.0" x2="603.25" y2="297.0" style="stroke:black; stroke-width:1px;" />
<line x1="525.5" y1="239.0" x2="630.25" y2="264.0" style="stroke:black; stroke-width:1px;" />
<line x1="525.5" y1="239.0" x2="657.25" y2="264.0" style="stroke:black; stroke-width:1px;" />
<line x1="657.25" y1="272.0" x2="657.25" y2="297.0" style="stroke:black; stroke-width:1px;" />
<line x1="525.5" y1="239.0" x2="684.25" y2="264.0" style="stroke:black; stroke-width:1px;" />
<line x1="525.5" y1="239.0" x2="711.25" y2="264.0" style="stroke:black; stroke-width:1px;" />
<line x1="711.25" y1="272.0" x2="711.25" y2="297.0" style="stroke:black; stroke-width:1px;" />
<line x1="525.5" y1="239.0" x2="729.25" y2="264.0" style="stroke:black; stroke-width:1px;" />
<line x1="445.1875" y1="140.0" x2="610.5" y2="165.0" style="stroke:black; stroke-width:1px;" />
<line x1="445.1875" y1="140.0" x2="724.25" y2="165.0" style="stroke:black; stroke-width:1px;" />
<line x1="724.25" y1="173.0" x2="698.25" y2="198.0" style="stroke:black; stroke-width:1px;" />
<line x1="724.25" y1="173.0" x2="732.25" y2="198.0" style="stroke:black; stroke-width:1px;" />
<line x1="724.25" y1="173.0" x2="750.25" y2="198.0" style="stroke:black; stroke-width:1px;" />
<line x1="750.25" y1="206.0" x2="750.25" y2="231.0" style="stroke:black; stroke-width:1px;" />
<line x1="750.25" y1="239.0" x2="743.25" y2="264.0" style="stroke:black; stroke-width:1px;" />
<line x1="750.25" y1="239.0" x2="757.25" y2="264.0" style="stroke:black; stroke-width:1px;" />
<line x1="445.1875" y1="140.0" x2="786.6875" y2="165.0" style="stroke:black; stroke-width:1px;" />
<line x1="445.1875" y1="140.0" x2="849.125" y2="165.0" style="stroke:black; stroke-width:1px;" />
<line x1="849.125" y1="173.0" x2="825.875" y2="198.0" style="stroke:black; stroke-width:1px;" />
<line x1="849.125" y1="173.0" x2="854.375" y2="198.0" style="stroke:black; stroke-width:1px;" />
<line x1="849.125" y1="173.0" x2="872.375" y2="198.0" style="stroke:black; stroke-width:1px;" />
<line x1="872.375" y1="206.0" x2="872.375" y2="231.0" style="stroke:black; stroke-width:1px;" />
<line x1="872.375" y1="239.0" x2="771.25" y2="264.0" style="stroke:black; stroke-width:1px;" />
<line x1="872.375" y1="239.0" x2="789.25" y2="264.0" style="stroke:black; stroke-width:1px;" />
<line x1="789.25" y1="272.0" x2="766.0" y2="297.0" style="stroke:black; stroke-width:1px;" />
<line x1="789.25" y1="272.0" x2="794.5" y2="297.0" style="stroke:black; stroke-width:1px;" />
<line x1="789.25" y1="272.0" x2="812.5" y2="297.0" style="stroke:black; stroke-width:1px;" />
<line x1="812.5" y1="305.0" x2="812.5" y2="330.0" style="stroke:black; stroke-width:1px;" />
<line x1="872.375" y1="239.0" x2="828.75" y2="264.0" style="stroke:black; stroke-width:1px;" />
<line x1="872.375" y1="239.0" x2="868.25" y2="264.0" style="stroke:black; stroke-width:1px;" />
<line x1="868.25" y1="272.0" x2="845.0" y2="297.0" style="stroke:black; stroke-width:1px;" />
<line x1="868.25" y1="272.0" x2="873.5" y2="297.0" style="stroke:black; stroke-width:1px;" />
<line x1="868.25" y1="272.0" x2="891.5" y2="297.0" style="stroke:black; stroke-width:1px;" />
<line x1="891.5" y1="305.0" x2="891.5" y2="330.0" style="stroke:black; stroke-width:1px;" />
<line x1="872.375" y1="239.0" x2="911.875" y2="264.0" style="stroke:black; stroke-width:1px;" />
<line x1="872.375" y1="239.0" x2="955.5" y2="264.0" style="stroke:black; stroke-width:1px;" />
<line x1="955.5" y1="272.0" x2="929.5" y2="297.0" style="stroke:black; stroke-width:1px;" />
<line x1="955.5" y1="272.0" x2="963.5" y2="297.0" style="stroke:black; stroke-width:1px;" />
<line x1="955.5" y1="272.0" x2="981.5" y2="297.0" style="stroke:black; stroke-width:1px;" />
<line x1="981.5" y1="305.0" x2="981.5" y2="330.0" style="stroke:black; stroke-width:1px;" />
<line x1="872.375" y1="239.0" x2="973.5" y2="264.0" style="stroke:black; stroke-width:1px;" />
<line x1="445.1875" y1="140.0" x2="867.125" y2="165.0" style="stroke:black; stroke-width:1px;" />
<line x1="421.9375" y1="41.0" x2="439.9375" y2="66.0" style="stroke:black; stroke-width:1px;" />
<rect x="633.75" y="297.0" width="47.0" height="16.0" style="fill:orange; stroke:rgb(0,0,0);" rx="1"/>
<text x="635" y="306" style="font-family:sans-serif;font-size:10px;">
"海王星"
</text>
<rect x="974.0" y="297.0" width="15.0" height="16.0" style="fill:orange; stroke:rgb(0,0,0);" rx="1"/>
<text x="976" y="306" style="font-family:sans-serif;font-size:10px;">
值
</text>
<rect x="703.75" y="264.0" width="15.0" height="16.0" style="fill:orange; stroke:rgb(0,0,0);" rx="1"/>
<text x="705" y="273" style="font-family:sans-serif;font-size:10px;">
值
</text>
<rect x="308.0" y="231.0" width="31.0" height="16.0" style="fill:orange; stroke:rgb(0,0,0);" rx="1"/>
<text x="310" y="240" style="font-family:sans-serif;font-size:10px;">
2e30
</text>
<rect x="237.0" y="198.0" width="15.0" height="16.0" style="fill:orange; stroke:rgb(0,0,0);" rx="1"/>
<text x="239" y="207" style="font-family:sans-serif;font-size:10px;">
值
</text>
<rect x="825.25" y="264.0" width="7.0" height="16.0" style="fill:orange; stroke:rgb(0,0,0);" rx="1"/>
<text x="827" y="273" style="font-family:sans-serif;font-size:10px;">
,
</text>
<rect x="504.0" y="198.0" width="7.0" height="16.0" style="fill:orange; stroke:rgb(0,0,0);" rx="1"/>
<text x="506" y="207" style="font-family:sans-serif;font-size:10px;">
:
</text>
<rect x="442.75" y="165.0" width="7.0" height="16.0" style="fill:orange; stroke:rgb(0,0,0);" rx="1"/>
<text x="444" y="174" style="font-family:sans-serif;font-size:10px;">
,
</text>
<rect x="687.75" y="297.0" width="47.0" height="16.0" style="fill:orange; stroke:rgb(0,0,0);" rx="1"/>
<text x="689" y="306" style="font-family:sans-serif;font-size:10px;">
"冥王星"
</text>
<rect x="254.5" y="165.0" width="7.0" height="16.0" style="fill:orange; stroke:rgb(0,0,0);" rx="1"/>
<text x="256" y="174" style="font-family:sans-serif;font-size:10px;">
,
</text>
<rect x="403.0" y="198.0" width="7.0" height="16.0" style="fill:orange; stroke:rgb(0,0,0);" rx="1"/>
<text x="405" y="207" style="font-family:sans-serif;font-size:10px;">
:
</text>
<rect x="357.75" y="264.0" width="7.0" height="16.0" style="fill:orange; stroke:rgb(0,0,0);" rx="1"/>
<text x="359" y="273" style="font-family:sans-serif;font-size:10px;">
,
</text>
<rect x="547.25" y="264.0" width="15.0" height="16.0" style="fill:orange; stroke:rgb(0,0,0);" rx="1"/>
<text x="549" y="273" style="font-family:sans-serif;font-size:10px;">
值
</text>
<rect x="863.625" y="165.0" width="7.0" height="16.0" style="fill:orange; stroke:rgb(0,0,0);" rx="1"/>
<text x="865" y="174" style="font-family:sans-serif;font-size:10px;">
}
</text>
<rect x="400.75" y="264.0" width="7.0" height="16.0" style="fill:orange; stroke:rgb(0,0,0);" rx="1"/>
<text x="402" y="273" style="font-family:sans-serif;font-size:10px;">
,
</text>
<rect x="579.75" y="297.0" width="47.0" height="16.0" style="fill:orange; stroke:rgb(0,0,0);" rx="1"/>
<text x="581" y="306" style="font-family:sans-serif;font-size:10px;">
"天王星"
</text>
<rect x="57.0" y="231.0" width="15.0" height="16.0" style="fill:orange; stroke:rgb(0,0,0);" rx="1"/>
<text x="59" y="240" style="font-family:sans-serif;font-size:10px;">
真
</text>
<rect x="860.5" y="330.0" width="62.0" height="16.0" style="fill:orange; stroke:rgb(0,0,0);" rx="1"/>
<text x="862" y="339" style="font-family:sans-serif;font-size:10px;">
3.3022E23
</text>
<rect x="318.25" y="264.0" width="7.0" height="16.0" style="fill:orange; stroke:rgb(0,0,0);" rx="1"/>
<text x="320" y="273" style="font-family:sans-serif;font-size:10px;">
[
</text>
<rect x="595.75" y="264.0" width="15.0" height="16.0" style="fill:orange; stroke:rgb(0,0,0);" rx="1"/>
<text x="597" y="273" style="font-family:sans-serif;font-size:10px;">
值
</text>
<rect x="781.75" y="264.0" width="15.0" height="16.0" style="fill:orange; stroke:rgb(0,0,0);" rx="1"/>
<text x="783" y="273" style="font-family:sans-serif;font-size:10px;">
双
</text>
<rect x="414.4375" y="33.0" width="15.0" height="16.0" style="fill:orange; stroke:rgb(0,0,0);" rx="1"/>
<text x="416" y="42" style="font-family:sans-serif;font-size:10px;">
物
</text>
<rect x="529.75" y="264.0" width="7.0" height="16.0" style="fill:orange; stroke:rgb(0,0,0);" rx="1"/>
<text x="531" y="273" style="font-family:sans-serif;font-size:10px;">
,
</text>
<rect x="122.0" y="198.0" width="7.0" height="16.0" style="fill:orange; stroke:rgb(0,0,0);" rx="1"/>
<text x="124" y="207" style="font-family:sans-serif;font-size:10px;">
:
</text>
<rect x="884.0" y="297.0" width="15.0" height="16.0" style="fill:orange; stroke:rgb(0,0,0);" rx="1"/>
<text x="886" y="306" style="font-family:sans-serif;font-size:10px;">
值
</text>
<rect x="850.875" y="198.0" width="7.0" height="16.0" style="fill:orange; stroke:rgb(0,0,0);" rx="1"/>
<text x="852" y="207" style="font-family:sans-serif;font-size:10px;">
:
</text>
<rect x="870.0" y="297.0" width="7.0" height="16.0" style="fill:orange; stroke:rgb(0,0,0);" rx="1"/>
<text x="872" y="306" style="font-family:sans-serif;font-size:10px;">
:
</text>
<rect x="400.4375" y="66.0" width="7.0" height="16.0" style="fill:orange; stroke:rgb(0,0,0);" rx="1"/>
<text x="402" y="75" style="font-family:sans-serif;font-size:10px;">
{
</text>
<rect x="200.5" y="231.0" width="88.0" height="16.0" style="fill:orange; stroke:rgb(0,0,0);" rx="1"/>
<text x="202" y="240" style="font-family:sans-serif;font-size:10px;">
149597870700
</text>
<rect x="518.0" y="198.0" width="15.0" height="16.0" style="fill:orange; stroke:rgb(0,0,0);" rx="1"/>
<text x="520" y="207" style="font-family:sans-serif;font-size:10px;">
值
</text>
<rect x="860.75" y="264.0" width="15.0" height="16.0" style="fill:orange; stroke:rgb(0,0,0);" rx="1"/>
<text x="862" y="273" style="font-family:sans-serif;font-size:10px;">
双
</text>
<rect x="791.0" y="297.0" width="7.0" height="16.0" style="fill:orange; stroke:rgb(0,0,0);" rx="1"/>
<text x="793" y="306" style="font-family:sans-serif;font-size:10px;">
:
</text>
<rect x="223.0" y="198.0" width="7.0" height="16.0" style="fill:orange; stroke:rgb(0,0,0);" rx="1"/>
<text x="225" y="207" style="font-family:sans-serif;font-size:10px;">
:
</text>
<rect x="908.375" y="264.0" width="7.0" height="16.0" style="fill:orange; stroke:rgb(0,0,0);" rx="1"/>
<text x="910" y="273" style="font-family:sans-serif;font-size:10px;">
,
</text>
<rect x="57.0" y="198.0" width="15.0" height="16.0" style="fill:orange; stroke:rgb(0,0,0);" rx="1"/>
<text x="59" y="207" style="font-family:sans-serif;font-size:10px;">
值
</text>
<rect x="493.75" y="297.0" width="36.0" height="16.0" style="fill:orange; stroke:rgb(0,0,0);" rx="1"/>
<text x="495" y="306" style="font-family:sans-serif;font-size:10px;">
"木星"
</text>
<rect x="316.0" y="198.0" width="15.0" height="16.0" style="fill:orange; stroke:rgb(0,0,0);" rx="1"/>
<text x="318" y="207" style="font-family:sans-serif;font-size:10px;">
值
</text>
<rect x="418.25" y="264.0" width="15.0" height="16.0" style="fill:orange; stroke:rgb(0,0,0);" rx="1"/>
<text x="420" y="273" style="font-family:sans-serif;font-size:10px;">
值
</text>
<rect x="208.25" y="165.0" width="15.0" height="16.0" style="fill:orange; stroke:rgb(0,0,0);" rx="1"/>
<text x="210" y="174" style="font-family:sans-serif;font-size:10px;">
双
</text>
<rect x="536.75" y="297.0" width="36.0" height="16.0" style="fill:orange; stroke:rgb(0,0,0);" rx="1"/>
<text x="538" y="306" style="font-family:sans-serif;font-size:10px;">
"土星"
</text>
<rect x="158.0" y="198.0" width="58.0" height="16.0" style="fill:orange; stroke:rgb(0,0,0);" rx="1"/>
<text x="160" y="207" style="font-family:sans-serif;font-size:10px;">
"日地距离"
</text>
<rect x="0.0" y="198.0" width="36.0" height="16.0" style="fill:orange; stroke:rgb(0,0,0);" rx="1"/>
<text x="2" y="207" style="font-family:sans-serif;font-size:10px;">
"恒星"
</text>
<rect x="489.25" y="165.0" width="15.0" height="16.0" style="fill:orange; stroke:rgb(0,0,0);" rx="1"/>
<text x="491" y="174" style="font-family:sans-serif;font-size:10px;">
双
</text>
<rect x="753.75" y="264.0" width="7.0" height="16.0" style="fill:orange; stroke:rgb(0,0,0);" rx="1"/>
<text x="755" y="273" style="font-family:sans-serif;font-size:10px;">
]
</text>
<rect x="292.75" y="165.0" width="15.0" height="16.0" style="fill:orange; stroke:rgb(0,0,0);" rx="1"/>
<text x="294" y="174" style="font-family:sans-serif;font-size:10px;">
双
</text>
<rect x="725.75" y="264.0" width="7.0" height="16.0" style="fill:orange; stroke:rgb(0,0,0);" rx="1"/>
<text x="727" y="273" style="font-family:sans-serif;font-size:10px;">
]
</text>
<rect x="518.0" y="231.0" width="15.0" height="16.0" style="fill:orange; stroke:rgb(0,0,0);" rx="1"/>
<text x="520" y="240" style="font-family:sans-serif;font-size:10px;">
队
</text>
<rect x="807.0" y="330.0" width="11.0" height="16.0" style="fill:orange; stroke:rgb(0,0,0);" rx="1"/>
<text x="809" y="339" style="font-family:sans-serif;font-size:10px;">
1
</text>
<rect x="136.0" y="198.0" width="15.0" height="16.0" style="fill:orange; stroke:rgb(0,0,0);" rx="1"/>
<text x="138" y="207" style="font-family:sans-serif;font-size:10px;">
值
</text>
<rect x="461.25" y="264.0" width="15.0" height="16.0" style="fill:orange; stroke:rgb(0,0,0);" rx="1"/>
<text x="463" y="273" style="font-family:sans-serif;font-size:10px;">
值
</text>
<rect x="841.625" y="165.0" width="15.0" height="16.0" style="fill:orange; stroke:rgb(0,0,0);" rx="1"/>
<text x="843" y="174" style="font-family:sans-serif;font-size:10px;">
双
</text>
<rect x="827.0" y="297.0" width="36.0" height="16.0" style="fill:orange; stroke:rgb(0,0,0);" rx="1"/>
<text x="829" y="306" style="font-family:sans-serif;font-size:10px;">
"质量"
</text>
<rect x="407.75" y="297.0" width="36.0" height="16.0" style="fill:orange; stroke:rgb(0,0,0);" rx="1"/>
<text x="409" y="306" style="font-family:sans-serif;font-size:10px;">
"地球"
</text>
<rect x="716.75" y="165.0" width="15.0" height="16.0" style="fill:orange; stroke:rgb(0,0,0);" rx="1"/>
<text x="718" y="174" style="font-family:sans-serif;font-size:10px;">
双
</text>
<rect x="437.6875" y="132.0" width="15.0" height="16.0" style="fill:orange; stroke:rgb(0,0,0);" rx="1"/>
<text x="439" y="141" style="font-family:sans-serif;font-size:10px;">
物
</text>
<rect x="77.25" y="165.0" width="7.0" height="16.0" style="fill:orange; stroke:rgb(0,0,0);" rx="1"/>
<text x="79" y="174" style="font-family:sans-serif;font-size:10px;">
,
</text>
<rect x="948.0" y="264.0" width="15.0" height="16.0" style="fill:orange; stroke:rgb(0,0,0);" rx="1"/>
<text x="950" y="273" style="font-family:sans-serif;font-size:10px;">
双
</text>
<rect x="364.75" y="297.0" width="36.0" height="16.0" style="fill:orange; stroke:rgb(0,0,0);" rx="1"/>
<text x="366" y="306" style="font-family:sans-serif;font-size:10px;">
"金星"
</text>
<rect x="728.75" y="198.0" width="7.0" height="16.0" style="fill:orange; stroke:rgb(0,0,0);" rx="1"/>
<text x="730" y="207" style="font-family:sans-serif;font-size:10px;">
:
</text>
<rect x="807.875" y="198.0" width="36.0" height="16.0" style="fill:orange; stroke:rgb(0,0,0);" rx="1"/>
<text x="809" y="207" style="font-family:sans-serif;font-size:10px;">
"水星"
</text>
<rect x="344.5" y="165.0" width="7.0" height="16.0" style="fill:orange; stroke:rgb(0,0,0);" rx="1"/>
<text x="346" y="174" style="font-family:sans-serif;font-size:10px;">
,
</text>
<rect x="674.75" y="198.0" width="47.0" height="16.0" style="fill:orange; stroke:rgb(0,0,0);" rx="1"/>
<text x="676" y="207" style="font-family:sans-serif;font-size:10px;">
"行星带"
</text>
<rect x="437.6875" y="99.0" width="15.0" height="16.0" style="fill:orange; stroke:rgb(0,0,0);" rx="1"/>
<text x="439" y="108" style="font-family:sans-serif;font-size:10px;">
值
</text>
<rect x="417.0" y="198.0" width="15.0" height="16.0" style="fill:orange; stroke:rgb(0,0,0);" rx="1"/>
<text x="419" y="207" style="font-family:sans-serif;font-size:10px;">
值
</text>
<rect x="439.0" y="198.0" width="58.0" height="16.0" style="fill:orange; stroke:rgb(0,0,0);" rx="1"/>
<text x="441" y="207" style="font-family:sans-serif;font-size:10px;">
"所带行星"
</text>
<rect x="864.875" y="231.0" width="15.0" height="16.0" style="fill:orange; stroke:rgb(0,0,0);" rx="1"/>
<text x="866" y="240" style="font-family:sans-serif;font-size:10px;">
物
</text>
<rect x="332.25" y="264.0" width="15.0" height="16.0" style="fill:orange; stroke:rgb(0,0,0);" rx="1"/>
<text x="334" y="273" style="font-family:sans-serif;font-size:10px;">
值
</text>
<rect x="960.0" y="297.0" width="7.0" height="16.0" style="fill:orange; stroke:rgb(0,0,0);" rx="1"/>
<text x="962" y="306" style="font-family:sans-serif;font-size:10px;">
:
</text>
<rect x="486.75" y="264.0" width="7.0" height="16.0" style="fill:orange; stroke:rgb(0,0,0);" rx="1"/>
<text x="488" y="273" style="font-family:sans-serif;font-size:10px;">
,
</text>
<rect x="864.875" y="198.0" width="15.0" height="16.0" style="fill:orange; stroke:rgb(0,0,0);" rx="1"/>
<text x="866" y="207" style="font-family:sans-serif;font-size:10px;">
值
</text>
<rect x="409.9375" y="0.0" width="24.0" height="16.0" style="fill:orange; stroke:rgb(0,0,0);" rx="1"/>
<text x="411" y="9" style="font-family:sans-serif;font-size:10px;">
json
</text>
<rect x="380.6875" y="99.0" width="36.0" height="16.0" style="fill:orange; stroke:rgb(0,0,0);" rx="1"/>
<text x="382" y="108" style="font-family:sans-serif;font-size:10px;">
"太阳"
</text>
<rect x="43.0" y="198.0" width="7.0" height="16.0" style="fill:orange; stroke:rgb(0,0,0);" rx="1"/>
<text x="45" y="207" style="font-family:sans-serif;font-size:10px;">
:
</text>
<rect x="164.5" y="165.0" width="7.0" height="16.0" style="fill:orange; stroke:rgb(0,0,0);" rx="1"/>
<text x="166" y="174" style="font-family:sans-serif;font-size:10px;">
,
</text>
<rect x="302.0" y="198.0" width="7.0" height="16.0" style="fill:orange; stroke:rgb(0,0,0);" rx="1"/>
<text x="304" y="207" style="font-family:sans-serif;font-size:10px;">
:
</text>
<rect x="450.75" y="297.0" width="36.0" height="16.0" style="fill:orange; stroke:rgb(0,0,0);" rx="1"/>
<text x="452" y="306" style="font-family:sans-serif;font-size:10px;">
"火星"
</text>
<rect x="742.75" y="198.0" width="15.0" height="16.0" style="fill:orange; stroke:rgb(0,0,0);" rx="1"/>
<text x="744" y="207" style="font-family:sans-serif;font-size:10px;">
值
</text>
<rect x="742.75" y="231.0" width="15.0" height="16.0" style="fill:orange; stroke:rgb(0,0,0);" rx="1"/>
<text x="744" y="240" style="font-family:sans-serif;font-size:10px;">
队
</text>
<rect x="112.75" y="165.0" width="15.0" height="16.0" style="fill:orange; stroke:rgb(0,0,0);" rx="1"/>
<text x="114" y="174" style="font-family:sans-serif;font-size:10px;">
双
</text>
<rect x="120.0" y="231.0" width="47.0" height="16.0" style="fill:orange; stroke:rgb(0,0,0);" rx="1"/>
<text x="122" y="240" style="font-family:sans-serif;font-size:10px;">
"太阳系"
</text>
<rect x="739.75" y="264.0" width="7.0" height="16.0" style="fill:orange; stroke:rgb(0,0,0);" rx="1"/>
<text x="741" y="273" style="font-family:sans-serif;font-size:10px;">
[
</text>
<rect x="748.0" y="297.0" width="36.0" height="16.0" style="fill:orange; stroke:rgb(0,0,0);" rx="1"/>
<text x="750" y="306" style="font-family:sans-serif;font-size:10px;">
"轨号"
</text>
<rect x="436.4375" y="66.0" width="7.0" height="16.0" style="fill:orange; stroke:rgb(0,0,0);" rx="1"/>
<text x="438" y="75" style="font-family:sans-serif;font-size:10px;">
}
</text>
<rect x="504.25" y="264.0" width="15.0" height="16.0" style="fill:orange; stroke:rgb(0,0,0);" rx="1"/>
<text x="506" y="273" style="font-family:sans-serif;font-size:10px;">
值
</text>
<rect x="375.25" y="264.0" width="15.0" height="16.0" style="fill:orange; stroke:rgb(0,0,0);" rx="1"/>
<text x="377" y="273" style="font-family:sans-serif;font-size:10px;">
值
</text>
<rect x="33.75" y="165.0" width="15.0" height="16.0" style="fill:orange; stroke:rgb(0,0,0);" rx="1"/>
<text x="35" y="174" style="font-family:sans-serif;font-size:10px;">
双
</text>
<rect x="680.75" y="264.0" width="7.0" height="16.0" style="fill:orange; stroke:rgb(0,0,0);" rx="1"/>
<text x="682" y="273" style="font-family:sans-serif;font-size:10px;">
,
</text>
<rect x="338.0" y="198.0" width="58.0" height="16.0" style="fill:orange; stroke:rgb(0,0,0);" rx="1"/>
<text x="340" y="207" style="font-family:sans-serif;font-size:10px;">
"自转周期"
</text>
<rect x="976.0" y="330.0" width="11.0" height="16.0" style="fill:orange; stroke:rgb(0,0,0);" rx="1"/>
<text x="978" y="339" style="font-family:sans-serif;font-size:10px;">
0
</text>
<rect x="607.0" y="165.0" width="7.0" height="16.0" style="fill:orange; stroke:rgb(0,0,0);" rx="1"/>
<text x="609" y="174" style="font-family:sans-serif;font-size:10px;">
,
</text>
<rect x="259.0" y="198.0" width="36.0" height="16.0" style="fill:orange; stroke:rgb(0,0,0);" rx="1"/>
<text x="261" y="207" style="font-family:sans-serif;font-size:10px;">
"质量"
</text>
<rect x="79.0" y="198.0" width="36.0" height="16.0" style="fill:orange; stroke:rgb(0,0,0);" rx="1"/>
<text x="81" y="207" style="font-family:sans-serif;font-size:10px;">
"星系"
</text>
<rect x="423.6875" y="99.0" width="7.0" height="16.0" style="fill:orange; stroke:rgb(0,0,0);" rx="1"/>
<text x="425" y="108" style="font-family:sans-serif;font-size:10px;">
:
</text>
<rect x="407.0" y="231.0" width="35.0" height="16.0" style="fill:orange; stroke:rgb(0,0,0);" rx="1"/>
<text x="409" y="240" style="font-family:sans-serif;font-size:10px;">
25.05
</text>
<rect x="443.75" y="264.0" width="7.0" height="16.0" style="fill:orange; stroke:rgb(0,0,0);" rx="1"/>
<text x="445" y="273" style="font-family:sans-serif;font-size:10px;">
,
</text>
<rect x="649.75" y="264.0" width="15.0" height="16.0" style="fill:orange; stroke:rgb(0,0,0);" rx="1"/>
<text x="651" y="273" style="font-family:sans-serif;font-size:10px;">
值
</text>
<rect x="19.75" y="165.0" width="7.0" height="16.0" style="fill:orange; stroke:rgb(0,0,0);" rx="1"/>
<text x="21" y="174" style="font-family:sans-serif;font-size:10px;">
{
</text>
<rect x="321.75" y="297.0" width="36.0" height="16.0" style="fill:orange; stroke:rgb(0,0,0);" rx="1"/>
<text x="323" y="306" style="font-family:sans-serif;font-size:10px;">
"水星"
</text>
<rect x="626.75" y="264.0" width="7.0" height="16.0" style="fill:orange; stroke:rgb(0,0,0);" rx="1"/>
<text x="628" y="273" style="font-family:sans-serif;font-size:10px;">
,
</text>
<rect x="805.0" y="297.0" width="15.0" height="16.0" style="fill:orange; stroke:rgb(0,0,0);" rx="1"/>
<text x="807" y="306" style="font-family:sans-serif;font-size:10px;">
值
</text>
<rect x="388.25" y="165.0" width="15.0" height="16.0" style="fill:orange; stroke:rgb(0,0,0);" rx="1"/>
<text x="390" y="174" style="font-family:sans-serif;font-size:10px;">
双
</text>
<rect x="767.75" y="264.0" width="7.0" height="16.0" style="fill:orange; stroke:rgb(0,0,0);" rx="1"/>
<text x="769" y="273" style="font-family:sans-serif;font-size:10px;">
{
</text>
<rect x="575.5" y="264.0" width="7.0" height="16.0" style="fill:orange; stroke:rgb(0,0,0);" rx="1"/>
<text x="577" y="273" style="font-family:sans-serif;font-size:10px;">
,
</text>
<rect x="783.1875" y="165.0" width="7.0" height="16.0" style="fill:orange; stroke:rgb(0,0,0);" rx="1"/>
<text x="785" y="174" style="font-family:sans-serif;font-size:10px;">
,
</text>
<rect x="970.0" y="264.0" width="7.0" height="16.0" style="fill:orange; stroke:rgb(0,0,0);" rx="1"/>
<text x="972" y="273" style="font-family:sans-serif;font-size:10px;">
}
</text>
<rect x="906.0" y="297.0" width="47.0" height="16.0" style="fill:orange; stroke:rgb(0,0,0);" rx="1"/>
<text x="908" y="306" style="font-family:sans-serif;font-size:10px;">
"卫星数"
</text>
<rect x="414.4375" y="66.0" width="15.0" height="16.0" style="fill:orange; stroke:rgb(0,0,0);" rx="1"/>
<text x="416" y="75" style="font-family:sans-serif;font-size:10px;">
双
</text>
</svg>