<svg width="757.9000000000001" height="501.6" xmlns="http://www.w3.org/2000/svg" xmlns:xlink="http://www.w3.org/1999/xlink"><line x1="186.0" y1="7.0" x2="34.0" y2="31.0" style="stroke:black; stroke-width:1px;" />
<line x1="34.0" y1="38.0" x2="23.0" y2="62.0" style="stroke:black; stroke-width:1px;" />
<line x1="23.0" y1="69.0" x2="23.0" y2="93.0" style="stroke:black; stroke-width:1px;" />
<line x1="34.0" y1="38.0" x2="45.0" y2="62.0" style="stroke:black; stroke-width:1px;" />
<line x1="186.0" y1="7.0" x2="99.0" y2="31.0" style="stroke:black; stroke-width:1px;" />
<line x1="99.0" y1="38.0" x2="67.0" y2="62.0" style="stroke:black; stroke-width:1px;" />
<line x1="99.0" y1="38.0" x2="88.0" y2="62.0" style="stroke:black; stroke-width:1px;" />
<line x1="99.0" y1="38.0" x2="109.0" y2="62.0" style="stroke:black; stroke-width:1px;" />
<line x1="109.0" y1="69.0" x2="109.0" y2="93.0" style="stroke:black; stroke-width:1px;" />
<line x1="99.0" y1="38.0" x2="131.0" y2="62.0" style="stroke:black; stroke-width:1px;" />
<line x1="186.0" y1="7.0" x2="185.0" y2="31.0" style="stroke:black; stroke-width:1px;" />
<line x1="185.0" y1="38.0" x2="153.0" y2="62.0" style="stroke:black; stroke-width:1px;" />
<line x1="185.0" y1="38.0" x2="174.0" y2="62.0" style="stroke:black; stroke-width:1px;" />
<line x1="185.0" y1="38.0" x2="195.0" y2="62.0" style="stroke:black; stroke-width:1px;" />
<line x1="195.0" y1="69.0" x2="195.0" y2="93.0" style="stroke:black; stroke-width:1px;" />
<line x1="185.0" y1="38.0" x2="217.0" y2="62.0" style="stroke:black; stroke-width:1px;" />
<line x1="186.0" y1="7.0" x2="254.5" y2="31.0" style="stroke:black; stroke-width:1px;" />
<line x1="254.5" y1="38.0" x2="243.5" y2="62.0" style="stroke:black; stroke-width:1px;" />
<line x1="243.5" y1="69.0" x2="222.0" y2="93.0" style="stroke:black; stroke-width:1px;" />
<line x1="222.0" y1="100.0" x2="222.0" y2="124.0" style="stroke:black; stroke-width:1px;" />
<line x1="243.5" y1="69.0" x2="243.5" y2="93.0" style="stroke:black; stroke-width:1px;" />
<line x1="243.5" y1="69.0" x2="265.0" y2="93.0" style="stroke:black; stroke-width:1px;" />
<line x1="265.0" y1="100.0" x2="244.0" y2="124.0" style="stroke:black; stroke-width:1px;" />
<line x1="244.0" y1="131.0" x2="223.0" y2="155.0" style="stroke:black; stroke-width:1px;" />
<line x1="223.0" y1="162.0" x2="223.0" y2="186.0" style="stroke:black; stroke-width:1px;" />
<line x1="244.0" y1="131.0" x2="244.0" y2="155.0" style="stroke:black; stroke-width:1px;" />
<line x1="244.0" y1="131.0" x2="265.0" y2="155.0" style="stroke:black; stroke-width:1px;" />
<line x1="265.0" y1="162.0" x2="265.0" y2="186.0" style="stroke:black; stroke-width:1px;" />
<line x1="265.0" y1="100.0" x2="265.0" y2="124.0" style="stroke:black; stroke-width:1px;" />
<line x1="265.0" y1="100.0" x2="286.0" y2="124.0" style="stroke:black; stroke-width:1px;" />
<line x1="286.0" y1="131.0" x2="286.0" y2="155.0" style="stroke:black; stroke-width:1px;" />
<line x1="254.5" y1="38.0" x2="265.5" y2="62.0" style="stroke:black; stroke-width:1px;" />
<line x1="186.0" y1="7.0" x2="338.0" y2="31.0" style="stroke:black; stroke-width:1px;" />
<line x1="338.0" y1="38.0" x2="327.0" y2="62.0" style="stroke:black; stroke-width:1px;" />
<line x1="327.0" y1="69.0" x2="306.0" y2="93.0" style="stroke:black; stroke-width:1px;" />
<line x1="306.0" y1="100.0" x2="306.0" y2="124.0" style="stroke:black; stroke-width:1px;" />
<line x1="327.0" y1="69.0" x2="327.0" y2="93.0" style="stroke:black; stroke-width:1px;" />
<line x1="327.0" y1="69.0" x2="348.0" y2="93.0" style="stroke:black; stroke-width:1px;" />
<line x1="348.0" y1="100.0" x2="329.5" y2="124.0" style="stroke:black; stroke-width:1px;" />
<line x1="348.0" y1="100.0" x2="348.0" y2="124.0" style="stroke:black; stroke-width:1px;" />
<line x1="348.0" y1="131.0" x2="329.5" y2="155.0" style="stroke:black; stroke-width:1px;" />
<line x1="329.5" y1="162.0" x2="329.5" y2="186.0" style="stroke:black; stroke-width:1px;" />
<line x1="348.0" y1="131.0" x2="348.0" y2="155.0" style="stroke:black; stroke-width:1px;" />
<line x1="348.0" y1="131.0" x2="366.5" y2="155.0" style="stroke:black; stroke-width:1px;" />
<line x1="366.5" y1="162.0" x2="366.5" y2="186.0" style="stroke:black; stroke-width:1px;" />
<line x1="348.0" y1="100.0" x2="366.5" y2="124.0" style="stroke:black; stroke-width:1px;" />
<line x1="338.0" y1="38.0" x2="349.0" y2="62.0" style="stroke:black; stroke-width:1px;" />
<rect x="209.5" y="62.0" width="15.0" height="14.0" style="fill:orange; stroke:rgb(0,0,0);" rx="1"/>
<text x="211" y="71" style="font-family:sans-serif;font-size:10px;">
\n
</text>
<rect x="237.5" y="155.0" width="13.0" height="14.0" style="fill:orange; stroke:rgb(0,0,0);" rx="1"/>
<text x="239" y="164" style="font-family:sans-serif;font-size:10px;">
×
</text>
<rect x="177.5" y="31.0" width="15.0" height="14.0" style="fill:orange; stroke:rgb(0,0,0);" rx="1"/>
<text x="179" y="40" style="font-family:sans-serif;font-size:10px;">
句
</text>
<rect x="300.5" y="124.0" width="11.0" height="14.0" style="fill:orange; stroke:rgb(0,0,0);" rx="1"/>
<text x="302" y="133" style="font-family:sans-serif;font-size:10px;">
5
</text>
<rect x="298.5" y="93.0" width="15.0" height="14.0" style="fill:orange; stroke:rgb(0,0,0);" rx="1"/>
<text x="300" y="102" style="font-family:sans-serif;font-size:10px;">
式
</text>
<rect x="182.5" y="93.0" width="25.0" height="14.0" style="fill:orange; stroke:rgb(0,0,0);" rx="1"/>
<text x="184" y="102" style="font-family:sans-serif;font-size:10px;">
321
</text>
<rect x="258.5" y="124.0" width="13.0" height="14.0" style="fill:orange; stroke:rgb(0,0,0);" rx="1"/>
<text x="260" y="133" style="font-family:sans-serif;font-size:10px;">
÷
</text>
<rect x="214.5" y="93.0" width="15.0" height="14.0" style="fill:orange; stroke:rgb(0,0,0);" rx="1"/>
<text x="216" y="102" style="font-family:sans-serif;font-size:10px;">
式
</text>
<rect x="236.5" y="124.0" width="15.0" height="14.0" style="fill:orange; stroke:rgb(0,0,0);" rx="1"/>
<text x="238" y="133" style="font-family:sans-serif;font-size:10px;">
式
</text>
<rect x="325.5" y="124.0" width="8.0" height="14.0" style="fill:orange; stroke:rgb(0,0,0);" rx="1"/>
<text x="327" y="133" style="font-family:sans-serif;font-size:10px;">
(
</text>
<rect x="344.0" y="155.0" width="8.0" height="14.0" style="fill:orange; stroke:rgb(0,0,0);" rx="1"/>
<text x="346" y="164" style="font-family:sans-serif;font-size:10px;">
-
</text>
<rect x="280.5" y="155.0" width="11.0" height="14.0" style="fill:orange; stroke:rgb(0,0,0);" rx="1"/>
<text x="282" y="164" style="font-family:sans-serif;font-size:10px;">
4
</text>
<rect x="0.0" y="93.0" width="46.0" height="14.0" style="fill:orange; stroke:rgb(0,0,0);" rx="1"/>
<text x="2" y="102" style="font-family:sans-serif;font-size:10px;">
314159
</text>
<rect x="81.5" y="62.0" width="13.0" height="14.0" style="fill:orange; stroke:rgb(0,0,0);" rx="1"/>
<text x="83" y="71" style="font-family:sans-serif;font-size:10px;">
=
</text>
<rect x="96.5" y="93.0" width="25.0" height="14.0" style="fill:orange; stroke:rgb(0,0,0);" rx="1"/>
<text x="98" y="102" style="font-family:sans-serif;font-size:10px;">
123
</text>
<rect x="257.5" y="93.0" width="15.0" height="14.0" style="fill:orange; stroke:rgb(0,0,0);" rx="1"/>
<text x="259" y="102" style="font-family:sans-serif;font-size:10px;">
式
</text>
<rect x="101.5" y="62.0" width="15.0" height="14.0" style="fill:orange; stroke:rgb(0,0,0);" rx="1"/>
<text x="103" y="71" style="font-family:sans-serif;font-size:10px;">
式
</text>
<rect x="214.5" y="124.0" width="15.0" height="14.0" style="fill:orange; stroke:rgb(0,0,0);" rx="1"/>
<text x="216" y="133" style="font-family:sans-serif;font-size:10px;">
甲
</text>
<rect x="322.0" y="186.0" width="15.0" height="14.0" style="fill:orange; stroke:rgb(0,0,0);" rx="1"/>
<text x="324" y="195" style="font-family:sans-serif;font-size:10px;">
甲
</text>
<rect x="362.5" y="124.0" width="8.0" height="14.0" style="fill:orange; stroke:rgb(0,0,0);" rx="1"/>
<text x="364" y="133" style="font-family:sans-serif;font-size:10px;">
)
</text>
<rect x="236.0" y="62.0" width="15.0" height="14.0" style="fill:orange; stroke:rgb(0,0,0);" rx="1"/>
<text x="238" y="71" style="font-family:sans-serif;font-size:10px;">
式
</text>
<rect x="341.5" y="62.0" width="15.0" height="14.0" style="fill:orange; stroke:rgb(0,0,0);" rx="1"/>
<text x="343" y="71" style="font-family:sans-serif;font-size:10px;">
\n
</text>
<rect x="215.5" y="155.0" width="15.0" height="14.0" style="fill:orange; stroke:rgb(0,0,0);" rx="1"/>
<text x="217" y="164" style="font-family:sans-serif;font-size:10px;">
式
</text>
<rect x="257.5" y="155.0" width="15.0" height="14.0" style="fill:orange; stroke:rgb(0,0,0);" rx="1"/>
<text x="259" y="164" style="font-family:sans-serif;font-size:10px;">
式
</text>
<rect x="359.0" y="186.0" width="15.0" height="14.0" style="fill:orange; stroke:rgb(0,0,0);" rx="1"/>
<text x="361" y="195" style="font-family:sans-serif;font-size:10px;">
乙
</text>
<rect x="215.5" y="186.0" width="15.0" height="14.0" style="fill:orange; stroke:rgb(0,0,0);" rx="1"/>
<text x="217" y="195" style="font-family:sans-serif;font-size:10px;">
乙
</text>
<rect x="59.5" y="62.0" width="15.0" height="14.0" style="fill:orange; stroke:rgb(0,0,0);" rx="1"/>
<text x="61" y="71" style="font-family:sans-serif;font-size:10px;">
甲
</text>
<rect x="247.0" y="31.0" width="15.0" height="14.0" style="fill:orange; stroke:rgb(0,0,0);" rx="1"/>
<text x="249" y="40" style="font-family:sans-serif;font-size:10px;">
句
</text>
<rect x="359.0" y="155.0" width="15.0" height="14.0" style="fill:orange; stroke:rgb(0,0,0);" rx="1"/>
<text x="361" y="164" style="font-family:sans-serif;font-size:10px;">
式
</text>
<rect x="167.5" y="62.0" width="13.0" height="14.0" style="fill:orange; stroke:rgb(0,0,0);" rx="1"/>
<text x="169" y="71" style="font-family:sans-serif;font-size:10px;">
=
</text>
<rect x="340.5" y="124.0" width="15.0" height="14.0" style="fill:orange; stroke:rgb(0,0,0);" rx="1"/>
<text x="342" y="133" style="font-family:sans-serif;font-size:10px;">
式
</text>
<rect x="37.5" y="62.0" width="15.0" height="14.0" style="fill:orange; stroke:rgb(0,0,0);" rx="1"/>
<text x="39" y="71" style="font-family:sans-serif;font-size:10px;">
\n
</text>
<rect x="319.5" y="62.0" width="15.0" height="14.0" style="fill:orange; stroke:rgb(0,0,0);" rx="1"/>
<text x="321" y="71" style="font-family:sans-serif;font-size:10px;">
式
</text>
<rect x="91.5" y="31.0" width="15.0" height="14.0" style="fill:orange; stroke:rgb(0,0,0);" rx="1"/>
<text x="93" y="40" style="font-family:sans-serif;font-size:10px;">
句
</text>
<rect x="278.5" y="124.0" width="15.0" height="14.0" style="fill:orange; stroke:rgb(0,0,0);" rx="1"/>
<text x="280" y="133" style="font-family:sans-serif;font-size:10px;">
式
</text>
<rect x="145.5" y="62.0" width="15.0" height="14.0" style="fill:orange; stroke:rgb(0,0,0);" rx="1"/>
<text x="147" y="71" style="font-family:sans-serif;font-size:10px;">
乙
</text>
<rect x="340.5" y="93.0" width="15.0" height="14.0" style="fill:orange; stroke:rgb(0,0,0);" rx="1"/>
<text x="342" y="102" style="font-family:sans-serif;font-size:10px;">
式
</text>
<rect x="123.5" y="62.0" width="15.0" height="14.0" style="fill:orange; stroke:rgb(0,0,0);" rx="1"/>
<text x="125" y="71" style="font-family:sans-serif;font-size:10px;">
\n
</text>
<rect x="15.5" y="62.0" width="15.0" height="14.0" style="fill:orange; stroke:rgb(0,0,0);" rx="1"/>
<text x="17" y="71" style="font-family:sans-serif;font-size:10px;">
式
</text>
<rect x="330.5" y="31.0" width="15.0" height="14.0" style="fill:orange; stroke:rgb(0,0,0);" rx="1"/>
<text x="332" y="40" style="font-family:sans-serif;font-size:10px;">
句
</text>
<rect x="237.0" y="93.0" width="13.0" height="14.0" style="fill:orange; stroke:rgb(0,0,0);" rx="1"/>
<text x="239" y="102" style="font-family:sans-serif;font-size:10px;">
+
</text>
<rect x="173.0" y="0.0" width="26.0" height="14.0" style="fill:orange; stroke:rgb(0,0,0);" rx="1"/>
<text x="175" y="9" style="font-family:sans-serif;font-size:10px;">
程式
</text>
<rect x="187.5" y="62.0" width="15.0" height="14.0" style="fill:orange; stroke:rgb(0,0,0);" rx="1"/>
<text x="189" y="71" style="font-family:sans-serif;font-size:10px;">
式
</text>
<rect x="320.5" y="93.0" width="13.0" height="14.0" style="fill:orange; stroke:rgb(0,0,0);" rx="1"/>
<text x="322" y="102" style="font-family:sans-serif;font-size:10px;">
÷
</text>
<rect x="322.0" y="155.0" width="15.0" height="14.0" style="fill:orange; stroke:rgb(0,0,0);" rx="1"/>
<text x="324" y="164" style="font-family:sans-serif;font-size:10px;">
式
</text>
<rect x="259.5" y="186.0" width="11.0" height="14.0" style="fill:orange; stroke:rgb(0,0,0);" rx="1"/>
<text x="261" y="195" style="font-family:sans-serif;font-size:10px;">
3
</text>
<rect x="26.5" y="31.0" width="15.0" height="14.0" style="fill:orange; stroke:rgb(0,0,0);" rx="1"/>
<text x="28" y="40" style="font-family:sans-serif;font-size:10px;">
句
</text>
<rect x="258.0" y="62.0" width="15.0" height="14.0" style="fill:orange; stroke:rgb(0,0,0);" rx="1"/>
<text x="260" y="71" style="font-family:sans-serif;font-size:10px;">
\n
</text>
</svg>