<svg width="1053.8000000000002" height="634.7" xmlns="http://www.w3.org/2000/svg" xmlns:xlink="http://www.w3.org/1999/xlink"><line x1="220.203125" y1="8.0" x2="58.5" y2="33.0" style="stroke:black; stroke-width:1px;" />
<line x1="58.5" y1="41.0" x2="13.0" y2="66.0" style="stroke:black; stroke-width:1px;" />
<line x1="13.0" y1="74.0" x2="13.0" y2="99.0" style="stroke:black; stroke-width:1px;" />
<line x1="58.5" y1="41.0" x2="40.5" y2="66.0" style="stroke:black; stroke-width:1px;" />
<line x1="58.5" y1="41.0" x2="66.0" y2="66.0" style="stroke:black; stroke-width:1px;" />
<line x1="58.5" y1="41.0" x2="86.0" y2="66.0" style="stroke:black; stroke-width:1px;" />
<line x1="86.0" y1="74.0" x2="86.0" y2="99.0" style="stroke:black; stroke-width:1px;" />
<line x1="58.5" y1="41.0" x2="104.0" y2="66.0" style="stroke:black; stroke-width:1px;" />
<line x1="220.203125" y1="8.0" x2="178.5" y2="33.0" style="stroke:black; stroke-width:1px;" />
<line x1="178.5" y1="41.0" x2="122.0" y2="66.0" style="stroke:black; stroke-width:1px;" />
<line x1="122.0" y1="74.0" x2="122.0" y2="99.0" style="stroke:black; stroke-width:1px;" />
<line x1="178.5" y1="41.0" x2="160.5" y2="66.0" style="stroke:black; stroke-width:1px;" />
<line x1="178.5" y1="41.0" x2="197.0" y2="66.0" style="stroke:black; stroke-width:1px;" />
<line x1="178.5" y1="41.0" x2="217.0" y2="66.0" style="stroke:black; stroke-width:1px;" />
<line x1="217.0" y1="74.0" x2="181.75" y2="99.0" style="stroke:black; stroke-width:1px;" />
<line x1="217.0" y1="74.0" x2="216.25" y2="99.0" style="stroke:black; stroke-width:1px;" />
<line x1="217.0" y1="74.0" x2="234.25" y2="99.0" style="stroke:black; stroke-width:1px;" />
<line x1="234.25" y1="107.0" x2="234.25" y2="132.0" style="stroke:black; stroke-width:1px;" />
<line x1="217.0" y1="74.0" x2="252.25" y2="99.0" style="stroke:black; stroke-width:1px;" />
<line x1="178.5" y1="41.0" x2="235.0" y2="66.0" style="stroke:black; stroke-width:1px;" />
<line x1="220.203125" y1="8.0" x2="381.90625" y2="33.0" style="stroke:black; stroke-width:1px;" />
<line x1="381.90625" y1="41.0" x2="275.75" y2="66.0" style="stroke:black; stroke-width:1px;" />
<line x1="275.75" y1="74.0" x2="275.75" y2="99.0" style="stroke:black; stroke-width:1px;" />
<line x1="381.90625" y1="41.0" x2="303.25" y2="66.0" style="stroke:black; stroke-width:1px;" />
<line x1="381.90625" y1="41.0" x2="326.75" y2="66.0" style="stroke:black; stroke-width:1px;" />
<line x1="381.90625" y1="41.0" x2="355.75" y2="66.0" style="stroke:black; stroke-width:1px;" />
<line x1="355.75" y1="74.0" x2="355.75" y2="99.0" style="stroke:black; stroke-width:1px;" />
<line x1="355.75" y1="107.0" x2="344.75" y2="132.0" style="stroke:black; stroke-width:1px;" />
<line x1="344.75" y1="140.0" x2="344.75" y2="165.0" style="stroke:black; stroke-width:1px;" />
<line x1="355.75" y1="107.0" x2="366.75" y2="132.0" style="stroke:black; stroke-width:1px;" />
<line x1="381.90625" y1="41.0" x2="427.40625" y2="66.0" style="stroke:black; stroke-width:1px;" />
<line x1="381.90625" y1="41.0" x2="488.0625" y2="66.0" style="stroke:black; stroke-width:1px;" />
<line x1="488.0625" y1="74.0" x2="414.5" y2="99.0" style="stroke:black; stroke-width:1px;" />
<line x1="488.0625" y1="74.0" x2="432.5" y2="99.0" style="stroke:black; stroke-width:1px;" />
<line x1="432.5" y1="107.0" x2="388.75" y2="132.0" style="stroke:black; stroke-width:1px;" />
<line x1="432.5" y1="107.0" x2="410.75" y2="132.0" style="stroke:black; stroke-width:1px;" />
<line x1="410.75" y1="140.0" x2="387.25" y2="165.0" style="stroke:black; stroke-width:1px;" />
<line x1="387.25" y1="173.0" x2="387.25" y2="198.0" style="stroke:black; stroke-width:1px;" />
<line x1="410.75" y1="140.0" x2="410.75" y2="165.0" style="stroke:black; stroke-width:1px;" />
<line x1="410.75" y1="140.0" x2="434.25" y2="165.0" style="stroke:black; stroke-width:1px;" />
<line x1="434.25" y1="173.0" x2="434.25" y2="198.0" style="stroke:black; stroke-width:1px;" />
<line x1="432.5" y1="107.0" x2="443.5" y2="132.0" style="stroke:black; stroke-width:1px;" />
<line x1="432.5" y1="107.0" x2="476.25" y2="132.0" style="stroke:black; stroke-width:1px;" />
<line x1="476.25" y1="140.0" x2="456.25" y2="165.0" style="stroke:black; stroke-width:1px;" />
<line x1="476.25" y1="140.0" x2="478.25" y2="165.0" style="stroke:black; stroke-width:1px;" />
<line x1="478.25" y1="173.0" x2="478.25" y2="198.0" style="stroke:black; stroke-width:1px;" />
<line x1="476.25" y1="140.0" x2="496.25" y2="165.0" style="stroke:black; stroke-width:1px;" />
<line x1="488.0625" y1="74.0" x2="543.625" y2="99.0" style="stroke:black; stroke-width:1px;" />
<line x1="543.625" y1="107.0" x2="523.625" y2="132.0" style="stroke:black; stroke-width:1px;" />
<line x1="543.625" y1="107.0" x2="545.625" y2="132.0" style="stroke:black; stroke-width:1px;" />
<line x1="545.625" y1="140.0" x2="514.25" y2="165.0" style="stroke:black; stroke-width:1px;" />
<line x1="514.25" y1="173.0" x2="514.25" y2="198.0" style="stroke:black; stroke-width:1px;" />
<line x1="545.625" y1="140.0" x2="545.625" y2="165.0" style="stroke:black; stroke-width:1px;" />
<line x1="545.625" y1="140.0" x2="577.0" y2="165.0" style="stroke:black; stroke-width:1px;" />
<line x1="577.0" y1="173.0" x2="541.75" y2="198.0" style="stroke:black; stroke-width:1px;" />
<line x1="577.0" y1="173.0" x2="565.25" y2="198.0" style="stroke:black; stroke-width:1px;" />
<line x1="577.0" y1="173.0" x2="588.75" y2="198.0" style="stroke:black; stroke-width:1px;" />
<line x1="588.75" y1="206.0" x2="588.75" y2="231.0" style="stroke:black; stroke-width:1px;" />
<line x1="588.75" y1="239.0" x2="570.75" y2="264.0" style="stroke:black; stroke-width:1px;" />
<line x1="570.75" y1="272.0" x2="570.75" y2="297.0" style="stroke:black; stroke-width:1px;" />
<line x1="588.75" y1="239.0" x2="588.75" y2="264.0" style="stroke:black; stroke-width:1px;" />
<line x1="588.75" y1="239.0" x2="606.75" y2="264.0" style="stroke:black; stroke-width:1px;" />
<line x1="606.75" y1="272.0" x2="606.75" y2="297.0" style="stroke:black; stroke-width:1px;" />
<line x1="577.0" y1="173.0" x2="612.25" y2="198.0" style="stroke:black; stroke-width:1px;" />
<line x1="543.625" y1="107.0" x2="563.625" y2="132.0" style="stroke:black; stroke-width:1px;" />
<line x1="488.0625" y1="74.0" x2="561.625" y2="99.0" style="stroke:black; stroke-width:1px;" />
<rect x="563.25" y="264.0" width="15.0" height="16.0" style="fill:orange; stroke:rgb(0,0,0);" rx="1"/>
<text x="565" y="273" style="font-family:sans-serif;font-size:10px;">
式
</text>
<rect x="109.0" y="99.0" width="26.0" height="16.0" style="fill:orange; stroke:rgb(0,0,0);" rx="1"/>
<text x="111" y="108" style="font-family:sans-serif;font-size:10px;">
浮型
</text>
<rect x="423.90625" y="66.0" width="7.0" height="16.0" style="fill:orange; stroke:rgb(0,0,0);" rx="1"/>
<text x="425" y="75" style="font-family:sans-serif;font-size:10px;">
)
</text>
<rect x="425.0" y="99.0" width="15.0" height="16.0" style="fill:orange; stroke:rgb(0,0,0);" rx="1"/>
<text x="427" y="108" style="font-family:sans-serif;font-size:10px;">
句
</text>
<rect x="575.75" y="198.0" width="26.0" height="16.0" style="fill:orange; stroke:rgb(0,0,0);" rx="1"/>
<text x="577" y="207" style="font-family:sans-serif;font-size:10px;">
式列
</text>
<rect x="60.5" y="66.0" width="11.0" height="16.0" style="fill:orange; stroke:rgb(0,0,0);" rx="1"/>
<text x="62" y="75" style="font-family:sans-serif;font-size:10px;">
=
</text>
<rect x="226.75" y="99.0" width="15.0" height="16.0" style="fill:orange; stroke:rgb(0,0,0);" rx="1"/>
<text x="228" y="108" style="font-family:sans-serif;font-size:10px;">
式
</text>
<rect x="231.5" y="66.0" width="7.0" height="16.0" style="fill:orange; stroke:rgb(0,0,0);" rx="1"/>
<text x="233" y="75" style="font-family:sans-serif;font-size:10px;">
;
</text>
<rect x="331.75" y="165.0" width="26.0" height="16.0" style="fill:orange; stroke:rgb(0,0,0);" rx="1"/>
<text x="333" y="174" style="font-family:sans-serif;font-size:10px;">
整型
</text>
<rect x="78.5" y="66.0" width="15.0" height="16.0" style="fill:orange; stroke:rgb(0,0,0);" rx="1"/>
<text x="80" y="75" style="font-family:sans-serif;font-size:10px;">
式
</text>
<rect x="581.25" y="231.0" width="15.0" height="16.0" style="fill:orange; stroke:rgb(0,0,0);" rx="1"/>
<text x="583" y="240" style="font-family:sans-serif;font-size:10px;">
式
</text>
<rect x="585.25" y="264.0" width="7.0" height="16.0" style="fill:orange; stroke:rgb(0,0,0);" rx="1"/>
<text x="587" y="273" style="font-family:sans-serif;font-size:10px;">
-
</text>
<rect x="290.25" y="66.0" width="26.0" height="16.0" style="fill:orange; stroke:rgb(0,0,0);" rx="1"/>
<text x="292" y="75" style="font-family:sans-serif;font-size:10px;">
阶乘
</text>
<rect x="560.125" y="132.0" width="7.0" height="16.0" style="fill:orange; stroke:rgb(0,0,0);" rx="1"/>
<text x="562" y="141" style="font-family:sans-serif;font-size:10px;">
;
</text>
<rect x="323.25" y="66.0" width="7.0" height="16.0" style="fill:orange; stroke:rgb(0,0,0);" rx="1"/>
<text x="325" y="75" style="font-family:sans-serif;font-size:10px;">
(
</text>
<rect x="342.75" y="99.0" width="26.0" height="16.0" style="fill:orange; stroke:rgb(0,0,0);" rx="1"/>
<text x="344" y="108" style="font-family:sans-serif;font-size:10px;">
形参
</text>
<rect x="262.75" y="99.0" width="26.0" height="16.0" style="fill:orange; stroke:rgb(0,0,0);" rx="1"/>
<text x="264" y="108" style="font-family:sans-serif;font-size:10px;">
整型
</text>
<rect x="337.25" y="66.0" width="37.0" height="16.0" style="fill:orange; stroke:rgb(0,0,0);" rx="1"/>
<text x="339" y="75" style="font-family:sans-serif;font-size:10px;">
形参集
</text>
<rect x="191.5" y="66.0" width="11.0" height="16.0" style="fill:orange; stroke:rgb(0,0,0);" rx="1"/>
<text x="193" y="75" style="font-family:sans-serif;font-size:10px;">
=
</text>
<rect x="472.75" y="198.0" width="11.0" height="16.0" style="fill:orange; stroke:rgb(0,0,0);" rx="1"/>
<text x="474" y="207" style="font-family:sans-serif;font-size:10px;">
1
</text>
<rect x="381.25" y="132.0" width="15.0" height="16.0" style="fill:orange; stroke:rgb(0,0,0);" rx="1"/>
<text x="383" y="141" style="font-family:sans-serif;font-size:10px;">
若
</text>
<rect x="379.75" y="165.0" width="15.0" height="16.0" style="fill:orange; stroke:rgb(0,0,0);" rx="1"/>
<text x="381" y="174" style="font-family:sans-serif;font-size:10px;">
式
</text>
<rect x="563.25" y="297.0" width="15.0" height="16.0" style="fill:orange; stroke:rgb(0,0,0);" rx="1"/>
<text x="565" y="306" style="font-family:sans-serif;font-size:10px;">
数
</text>
<rect x="209.5" y="66.0" width="15.0" height="16.0" style="fill:orange; stroke:rgb(0,0,0);" rx="1"/>
<text x="211" y="75" style="font-family:sans-serif;font-size:10px;">
式
</text>
<rect x="359.25" y="132.0" width="15.0" height="16.0" style="fill:orange; stroke:rgb(0,0,0);" rx="1"/>
<text x="361" y="141" style="font-family:sans-serif;font-size:10px;">
数
</text>
<rect x="470.75" y="165.0" width="15.0" height="16.0" style="fill:orange; stroke:rgb(0,0,0);" rx="1"/>
<text x="472" y="174" style="font-family:sans-serif;font-size:10px;">
式
</text>
<rect x="516.125" y="132.0" width="15.0" height="16.0" style="fill:orange; stroke:rgb(0,0,0);" rx="1"/>
<text x="518" y="141" style="font-family:sans-serif;font-size:10px;">
返
</text>
<rect x="538.125" y="132.0" width="15.0" height="16.0" style="fill:orange; stroke:rgb(0,0,0);" rx="1"/>
<text x="540" y="141" style="font-family:sans-serif;font-size:10px;">
式
</text>
<rect x="540.125" y="165.0" width="11.0" height="16.0" style="fill:orange; stroke:rgb(0,0,0);" rx="1"/>
<text x="542" y="174" style="font-family:sans-serif;font-size:10px;">
*
</text>
<rect x="436.0" y="132.0" width="15.0" height="16.0" style="fill:orange; stroke:rgb(0,0,0);" rx="1"/>
<text x="438" y="141" style="font-family:sans-serif;font-size:10px;">
则
</text>
<rect x="608.75" y="198.0" width="7.0" height="16.0" style="fill:orange; stroke:rgb(0,0,0);" rx="1"/>
<text x="610" y="207" style="font-family:sans-serif;font-size:10px;">
)
</text>
<rect x="558.125" y="99.0" width="7.0" height="16.0" style="fill:orange; stroke:rgb(0,0,0);" rx="1"/>
<text x="560" y="108" style="font-family:sans-serif;font-size:10px;">
}
</text>
<rect x="403.25" y="132.0" width="15.0" height="16.0" style="fill:orange; stroke:rgb(0,0,0);" rx="1"/>
<text x="405" y="141" style="font-family:sans-serif;font-size:10px;">
式
</text>
<rect x="379.75" y="198.0" width="15.0" height="16.0" style="fill:orange; stroke:rgb(0,0,0);" rx="1"/>
<text x="381" y="207" style="font-family:sans-serif;font-size:10px;">
数
</text>
<rect x="411.0" y="99.0" width="7.0" height="16.0" style="fill:orange; stroke:rgb(0,0,0);" rx="1"/>
<text x="413" y="108" style="font-family:sans-serif;font-size:10px;">
{
</text>
<rect x="368.90625" y="33.0" width="26.0" height="16.0" style="fill:orange; stroke:rgb(0,0,0);" rx="1"/>
<text x="370" y="42" style="font-family:sans-serif;font-size:10px;">
函宣
</text>
<rect x="536.125" y="99.0" width="15.0" height="16.0" style="fill:orange; stroke:rgb(0,0,0);" rx="1"/>
<text x="538" y="108" style="font-family:sans-serif;font-size:10px;">
句
</text>
<rect x="225.25" y="132.0" width="18.0" height="16.0" style="fill:orange; stroke:rgb(0,0,0);" rx="1"/>
<text x="227" y="141" style="font-family:sans-serif;font-size:10px;">
23
</text>
<rect x="45.5" y="33.0" width="26.0" height="16.0" style="fill:orange; stroke:rgb(0,0,0);" rx="1"/>
<text x="47" y="42" style="font-family:sans-serif;font-size:10px;">
量宣
</text>
<rect x="599.25" y="264.0" width="15.0" height="16.0" style="fill:orange; stroke:rgb(0,0,0);" rx="1"/>
<text x="601" y="273" style="font-family:sans-serif;font-size:10px;">
式
</text>
<rect x="248.75" y="99.0" width="7.0" height="16.0" style="fill:orange; stroke:rgb(0,0,0);" rx="1"/>
<text x="250" y="108" style="font-family:sans-serif;font-size:10px;">
]
</text>
<rect x="480.5625" y="66.0" width="15.0" height="16.0" style="fill:orange; stroke:rgb(0,0,0);" rx="1"/>
<text x="482" y="75" style="font-family:sans-serif;font-size:10px;">
块
</text>
<rect x="212.75" y="99.0" width="7.0" height="16.0" style="fill:orange; stroke:rgb(0,0,0);" rx="1"/>
<text x="214" y="108" style="font-family:sans-serif;font-size:10px;">
[
</text>
<rect x="528.75" y="198.0" width="26.0" height="16.0" style="fill:orange; stroke:rgb(0,0,0);" rx="1"/>
<text x="530" y="207" style="font-family:sans-serif;font-size:10px;">
阶乘
</text>
<rect x="165.5" y="33.0" width="26.0" height="16.0" style="fill:orange; stroke:rgb(0,0,0);" rx="1"/>
<text x="167" y="42" style="font-family:sans-serif;font-size:10px;">
量宣
</text>
<rect x="268.25" y="66.0" width="15.0" height="16.0" style="fill:orange; stroke:rgb(0,0,0);" rx="1"/>
<text x="270" y="75" style="font-family:sans-serif;font-size:10px;">
型
</text>
<rect x="401.75" y="165.0" width="18.0" height="16.0" style="fill:orange; stroke:rgb(0,0,0);" rx="1"/>
<text x="403" y="174" style="font-family:sans-serif;font-size:10px;">
==
</text>
<rect x="428.75" y="198.0" width="11.0" height="16.0" style="fill:orange; stroke:rgb(0,0,0);" rx="1"/>
<text x="430" y="207" style="font-family:sans-serif;font-size:10px;">
0
</text>
<rect x="468.75" y="132.0" width="15.0" height="16.0" style="fill:orange; stroke:rgb(0,0,0);" rx="1"/>
<text x="470" y="141" style="font-family:sans-serif;font-size:10px;">
句
</text>
<rect x="337.25" y="132.0" width="15.0" height="16.0" style="fill:orange; stroke:rgb(0,0,0);" rx="1"/>
<text x="339" y="141" style="font-family:sans-serif;font-size:10px;">
型
</text>
<rect x="492.75" y="165.0" width="7.0" height="16.0" style="fill:orange; stroke:rgb(0,0,0);" rx="1"/>
<text x="494" y="174" style="font-family:sans-serif;font-size:10px;">
;
</text>
<rect x="561.75" y="198.0" width="7.0" height="16.0" style="fill:orange; stroke:rgb(0,0,0);" rx="1"/>
<text x="563" y="207" style="font-family:sans-serif;font-size:10px;">
(
</text>
<rect x="77.0" y="99.0" width="18.0" height="16.0" style="fill:orange; stroke:rgb(0,0,0);" rx="1"/>
<text x="79" y="108" style="font-family:sans-serif;font-size:10px;">
10
</text>
<rect x="157.75" y="99.0" width="48.0" height="16.0" style="fill:orange; stroke:rgb(0,0,0);" rx="1"/>
<text x="159" y="108" style="font-family:sans-serif;font-size:10px;">
全班身高
</text>
<rect x="100.5" y="66.0" width="7.0" height="16.0" style="fill:orange; stroke:rgb(0,0,0);" rx="1"/>
<text x="102" y="75" style="font-family:sans-serif;font-size:10px;">
;
</text>
<rect x="448.75" y="165.0" width="15.0" height="16.0" style="fill:orange; stroke:rgb(0,0,0);" rx="1"/>
<text x="450" y="174" style="font-family:sans-serif;font-size:10px;">
返
</text>
<rect x="569.5" y="165.0" width="15.0" height="16.0" style="fill:orange; stroke:rgb(0,0,0);" rx="1"/>
<text x="571" y="174" style="font-family:sans-serif;font-size:10px;">
式
</text>
<rect x="114.5" y="66.0" width="15.0" height="16.0" style="fill:orange; stroke:rgb(0,0,0);" rx="1"/>
<text x="116" y="75" style="font-family:sans-serif;font-size:10px;">
型
</text>
<rect x="212.703125" y="0.0" width="15.0" height="16.0" style="fill:orange; stroke:rgb(0,0,0);" rx="1"/>
<text x="214" y="9" style="font-family:sans-serif;font-size:10px;">
档
</text>
<rect x="27.5" y="66.0" width="26.0" height="16.0" style="fill:orange; stroke:rgb(0,0,0);" rx="1"/>
<text x="29" y="75" style="font-family:sans-serif;font-size:10px;">
人数
</text>
<rect x="5.5" y="66.0" width="15.0" height="16.0" style="fill:orange; stroke:rgb(0,0,0);" rx="1"/>
<text x="7" y="75" style="font-family:sans-serif;font-size:10px;">
型
</text>
<rect x="506.75" y="198.0" width="15.0" height="16.0" style="fill:orange; stroke:rgb(0,0,0);" rx="1"/>
<text x="508" y="207" style="font-family:sans-serif;font-size:10px;">
数
</text>
<rect x="0.0" y="99.0" width="26.0" height="16.0" style="fill:orange; stroke:rgb(0,0,0);" rx="1"/>
<text x="2" y="108" style="font-family:sans-serif;font-size:10px;">
整型
</text>
<rect x="601.25" y="297.0" width="11.0" height="16.0" style="fill:orange; stroke:rgb(0,0,0);" rx="1"/>
<text x="603" y="306" style="font-family:sans-serif;font-size:10px;">
1
</text>
<rect x="426.75" y="165.0" width="15.0" height="16.0" style="fill:orange; stroke:rgb(0,0,0);" rx="1"/>
<text x="428" y="174" style="font-family:sans-serif;font-size:10px;">
式
</text>
<rect x="136.5" y="66.0" width="48.0" height="16.0" style="fill:orange; stroke:rgb(0,0,0);" rx="1"/>
<text x="138" y="75" style="font-family:sans-serif;font-size:10px;">
小李身高
</text>
<rect x="506.75" y="165.0" width="15.0" height="16.0" style="fill:orange; stroke:rgb(0,0,0);" rx="1"/>
<text x="508" y="174" style="font-family:sans-serif;font-size:10px;">
式
</text>
</svg>