<svg width="771.1" height="309.1" xmlns="http://www.w3.org/2000/svg" xmlns:xlink="http://www.w3.org/1999/xlink"><line x1="89.5" y1="8.0" x2="38.5" y2="33.0" style="stroke:black; stroke-width:1px;" />
<line x1="38.5" y1="41.0" x2="13.0" y2="66.0" style="stroke:black; stroke-width:1px;" />
<line x1="13.0" y1="74.0" x2="13.0" y2="99.0" style="stroke:black; stroke-width:1px;" />
<line x1="38.5" y1="41.0" x2="38.5" y2="66.0" style="stroke:black; stroke-width:1px;" />
<line x1="38.5" y1="41.0" x2="64.0" y2="66.0" style="stroke:black; stroke-width:1px;" />
<line x1="64.0" y1="74.0" x2="38.5" y2="99.0" style="stroke:black; stroke-width:1px;" />
<line x1="38.5" y1="107.0" x2="38.5" y2="132.0" style="stroke:black; stroke-width:1px;" />
<line x1="64.0" y1="74.0" x2="64.0" y2="99.0" style="stroke:black; stroke-width:1px;" />
<line x1="64.0" y1="74.0" x2="89.5" y2="99.0" style="stroke:black; stroke-width:1px;" />
<line x1="89.5" y1="107.0" x2="89.5" y2="132.0" style="stroke:black; stroke-width:1px;" />
<line x1="89.5" y1="8.0" x2="140.5" y2="33.0" style="stroke:black; stroke-width:1px;" />
<line x1="140.5" y1="41.0" x2="115.0" y2="66.0" style="stroke:black; stroke-width:1px;" />
<line x1="115.0" y1="74.0" x2="115.0" y2="99.0" style="stroke:black; stroke-width:1px;" />
<line x1="140.5" y1="41.0" x2="140.5" y2="66.0" style="stroke:black; stroke-width:1px;" />
<line x1="140.5" y1="41.0" x2="166.0" y2="66.0" style="stroke:black; stroke-width:1px;" />
<line x1="166.0" y1="74.0" x2="140.5" y2="99.0" style="stroke:black; stroke-width:1px;" />
<line x1="140.5" y1="107.0" x2="140.5" y2="132.0" style="stroke:black; stroke-width:1px;" />
<line x1="166.0" y1="74.0" x2="166.0" y2="99.0" style="stroke:black; stroke-width:1px;" />
<line x1="166.0" y1="74.0" x2="191.5" y2="99.0" style="stroke:black; stroke-width:1px;" />
<line x1="191.5" y1="107.0" x2="191.5" y2="132.0" style="stroke:black; stroke-width:1px;" />
<rect x="102.0" y="66.0" width="26.0" height="16.0" style="fill:orange; stroke:rgb(0,0,0);" rx="1"/>
<text x="104" y="75" style="font-family:sans-serif;font-size:10px;">
算式
</text>
<rect x="127.5" y="33.0" width="26.0" height="16.0" style="fill:orange; stroke:rgb(0,0,0);" rx="1"/>
<text x="129" y="42" style="font-family:sans-serif;font-size:10px;">
算式
</text>
<rect x="109.5" y="99.0" width="11.0" height="16.0" style="fill:orange; stroke:rgb(0,0,0);" rx="1"/>
<text x="111" y="108" style="font-family:sans-serif;font-size:10px;">
1
</text>
<rect x="82.0" y="0.0" width="15.0" height="16.0" style="fill:orange; stroke:rgb(0,0,0);" rx="1"/>
<text x="84" y="9" style="font-family:sans-serif;font-size:10px;">
句
</text>
<rect x="25.5" y="99.0" width="26.0" height="16.0" style="fill:orange; stroke:rgb(0,0,0);" rx="1"/>
<text x="27" y="108" style="font-family:sans-serif;font-size:10px;">
算式
</text>
<rect x="135.0" y="66.0" width="11.0" height="16.0" style="fill:orange; stroke:rgb(0,0,0);" rx="1"/>
<text x="137" y="75" style="font-family:sans-serif;font-size:10px;">
+
</text>
<rect x="58.5" y="99.0" width="11.0" height="16.0" style="fill:orange; stroke:rgb(0,0,0);" rx="1"/>
<text x="60" y="108" style="font-family:sans-serif;font-size:10px;">
*
</text>
<rect x="186.0" y="132.0" width="11.0" height="16.0" style="fill:orange; stroke:rgb(0,0,0);" rx="1"/>
<text x="188" y="141" style="font-family:sans-serif;font-size:10px;">
3
</text>
<rect x="178.5" y="99.0" width="26.0" height="16.0" style="fill:orange; stroke:rgb(0,0,0);" rx="1"/>
<text x="180" y="108" style="font-family:sans-serif;font-size:10px;">
算式
</text>
<rect x="160.5" y="99.0" width="11.0" height="16.0" style="fill:orange; stroke:rgb(0,0,0);" rx="1"/>
<text x="162" y="108" style="font-family:sans-serif;font-size:10px;">
*
</text>
<rect x="0.0" y="66.0" width="26.0" height="16.0" style="fill:orange; stroke:rgb(0,0,0);" rx="1"/>
<text x="2" y="75" style="font-family:sans-serif;font-size:10px;">
算式
</text>
<rect x="33.0" y="66.0" width="11.0" height="16.0" style="fill:orange; stroke:rgb(0,0,0);" rx="1"/>
<text x="35" y="75" style="font-family:sans-serif;font-size:10px;">
+
</text>
<rect x="153.0" y="66.0" width="26.0" height="16.0" style="fill:orange; stroke:rgb(0,0,0);" rx="1"/>
<text x="155" y="75" style="font-family:sans-serif;font-size:10px;">
算式
</text>
<rect x="127.5" y="99.0" width="26.0" height="16.0" style="fill:orange; stroke:rgb(0,0,0);" rx="1"/>
<text x="129" y="108" style="font-family:sans-serif;font-size:10px;">
算式
</text>
<rect x="33.0" y="132.0" width="11.0" height="16.0" style="fill:orange; stroke:rgb(0,0,0);" rx="1"/>
<text x="35" y="141" style="font-family:sans-serif;font-size:10px;">
3
</text>
<rect x="51.0" y="66.0" width="26.0" height="16.0" style="fill:orange; stroke:rgb(0,0,0);" rx="1"/>
<text x="53" y="75" style="font-family:sans-serif;font-size:10px;">
算式
</text>
<rect x="84.0" y="132.0" width="11.0" height="16.0" style="fill:orange; stroke:rgb(0,0,0);" rx="1"/>
<text x="86" y="141" style="font-family:sans-serif;font-size:10px;">
2
</text>
<rect x="135.0" y="132.0" width="11.0" height="16.0" style="fill:orange; stroke:rgb(0,0,0);" rx="1"/>
<text x="137" y="141" style="font-family:sans-serif;font-size:10px;">
2
</text>
<rect x="7.5" y="99.0" width="11.0" height="16.0" style="fill:orange; stroke:rgb(0,0,0);" rx="1"/>
<text x="9" y="108" style="font-family:sans-serif;font-size:10px;">
2
</text>
<rect x="76.5" y="99.0" width="26.0" height="16.0" style="fill:orange; stroke:rgb(0,0,0);" rx="1"/>
<text x="78" y="108" style="font-family:sans-serif;font-size:10px;">
算式
</text>
<rect x="25.5" y="33.0" width="26.0" height="16.0" style="fill:orange; stroke:rgb(0,0,0);" rx="1"/>
<text x="27" y="42" style="font-family:sans-serif;font-size:10px;">
算式
</text>
</svg>