<svg width="740.3000000000001" height="497.20000000000005" xmlns="http://www.w3.org/2000/svg" xmlns:xlink="http://www.w3.org/1999/xlink"><line x1="81.0" y1="7.0" x2="5.5" y2="31.0" style="stroke:black; stroke-width:1px;" />
<line x1="81.0" y1="7.0" x2="25.5" y2="31.0" style="stroke:black; stroke-width:1px;" />
<line x1="25.5" y1="38.0" x2="25.5" y2="62.0" style="stroke:black; stroke-width:1px;" />
<line x1="81.0" y1="7.0" x2="44.0" y2="31.0" style="stroke:black; stroke-width:1px;" />
<line x1="81.0" y1="7.0" x2="62.5" y2="31.0" style="stroke:black; stroke-width:1px;" />
<line x1="62.5" y1="38.0" x2="62.5" y2="62.0" style="stroke:black; stroke-width:1px;" />
<line x1="81.0" y1="7.0" x2="81.0" y2="31.0" style="stroke:black; stroke-width:1px;" />
<line x1="81.0" y1="7.0" x2="99.5" y2="31.0" style="stroke:black; stroke-width:1px;" />
<line x1="99.5" y1="38.0" x2="99.5" y2="62.0" style="stroke:black; stroke-width:1px;" />
<line x1="99.5" y1="69.0" x2="61.0" y2="93.0" style="stroke:black; stroke-width:1px;" />
<line x1="99.5" y1="69.0" x2="81.0" y2="93.0" style="stroke:black; stroke-width:1px;" />
<line x1="81.0" y1="100.0" x2="81.0" y2="124.0" style="stroke:black; stroke-width:1px;" />
<line x1="99.5" y1="69.0" x2="99.5" y2="93.0" style="stroke:black; stroke-width:1px;" />
<line x1="99.5" y1="69.0" x2="118.0" y2="93.0" style="stroke:black; stroke-width:1px;" />
<line x1="118.0" y1="100.0" x2="118.0" y2="124.0" style="stroke:black; stroke-width:1px;" />
<line x1="99.5" y1="69.0" x2="138.0" y2="93.0" style="stroke:black; stroke-width:1px;" />
<line x1="81.0" y1="7.0" x2="118.0" y2="31.0" style="stroke:black; stroke-width:1px;" />
<line x1="81.0" y1="7.0" x2="136.5" y2="31.0" style="stroke:black; stroke-width:1px;" />
<line x1="136.5" y1="38.0" x2="136.5" y2="62.0" style="stroke:black; stroke-width:1px;" />
<line x1="81.0" y1="7.0" x2="156.5" y2="31.0" style="stroke:black; stroke-width:1px;" />
<rect x="95.5" y="93.0" width="8.0" height="14.0" style="fill:orange; stroke:rgb(0,0,0);" rx="1"/>
<text x="97" y="102" style="font-family:sans-serif;font-size:10px;">
,
</text>
<rect x="77.0" y="31.0" width="8.0" height="14.0" style="fill:orange; stroke:rgb(0,0,0);" rx="1"/>
<text x="79" y="40" style="font-family:sans-serif;font-size:10px;">
,
</text>
<rect x="110.5" y="93.0" width="15.0" height="14.0" style="fill:orange; stroke:rgb(0,0,0);" rx="1"/>
<text x="112" y="102" style="font-family:sans-serif;font-size:10px;">
值
</text>
<rect x="53.5" y="62.0" width="18.0" height="14.0" style="fill:orange; stroke:rgb(0,0,0);" rx="1"/>
<text x="55" y="71" style="font-family:sans-serif;font-size:10px;">
33
</text>
<rect x="151.0" y="31.0" width="11.0" height="14.0" style="fill:orange; stroke:rgb(0,0,0);" rx="1"/>
<text x="153" y="40" style="font-family:sans-serif;font-size:10px;">
}
</text>
<rect x="16.5" y="62.0" width="18.0" height="14.0" style="fill:orange; stroke:rgb(0,0,0);" rx="1"/>
<text x="18" y="71" style="font-family:sans-serif;font-size:10px;">
22
</text>
<rect x="55.5" y="93.0" width="11.0" height="14.0" style="fill:orange; stroke:rgb(0,0,0);" rx="1"/>
<text x="57" y="102" style="font-family:sans-serif;font-size:10px;">
{
</text>
<rect x="18.0" y="31.0" width="15.0" height="14.0" style="fill:orange; stroke:rgb(0,0,0);" rx="1"/>
<text x="20" y="40" style="font-family:sans-serif;font-size:10px;">
值
</text>
<rect x="109.0" y="124.0" width="18.0" height="14.0" style="fill:orange; stroke:rgb(0,0,0);" rx="1"/>
<text x="111" y="133" style="font-family:sans-serif;font-size:10px;">
55
</text>
<rect x="127.5" y="62.0" width="18.0" height="14.0" style="fill:orange; stroke:rgb(0,0,0);" rx="1"/>
<text x="129" y="71" style="font-family:sans-serif;font-size:10px;">
66
</text>
<rect x="0.0" y="31.0" width="11.0" height="14.0" style="fill:orange; stroke:rgb(0,0,0);" rx="1"/>
<text x="2" y="40" style="font-family:sans-serif;font-size:10px;">
{
</text>
<rect x="73.5" y="0.0" width="15.0" height="14.0" style="fill:orange; stroke:rgb(0,0,0);" rx="1"/>
<text x="75" y="9" style="font-family:sans-serif;font-size:10px;">
队
</text>
<rect x="92.0" y="62.0" width="15.0" height="14.0" style="fill:orange; stroke:rgb(0,0,0);" rx="1"/>
<text x="94" y="71" style="font-family:sans-serif;font-size:10px;">
队
</text>
<rect x="114.0" y="31.0" width="8.0" height="14.0" style="fill:orange; stroke:rgb(0,0,0);" rx="1"/>
<text x="116" y="40" style="font-family:sans-serif;font-size:10px;">
,
</text>
<rect x="92.0" y="31.0" width="15.0" height="14.0" style="fill:orange; stroke:rgb(0,0,0);" rx="1"/>
<text x="94" y="40" style="font-family:sans-serif;font-size:10px;">
值
</text>
<rect x="72.0" y="124.0" width="18.0" height="14.0" style="fill:orange; stroke:rgb(0,0,0);" rx="1"/>
<text x="74" y="133" style="font-family:sans-serif;font-size:10px;">
44
</text>
<rect x="132.5" y="93.0" width="11.0" height="14.0" style="fill:orange; stroke:rgb(0,0,0);" rx="1"/>
<text x="134" y="102" style="font-family:sans-serif;font-size:10px;">
}
</text>
<rect x="129.0" y="31.0" width="15.0" height="14.0" style="fill:orange; stroke:rgb(0,0,0);" rx="1"/>
<text x="131" y="40" style="font-family:sans-serif;font-size:10px;">
值
</text>
<rect x="40.0" y="31.0" width="8.0" height="14.0" style="fill:orange; stroke:rgb(0,0,0);" rx="1"/>
<text x="42" y="40" style="font-family:sans-serif;font-size:10px;">
,
</text>
<rect x="73.5" y="93.0" width="15.0" height="14.0" style="fill:orange; stroke:rgb(0,0,0);" rx="1"/>
<text x="75" y="102" style="font-family:sans-serif;font-size:10px;">
值
</text>
<rect x="55.0" y="31.0" width="15.0" height="14.0" style="fill:orange; stroke:rgb(0,0,0);" rx="1"/>
<text x="57" y="40" style="font-family:sans-serif;font-size:10px;">
值
</text>
</svg>