<svg width="1571.9" height="530.2" xmlns="http://www.w3.org/2000/svg" xmlns:xlink="http://www.w3.org/1999/xlink"><line x1="479.0" y1="8.0" x2="66.5" y2="33.0" style="stroke:black; stroke-width:1px;" />
<line x1="66.5" y1="41.0" x2="66.5" y2="66.0" style="stroke:black; stroke-width:1px;" />
<line x1="66.5" y1="74.0" x2="13.0" y2="99.0" style="stroke:black; stroke-width:1px;" />
<line x1="13.0" y1="107.0" x2="13.0" y2="132.0" style="stroke:black; stroke-width:1px;" />
<line x1="66.5" y1="74.0" x2="33.5" y2="99.0" style="stroke:black; stroke-width:1px;" />
<line x1="66.5" y1="74.0" x2="54.0" y2="99.0" style="stroke:black; stroke-width:1px;" />
<line x1="54.0" y1="107.0" x2="54.0" y2="132.0" style="stroke:black; stroke-width:1px;" />
<line x1="66.5" y1="74.0" x2="74.5" y2="99.0" style="stroke:black; stroke-width:1px;" />
<line x1="66.5" y1="74.0" x2="95.0" y2="99.0" style="stroke:black; stroke-width:1px;" />
<line x1="95.0" y1="107.0" x2="95.0" y2="132.0" style="stroke:black; stroke-width:1px;" />
<line x1="66.5" y1="74.0" x2="120.0" y2="99.0" style="stroke:black; stroke-width:1px;" />
<line x1="479.0" y1="8.0" x2="201.5" y2="33.0" style="stroke:black; stroke-width:1px;" />
<line x1="201.5" y1="41.0" x2="148.0" y2="66.0" style="stroke:black; stroke-width:1px;" />
<line x1="148.0" y1="74.0" x2="148.0" y2="99.0" style="stroke:black; stroke-width:1px;" />
<line x1="201.5" y1="41.0" x2="168.5" y2="66.0" style="stroke:black; stroke-width:1px;" />
<line x1="201.5" y1="41.0" x2="189.0" y2="66.0" style="stroke:black; stroke-width:1px;" />
<line x1="189.0" y1="74.0" x2="189.0" y2="99.0" style="stroke:black; stroke-width:1px;" />
<line x1="201.5" y1="41.0" x2="209.5" y2="66.0" style="stroke:black; stroke-width:1px;" />
<line x1="201.5" y1="41.0" x2="230.0" y2="66.0" style="stroke:black; stroke-width:1px;" />
<line x1="230.0" y1="74.0" x2="230.0" y2="99.0" style="stroke:black; stroke-width:1px;" />
<line x1="201.5" y1="41.0" x2="255.0" y2="66.0" style="stroke:black; stroke-width:1px;" />
<line x1="479.0" y1="8.0" x2="334.25" y2="33.0" style="stroke:black; stroke-width:1px;" />
<line x1="334.25" y1="41.0" x2="280.0" y2="66.0" style="stroke:black; stroke-width:1px;" />
<line x1="280.0" y1="74.0" x2="280.0" y2="99.0" style="stroke:black; stroke-width:1px;" />
<line x1="334.25" y1="41.0" x2="300.5" y2="66.0" style="stroke:black; stroke-width:1px;" />
<line x1="334.25" y1="41.0" x2="321.0" y2="66.0" style="stroke:black; stroke-width:1px;" />
<line x1="321.0" y1="74.0" x2="321.0" y2="99.0" style="stroke:black; stroke-width:1px;" />
<line x1="334.25" y1="41.0" x2="342.25" y2="66.0" style="stroke:black; stroke-width:1px;" />
<line x1="334.25" y1="41.0" x2="363.5" y2="66.0" style="stroke:black; stroke-width:1px;" />
<line x1="363.5" y1="74.0" x2="363.5" y2="99.0" style="stroke:black; stroke-width:1px;" />
<line x1="334.25" y1="41.0" x2="388.5" y2="66.0" style="stroke:black; stroke-width:1px;" />
<line x1="479.0" y1="8.0" x2="482.5" y2="33.0" style="stroke:black; stroke-width:1px;" />
<line x1="482.5" y1="41.0" x2="424.0" y2="66.0" style="stroke:black; stroke-width:1px;" />
<line x1="424.0" y1="74.0" x2="424.0" y2="99.0" style="stroke:black; stroke-width:1px;" />
<line x1="482.5" y1="41.0" x2="449.5" y2="66.0" style="stroke:black; stroke-width:1px;" />
<line x1="482.5" y1="41.0" x2="475.0" y2="66.0" style="stroke:black; stroke-width:1px;" />
<line x1="475.0" y1="74.0" x2="475.0" y2="99.0" style="stroke:black; stroke-width:1px;" />
<line x1="482.5" y1="41.0" x2="495.5" y2="66.0" style="stroke:black; stroke-width:1px;" />
<line x1="482.5" y1="41.0" x2="516.0" y2="66.0" style="stroke:black; stroke-width:1px;" />
<line x1="482.5" y1="41.0" x2="541.0" y2="66.0" style="stroke:black; stroke-width:1px;" />
<line x1="479.0" y1="8.0" x2="622.0" y2="33.0" style="stroke:black; stroke-width:1px;" />
<line x1="622.0" y1="41.0" x2="566.0" y2="66.0" style="stroke:black; stroke-width:1px;" />
<line x1="566.0" y1="74.0" x2="566.0" y2="99.0" style="stroke:black; stroke-width:1px;" />
<line x1="622.0" y1="41.0" x2="589.0" y2="66.0" style="stroke:black; stroke-width:1px;" />
<line x1="622.0" y1="41.0" x2="612.0" y2="66.0" style="stroke:black; stroke-width:1px;" />
<line x1="612.0" y1="74.0" x2="612.0" y2="99.0" style="stroke:black; stroke-width:1px;" />
<line x1="622.0" y1="41.0" x2="632.5" y2="66.0" style="stroke:black; stroke-width:1px;" />
<line x1="622.0" y1="41.0" x2="653.0" y2="66.0" style="stroke:black; stroke-width:1px;" />
<line x1="622.0" y1="41.0" x2="678.0" y2="66.0" style="stroke:black; stroke-width:1px;" />
<line x1="479.0" y1="8.0" x2="758.0" y2="33.0" style="stroke:black; stroke-width:1px;" />
<line x1="758.0" y1="41.0" x2="703.0" y2="66.0" style="stroke:black; stroke-width:1px;" />
<line x1="703.0" y1="74.0" x2="703.0" y2="99.0" style="stroke:black; stroke-width:1px;" />
<line x1="758.0" y1="41.0" x2="723.5" y2="66.0" style="stroke:black; stroke-width:1px;" />
<line x1="758.0" y1="41.0" x2="744.0" y2="66.0" style="stroke:black; stroke-width:1px;" />
<line x1="744.0" y1="74.0" x2="744.0" y2="99.0" style="stroke:black; stroke-width:1px;" />
<line x1="758.0" y1="41.0" x2="766.0" y2="66.0" style="stroke:black; stroke-width:1px;" />
<line x1="758.0" y1="41.0" x2="788.0" y2="66.0" style="stroke:black; stroke-width:1px;" />
<line x1="788.0" y1="74.0" x2="788.0" y2="99.0" style="stroke:black; stroke-width:1px;" />
<line x1="758.0" y1="41.0" x2="813.0" y2="66.0" style="stroke:black; stroke-width:1px;" />
<line x1="479.0" y1="8.0" x2="891.5" y2="33.0" style="stroke:black; stroke-width:1px;" />
<line x1="891.5" y1="41.0" x2="838.0" y2="66.0" style="stroke:black; stroke-width:1px;" />
<line x1="838.0" y1="74.0" x2="838.0" y2="99.0" style="stroke:black; stroke-width:1px;" />
<line x1="891.5" y1="41.0" x2="858.5" y2="66.0" style="stroke:black; stroke-width:1px;" />
<line x1="891.5" y1="41.0" x2="879.0" y2="66.0" style="stroke:black; stroke-width:1px;" />
<line x1="879.0" y1="74.0" x2="879.0" y2="99.0" style="stroke:black; stroke-width:1px;" />
<line x1="891.5" y1="41.0" x2="899.5" y2="66.0" style="stroke:black; stroke-width:1px;" />
<line x1="891.5" y1="41.0" x2="920.0" y2="66.0" style="stroke:black; stroke-width:1px;" />
<line x1="920.0" y1="74.0" x2="920.0" y2="99.0" style="stroke:black; stroke-width:1px;" />
<line x1="891.5" y1="41.0" x2="945.0" y2="66.0" style="stroke:black; stroke-width:1px;" />
<rect x="462.0" y="99.0" width="26.0" height="16.0" style="fill:orange; stroke:rgb(0,0,0);" rx="1"/>
<text x="464" y="108" style="font-family:sans-serif;font-size:10px;">
六月
</text>
<rect x="778.0" y="66.0" width="20.0" height="16.0" style="fill:orange; stroke:rgb(0,0,0);" rx="1"/>
<text x="780" y="75" style="font-family:sans-serif;font-size:10px;">
x项
</text>
<rect x="3.0" y="99.0" width="20.0" height="16.0" style="fill:orange; stroke:rgb(0,0,0);" rx="1"/>
<text x="5" y="108" style="font-family:sans-serif;font-size:10px;">
x项
</text>
<rect x="690.0" y="99.0" width="26.0" height="16.0" style="fill:orange; stroke:rgb(0,0,0);" rx="1"/>
<text x="692" y="108" style="font-family:sans-serif;font-size:10px;">
泳装
</text>
<rect x="446.0" y="66.0" width="7.0" height="16.0" style="fill:orange; stroke:rgb(0,0,0);" rx="1"/>
<text x="448" y="75" style="font-family:sans-serif;font-size:10px;">
,
</text>
<rect x="338.75" y="66.0" width="7.0" height="16.0" style="fill:orange; stroke:rgb(0,0,0);" rx="1"/>
<text x="340" y="75" style="font-family:sans-serif;font-size:10px;">
,
</text>
<rect x="643.0" y="66.0" width="20.0" height="16.0" style="fill:orange; stroke:rgb(0,0,0);" rx="1"/>
<text x="645" y="75" style="font-family:sans-serif;font-size:10px;">
x项
</text>
<rect x="720.0" y="66.0" width="7.0" height="16.0" style="fill:orange; stroke:rgb(0,0,0);" rx="1"/>
<text x="722" y="75" style="font-family:sans-serif;font-size:10px;">
,
</text>
<rect x="937.0" y="66.0" width="16.0" height="16.0" style="fill:orange; stroke:rgb(0,0,0);" rx="1"/>
<text x="939" y="75" style="font-family:sans-serif;font-size:10px;">
\n
</text>
<rect x="247.0" y="66.0" width="16.0" height="16.0" style="fill:orange; stroke:rgb(0,0,0);" rx="1"/>
<text x="249" y="75" style="font-family:sans-serif;font-size:10px;">
\n
</text>
<rect x="913.0" y="99.0" width="14.0" height="16.0" style="fill:orange; stroke:rgb(0,0,0);" rx="1"/>
<text x="915" y="108" style="font-family:sans-serif;font-size:10px;">
""
</text>
<rect x="53.5" y="33.0" width="26.0" height="16.0" style="fill:orange; stroke:rgb(0,0,0);" rx="1"/>
<text x="55" y="42" style="font-family:sans-serif;font-size:10px;">
表头
</text>
<rect x="884.0" y="33.0" width="15.0" height="16.0" style="fill:orange; stroke:rgb(0,0,0);" rx="1"/>
<text x="886" y="42" style="font-family:sans-serif;font-size:10px;">
行
</text>
<rect x="85.0" y="99.0" width="20.0" height="16.0" style="fill:orange; stroke:rgb(0,0,0);" rx="1"/>
<text x="87" y="108" style="font-family:sans-serif;font-size:10px;">
x项
</text>
<rect x="492.0" y="66.0" width="7.0" height="16.0" style="fill:orange; stroke:rgb(0,0,0);" rx="1"/>
<text x="494" y="75" style="font-family:sans-serif;font-size:10px;">
,
</text>
<rect x="475.0" y="33.0" width="15.0" height="16.0" style="fill:orange; stroke:rgb(0,0,0);" rx="1"/>
<text x="477" y="42" style="font-family:sans-serif;font-size:10px;">
行
</text>
<rect x="731.0" y="99.0" width="26.0" height="16.0" style="fill:orange; stroke:rgb(0,0,0);" rx="1"/>
<text x="733" y="108" style="font-family:sans-serif;font-size:10px;">
七月
</text>
<rect x="30.0" y="99.0" width="7.0" height="16.0" style="fill:orange; stroke:rgb(0,0,0);" rx="1"/>
<text x="32" y="108" style="font-family:sans-serif;font-size:10px;">
,
</text>
<rect x="112.0" y="99.0" width="16.0" height="16.0" style="fill:orange; stroke:rgb(0,0,0);" rx="1"/>
<text x="114" y="108" style="font-family:sans-serif;font-size:10px;">
\n
</text>
<rect x="138.0" y="66.0" width="20.0" height="16.0" style="fill:orange; stroke:rgb(0,0,0);" rx="1"/>
<text x="140" y="75" style="font-family:sans-serif;font-size:10px;">
x项
</text>
<rect x="326.75" y="33.0" width="15.0" height="16.0" style="fill:orange; stroke:rgb(0,0,0);" rx="1"/>
<text x="328" y="42" style="font-family:sans-serif;font-size:10px;">
行
</text>
<rect x="602.0" y="66.0" width="20.0" height="16.0" style="fill:orange; stroke:rgb(0,0,0);" rx="1"/>
<text x="604" y="75" style="font-family:sans-serif;font-size:10px;">
x项
</text>
<rect x="750.5" y="33.0" width="15.0" height="16.0" style="fill:orange; stroke:rgb(0,0,0);" rx="1"/>
<text x="752" y="42" style="font-family:sans-serif;font-size:10px;">
行
</text>
<rect x="135.0" y="99.0" width="26.0" height="16.0" style="fill:orange; stroke:rgb(0,0,0);" rx="1"/>
<text x="137" y="108" style="font-family:sans-serif;font-size:10px;">
衣服
</text>
<rect x="179.0" y="66.0" width="20.0" height="16.0" style="fill:orange; stroke:rgb(0,0,0);" rx="1"/>
<text x="181" y="75" style="font-family:sans-serif;font-size:10px;">
x项
</text>
<rect x="44.0" y="99.0" width="20.0" height="16.0" style="fill:orange; stroke:rgb(0,0,0);" rx="1"/>
<text x="46" y="108" style="font-family:sans-serif;font-size:10px;">
x项
</text>
<rect x="556.0" y="66.0" width="20.0" height="16.0" style="fill:orange; stroke:rgb(0,0,0);" rx="1"/>
<text x="558" y="75" style="font-family:sans-serif;font-size:10px;">
x项
</text>
<rect x="194.0" y="33.0" width="15.0" height="16.0" style="fill:orange; stroke:rgb(0,0,0);" rx="1"/>
<text x="196" y="42" style="font-family:sans-serif;font-size:10px;">
行
</text>
<rect x="533.0" y="66.0" width="16.0" height="16.0" style="fill:orange; stroke:rgb(0,0,0);" rx="1"/>
<text x="535" y="75" style="font-family:sans-serif;font-size:10px;">
\n
</text>
<rect x="869.0" y="66.0" width="20.0" height="16.0" style="fill:orange; stroke:rgb(0,0,0);" rx="1"/>
<text x="871" y="75" style="font-family:sans-serif;font-size:10px;">
x项
</text>
<rect x="828.0" y="66.0" width="20.0" height="16.0" style="fill:orange; stroke:rgb(0,0,0);" rx="1"/>
<text x="830" y="75" style="font-family:sans-serif;font-size:10px;">
x项
</text>
<rect x="866.0" y="99.0" width="26.0" height="16.0" style="fill:orange; stroke:rgb(0,0,0);" rx="1"/>
<text x="868" y="108" style="font-family:sans-serif;font-size:10px;">
八月
</text>
<rect x="59.0" y="66.0" width="15.0" height="16.0" style="fill:orange; stroke:rgb(0,0,0);" rx="1"/>
<text x="61" y="75" style="font-family:sans-serif;font-size:10px;">
行
</text>
<rect x="267.0" y="99.0" width="26.0" height="16.0" style="fill:orange; stroke:rgb(0,0,0);" rx="1"/>
<text x="269" y="108" style="font-family:sans-serif;font-size:10px;">
裤子
</text>
<rect x="82.0" y="132.0" width="26.0" height="16.0" style="fill:orange; stroke:rgb(0,0,0);" rx="1"/>
<text x="84" y="141" style="font-family:sans-serif;font-size:10px;">
产量
</text>
<rect x="311.0" y="66.0" width="20.0" height="16.0" style="fill:orange; stroke:rgb(0,0,0);" rx="1"/>
<text x="313" y="75" style="font-family:sans-serif;font-size:10px;">
x项
</text>
<rect x="393.0" y="99.0" width="62.0" height="16.0" style="fill:orange; stroke:rgb(0,0,0);" rx="1"/>
<text x="395" y="108" style="font-family:sans-serif;font-size:10px;">
"""未知?"""
</text>
<rect x="670.0" y="66.0" width="16.0" height="16.0" style="fill:orange; stroke:rgb(0,0,0);" rx="1"/>
<text x="672" y="75" style="font-family:sans-serif;font-size:10px;">
\n
</text>
<rect x="825.0" y="99.0" width="26.0" height="16.0" style="fill:orange; stroke:rgb(0,0,0);" rx="1"/>
<text x="827" y="108" style="font-family:sans-serif;font-size:10px;">
帽子
</text>
<rect x="614.5" y="33.0" width="15.0" height="16.0" style="fill:orange; stroke:rgb(0,0,0);" rx="1"/>
<text x="616" y="42" style="font-family:sans-serif;font-size:10px;">
行
</text>
<rect x="214.0" y="99.0" width="32.0" height="16.0" style="fill:orange; stroke:rgb(0,0,0);" rx="1"/>
<text x="216" y="108" style="font-family:sans-serif;font-size:10px;">
4000
</text>
<rect x="764.0" y="99.0" width="48.0" height="16.0" style="fill:orange; stroke:rgb(0,0,0);" rx="1"/>
<text x="766" y="108" style="font-family:sans-serif;font-size:10px;">
三千五百
</text>
<rect x="71.0" y="99.0" width="7.0" height="16.0" style="fill:orange; stroke:rgb(0,0,0);" rx="1"/>
<text x="73" y="108" style="font-family:sans-serif;font-size:10px;">
,
</text>
<rect x="540.0" y="99.0" width="52.0" height="16.0" style="fill:orange; stroke:rgb(0,0,0);" rx="1"/>
<text x="542" y="108" style="font-family:sans-serif;font-size:10px;">
"""未知?"
</text>
<rect x="805.0" y="66.0" width="16.0" height="16.0" style="fill:orange; stroke:rgb(0,0,0);" rx="1"/>
<text x="807" y="75" style="font-family:sans-serif;font-size:10px;">
\n
</text>
<rect x="585.5" y="66.0" width="7.0" height="16.0" style="fill:orange; stroke:rgb(0,0,0);" rx="1"/>
<text x="587" y="75" style="font-family:sans-serif;font-size:10px;">
,
</text>
<rect x="734.0" y="66.0" width="20.0" height="16.0" style="fill:orange; stroke:rgb(0,0,0);" rx="1"/>
<text x="736" y="75" style="font-family:sans-serif;font-size:10px;">
x项
</text>
<rect x="693.0" y="66.0" width="20.0" height="16.0" style="fill:orange; stroke:rgb(0,0,0);" rx="1"/>
<text x="695" y="75" style="font-family:sans-serif;font-size:10px;">
x项
</text>
<rect x="506.0" y="66.0" width="20.0" height="16.0" style="fill:orange; stroke:rgb(0,0,0);" rx="1"/>
<text x="508" y="75" style="font-family:sans-serif;font-size:10px;">
x项
</text>
<rect x="353.5" y="66.0" width="20.0" height="16.0" style="fill:orange; stroke:rgb(0,0,0);" rx="1"/>
<text x="355" y="75" style="font-family:sans-serif;font-size:10px;">
x项
</text>
<rect x="762.5" y="66.0" width="7.0" height="16.0" style="fill:orange; stroke:rgb(0,0,0);" rx="1"/>
<text x="764" y="75" style="font-family:sans-serif;font-size:10px;">
,
</text>
<rect x="0.0" y="132.0" width="26.0" height="16.0" style="fill:orange; stroke:rgb(0,0,0);" rx="1"/>
<text x="2" y="141" style="font-family:sans-serif;font-size:10px;">
产品
</text>
<rect x="35.5" y="132.0" width="37.0" height="16.0" style="fill:orange; stroke:rgb(0,0,0);" rx="1"/>
<text x="37" y="141" style="font-family:sans-serif;font-size:10px;">
出厂期
</text>
<rect x="380.5" y="66.0" width="16.0" height="16.0" style="fill:orange; stroke:rgb(0,0,0);" rx="1"/>
<text x="382" y="75" style="font-family:sans-serif;font-size:10px;">
\n
</text>
<rect x="896.0" y="66.0" width="7.0" height="16.0" style="fill:orange; stroke:rgb(0,0,0);" rx="1"/>
<text x="898" y="75" style="font-family:sans-serif;font-size:10px;">
,
</text>
<rect x="471.5" y="0.0" width="15.0" height="16.0" style="fill:orange; stroke:rgb(0,0,0);" rx="1"/>
<text x="473" y="9" style="font-family:sans-serif;font-size:10px;">
档
</text>
<rect x="599.0" y="99.0" width="26.0" height="16.0" style="fill:orange; stroke:rgb(0,0,0);" rx="1"/>
<text x="601" y="108" style="font-family:sans-serif;font-size:10px;">
六月
</text>
<rect x="465.0" y="66.0" width="20.0" height="16.0" style="fill:orange; stroke:rgb(0,0,0);" rx="1"/>
<text x="467" y="75" style="font-family:sans-serif;font-size:10px;">
x项
</text>
<rect x="297.0" y="66.0" width="7.0" height="16.0" style="fill:orange; stroke:rgb(0,0,0);" rx="1"/>
<text x="299" y="75" style="font-family:sans-serif;font-size:10px;">
,
</text>
<rect x="270.0" y="66.0" width="20.0" height="16.0" style="fill:orange; stroke:rgb(0,0,0);" rx="1"/>
<text x="272" y="75" style="font-family:sans-serif;font-size:10px;">
x项
</text>
<rect x="341.0" y="99.0" width="45.0" height="16.0" style="fill:orange; stroke:rgb(0,0,0);" rx="1"/>
<text x="343" y="108" style="font-family:sans-serif;font-size:10px;">
"5,000"
</text>
<rect x="910.0" y="66.0" width="20.0" height="16.0" style="fill:orange; stroke:rgb(0,0,0);" rx="1"/>
<text x="912" y="75" style="font-family:sans-serif;font-size:10px;">
x项
</text>
<rect x="308.0" y="99.0" width="26.0" height="16.0" style="fill:orange; stroke:rgb(0,0,0);" rx="1"/>
<text x="310" y="108" style="font-family:sans-serif;font-size:10px;">
五月
</text>
<rect x="165.0" y="66.0" width="7.0" height="16.0" style="fill:orange; stroke:rgb(0,0,0);" rx="1"/>
<text x="167" y="75" style="font-family:sans-serif;font-size:10px;">
,
</text>
<rect x="176.0" y="99.0" width="26.0" height="16.0" style="fill:orange; stroke:rgb(0,0,0);" rx="1"/>
<text x="178" y="108" style="font-family:sans-serif;font-size:10px;">
三月
</text>
<rect x="220.0" y="66.0" width="20.0" height="16.0" style="fill:orange; stroke:rgb(0,0,0);" rx="1"/>
<text x="222" y="75" style="font-family:sans-serif;font-size:10px;">
x项
</text>
<rect x="855.0" y="66.0" width="7.0" height="16.0" style="fill:orange; stroke:rgb(0,0,0);" rx="1"/>
<text x="857" y="75" style="font-family:sans-serif;font-size:10px;">
,
</text>
<rect x="629.0" y="66.0" width="7.0" height="16.0" style="fill:orange; stroke:rgb(0,0,0);" rx="1"/>
<text x="631" y="75" style="font-family:sans-serif;font-size:10px;">
,
</text>
<rect x="414.0" y="66.0" width="20.0" height="16.0" style="fill:orange; stroke:rgb(0,0,0);" rx="1"/>
<text x="416" y="75" style="font-family:sans-serif;font-size:10px;">
x项
</text>
<rect x="206.0" y="66.0" width="7.0" height="16.0" style="fill:orange; stroke:rgb(0,0,0);" rx="1"/>
<text x="208" y="75" style="font-family:sans-serif;font-size:10px;">
,
</text>
</svg>