<svg width="1456.4" height="583.0" xmlns="http://www.w3.org/2000/svg" xmlns:xlink="http://www.w3.org/1999/xlink"><line x1="445.25" y1="8.0" x2="62.75" y2="33.0" style="stroke:black; stroke-width:1px;" />
<line x1="62.75" y1="41.0" x2="62.75" y2="66.0" style="stroke:black; stroke-width:1px;" />
<line x1="62.75" y1="74.0" x2="13.0" y2="99.0" style="stroke:black; stroke-width:1px;" />
<line x1="13.0" y1="107.0" x2="13.0" y2="132.0" style="stroke:black; stroke-width:1px;" />
<line x1="62.75" y1="74.0" x2="32.25" y2="99.0" style="stroke:black; stroke-width:1px;" />
<line x1="62.75" y1="74.0" x2="51.5" y2="99.0" style="stroke:black; stroke-width:1px;" />
<line x1="51.5" y1="107.0" x2="51.5" y2="132.0" style="stroke:black; stroke-width:1px;" />
<line x1="62.75" y1="74.0" x2="70.75" y2="99.0" style="stroke:black; stroke-width:1px;" />
<line x1="62.75" y1="74.0" x2="90.0" y2="99.0" style="stroke:black; stroke-width:1px;" />
<line x1="90.0" y1="107.0" x2="90.0" y2="132.0" style="stroke:black; stroke-width:1px;" />
<line x1="62.75" y1="74.0" x2="112.5" y2="99.0" style="stroke:black; stroke-width:1px;" />
<line x1="445.25" y1="8.0" x2="187.75" y2="33.0" style="stroke:black; stroke-width:1px;" />
<line x1="187.75" y1="41.0" x2="140.5" y2="66.0" style="stroke:black; stroke-width:1px;" />
<line x1="140.5" y1="74.0" x2="140.5" y2="99.0" style="stroke:black; stroke-width:1px;" />
<line x1="187.75" y1="41.0" x2="158.5" y2="66.0" style="stroke:black; stroke-width:1px;" />
<line x1="187.75" y1="41.0" x2="176.5" y2="66.0" style="stroke:black; stroke-width:1px;" />
<line x1="176.5" y1="74.0" x2="176.5" y2="99.0" style="stroke:black; stroke-width:1px;" />
<line x1="187.75" y1="41.0" x2="194.5" y2="66.0" style="stroke:black; stroke-width:1px;" />
<line x1="187.75" y1="41.0" x2="212.5" y2="66.0" style="stroke:black; stroke-width:1px;" />
<line x1="212.5" y1="74.0" x2="212.5" y2="99.0" style="stroke:black; stroke-width:1px;" />
<line x1="187.75" y1="41.0" x2="235.0" y2="66.0" style="stroke:black; stroke-width:1px;" />
<line x1="445.25" y1="8.0" x2="308.0" y2="33.0" style="stroke:black; stroke-width:1px;" />
<line x1="308.0" y1="41.0" x2="257.5" y2="66.0" style="stroke:black; stroke-width:1px;" />
<line x1="257.5" y1="74.0" x2="257.5" y2="99.0" style="stroke:black; stroke-width:1px;" />
<line x1="308.0" y1="41.0" x2="275.5" y2="66.0" style="stroke:black; stroke-width:1px;" />
<line x1="308.0" y1="41.0" x2="293.5" y2="66.0" style="stroke:black; stroke-width:1px;" />
<line x1="293.5" y1="74.0" x2="293.5" y2="99.0" style="stroke:black; stroke-width:1px;" />
<line x1="308.0" y1="41.0" x2="314.75" y2="66.0" style="stroke:black; stroke-width:1px;" />
<line x1="308.0" y1="41.0" x2="336.0" y2="66.0" style="stroke:black; stroke-width:1px;" />
<line x1="336.0" y1="74.0" x2="336.0" y2="99.0" style="stroke:black; stroke-width:1px;" />
<line x1="308.0" y1="41.0" x2="358.5" y2="66.0" style="stroke:black; stroke-width:1px;" />
<line x1="445.25" y1="8.0" x2="451.25" y2="33.0" style="stroke:black; stroke-width:1px;" />
<line x1="451.25" y1="41.0" x2="396.5" y2="66.0" style="stroke:black; stroke-width:1px;" />
<line x1="396.5" y1="74.0" x2="396.5" y2="99.0" style="stroke:black; stroke-width:1px;" />
<line x1="451.25" y1="41.0" x2="422.0" y2="66.0" style="stroke:black; stroke-width:1px;" />
<line x1="451.25" y1="41.0" x2="447.5" y2="66.0" style="stroke:black; stroke-width:1px;" />
<line x1="447.5" y1="74.0" x2="447.5" y2="99.0" style="stroke:black; stroke-width:1px;" />
<line x1="451.25" y1="41.0" x2="465.5" y2="66.0" style="stroke:black; stroke-width:1px;" />
<line x1="451.25" y1="41.0" x2="483.5" y2="66.0" style="stroke:black; stroke-width:1px;" />
<line x1="451.25" y1="41.0" x2="506.0" y2="66.0" style="stroke:black; stroke-width:1px;" />
<line x1="445.25" y1="8.0" x2="580.75" y2="33.0" style="stroke:black; stroke-width:1px;" />
<line x1="580.75" y1="41.0" x2="528.5" y2="66.0" style="stroke:black; stroke-width:1px;" />
<line x1="528.5" y1="74.0" x2="528.5" y2="99.0" style="stroke:black; stroke-width:1px;" />
<line x1="580.75" y1="41.0" x2="551.5" y2="66.0" style="stroke:black; stroke-width:1px;" />
<line x1="580.75" y1="41.0" x2="574.5" y2="66.0" style="stroke:black; stroke-width:1px;" />
<line x1="574.5" y1="74.0" x2="574.5" y2="99.0" style="stroke:black; stroke-width:1px;" />
<line x1="580.75" y1="41.0" x2="592.5" y2="66.0" style="stroke:black; stroke-width:1px;" />
<line x1="580.75" y1="41.0" x2="610.5" y2="66.0" style="stroke:black; stroke-width:1px;" />
<line x1="580.75" y1="41.0" x2="633.0" y2="66.0" style="stroke:black; stroke-width:1px;" />
<line x1="445.25" y1="8.0" x2="706.75" y2="33.0" style="stroke:black; stroke-width:1px;" />
<line x1="706.75" y1="41.0" x2="655.5" y2="66.0" style="stroke:black; stroke-width:1px;" />
<line x1="655.5" y1="74.0" x2="655.5" y2="99.0" style="stroke:black; stroke-width:1px;" />
<line x1="706.75" y1="41.0" x2="673.5" y2="66.0" style="stroke:black; stroke-width:1px;" />
<line x1="706.75" y1="41.0" x2="691.5" y2="66.0" style="stroke:black; stroke-width:1px;" />
<line x1="691.5" y1="74.0" x2="691.5" y2="99.0" style="stroke:black; stroke-width:1px;" />
<line x1="706.75" y1="41.0" x2="713.5" y2="66.0" style="stroke:black; stroke-width:1px;" />
<line x1="706.75" y1="41.0" x2="735.5" y2="66.0" style="stroke:black; stroke-width:1px;" />
<line x1="735.5" y1="74.0" x2="735.5" y2="99.0" style="stroke:black; stroke-width:1px;" />
<line x1="706.75" y1="41.0" x2="758.0" y2="66.0" style="stroke:black; stroke-width:1px;" />
<line x1="445.25" y1="8.0" x2="827.75" y2="33.0" style="stroke:black; stroke-width:1px;" />
<line x1="827.75" y1="41.0" x2="780.5" y2="66.0" style="stroke:black; stroke-width:1px;" />
<line x1="780.5" y1="74.0" x2="780.5" y2="99.0" style="stroke:black; stroke-width:1px;" />
<line x1="827.75" y1="41.0" x2="798.5" y2="66.0" style="stroke:black; stroke-width:1px;" />
<line x1="827.75" y1="41.0" x2="816.5" y2="66.0" style="stroke:black; stroke-width:1px;" />
<line x1="816.5" y1="74.0" x2="816.5" y2="99.0" style="stroke:black; stroke-width:1px;" />
<line x1="827.75" y1="41.0" x2="834.5" y2="66.0" style="stroke:black; stroke-width:1px;" />
<line x1="827.75" y1="41.0" x2="852.5" y2="66.0" style="stroke:black; stroke-width:1px;" />
<line x1="852.5" y1="74.0" x2="852.5" y2="99.0" style="stroke:black; stroke-width:1px;" />
<line x1="827.75" y1="41.0" x2="875.0" y2="66.0" style="stroke:black; stroke-width:1px;" />
<rect x="434.5" y="99.0" width="26.0" height="16.0" style="fill:orange; stroke:rgb(0,0,0);" rx="1"/>
<text x="436" y="108" style="font-family:sans-serif;font-size:10px;">
六月
</text>
<rect x="728.0" y="66.0" width="15.0" height="16.0" style="fill:orange; stroke:rgb(0,0,0);" rx="1"/>
<text x="730" y="75" style="font-family:sans-serif;font-size:10px;">
项
</text>
<rect x="5.5" y="99.0" width="15.0" height="16.0" style="fill:orange; stroke:rgb(0,0,0);" rx="1"/>
<text x="7" y="108" style="font-family:sans-serif;font-size:10px;">
项
</text>
<rect x="642.5" y="99.0" width="26.0" height="16.0" style="fill:orange; stroke:rgb(0,0,0);" rx="1"/>
<text x="644" y="108" style="font-family:sans-serif;font-size:10px;">
泳装
</text>
<rect x="418.5" y="66.0" width="7.0" height="16.0" style="fill:orange; stroke:rgb(0,0,0);" rx="1"/>
<text x="420" y="75" style="font-family:sans-serif;font-size:10px;">
,
</text>
<rect x="311.25" y="66.0" width="7.0" height="16.0" style="fill:orange; stroke:rgb(0,0,0);" rx="1"/>
<text x="313" y="75" style="font-family:sans-serif;font-size:10px;">
,
</text>
<rect x="603.0" y="66.0" width="15.0" height="16.0" style="fill:orange; stroke:rgb(0,0,0);" rx="1"/>
<text x="605" y="75" style="font-family:sans-serif;font-size:10px;">
项
</text>
<rect x="670.0" y="66.0" width="7.0" height="16.0" style="fill:orange; stroke:rgb(0,0,0);" rx="1"/>
<text x="672" y="75" style="font-family:sans-serif;font-size:10px;">
,
</text>
<rect x="867.0" y="66.0" width="16.0" height="16.0" style="fill:orange; stroke:rgb(0,0,0);" rx="1"/>
<text x="869" y="75" style="font-family:sans-serif;font-size:10px;">
\n
</text>
<rect x="227.0" y="66.0" width="16.0" height="16.0" style="fill:orange; stroke:rgb(0,0,0);" rx="1"/>
<text x="229" y="75" style="font-family:sans-serif;font-size:10px;">
\n
</text>
<rect x="845.5" y="99.0" width="14.0" height="16.0" style="fill:orange; stroke:rgb(0,0,0);" rx="1"/>
<text x="847" y="108" style="font-family:sans-serif;font-size:10px;">
""
</text>
<rect x="49.75" y="33.0" width="26.0" height="16.0" style="fill:orange; stroke:rgb(0,0,0);" rx="1"/>
<text x="51" y="42" style="font-family:sans-serif;font-size:10px;">
标题
</text>
<rect x="820.25" y="33.0" width="15.0" height="16.0" style="fill:orange; stroke:rgb(0,0,0);" rx="1"/>
<text x="822" y="42" style="font-family:sans-serif;font-size:10px;">
行
</text>
<rect x="104.5" y="99.0" width="16.0" height="16.0" style="fill:orange; stroke:rgb(0,0,0);" rx="1"/>
<text x="106" y="108" style="font-family:sans-serif;font-size:10px;">
\n
</text>
<rect x="462.0" y="66.0" width="7.0" height="16.0" style="fill:orange; stroke:rgb(0,0,0);" rx="1"/>
<text x="464" y="75" style="font-family:sans-serif;font-size:10px;">
,
</text>
<rect x="443.75" y="33.0" width="15.0" height="16.0" style="fill:orange; stroke:rgb(0,0,0);" rx="1"/>
<text x="445" y="42" style="font-family:sans-serif;font-size:10px;">
行
</text>
<rect x="678.5" y="99.0" width="26.0" height="16.0" style="fill:orange; stroke:rgb(0,0,0);" rx="1"/>
<text x="680" y="108" style="font-family:sans-serif;font-size:10px;">
七月
</text>
<rect x="28.75" y="99.0" width="7.0" height="16.0" style="fill:orange; stroke:rgb(0,0,0);" rx="1"/>
<text x="30" y="108" style="font-family:sans-serif;font-size:10px;">
,
</text>
<rect x="77.0" y="132.0" width="26.0" height="16.0" style="fill:orange; stroke:rgb(0,0,0);" rx="1"/>
<text x="79" y="141" style="font-family:sans-serif;font-size:10px;">
产量
</text>
<rect x="133.0" y="66.0" width="15.0" height="16.0" style="fill:orange; stroke:rgb(0,0,0);" rx="1"/>
<text x="135" y="75" style="font-family:sans-serif;font-size:10px;">
项
</text>
<rect x="300.5" y="33.0" width="15.0" height="16.0" style="fill:orange; stroke:rgb(0,0,0);" rx="1"/>
<text x="302" y="42" style="font-family:sans-serif;font-size:10px;">
行
</text>
<rect x="567.0" y="66.0" width="15.0" height="16.0" style="fill:orange; stroke:rgb(0,0,0);" rx="1"/>
<text x="569" y="75" style="font-family:sans-serif;font-size:10px;">
项
</text>
<rect x="699.25" y="33.0" width="15.0" height="16.0" style="fill:orange; stroke:rgb(0,0,0);" rx="1"/>
<text x="701" y="42" style="font-family:sans-serif;font-size:10px;">
行
</text>
<rect x="127.5" y="99.0" width="26.0" height="16.0" style="fill:orange; stroke:rgb(0,0,0);" rx="1"/>
<text x="129" y="108" style="font-family:sans-serif;font-size:10px;">
衣服
</text>
<rect x="169.0" y="66.0" width="15.0" height="16.0" style="fill:orange; stroke:rgb(0,0,0);" rx="1"/>
<text x="171" y="75" style="font-family:sans-serif;font-size:10px;">
项
</text>
<rect x="44.0" y="99.0" width="15.0" height="16.0" style="fill:orange; stroke:rgb(0,0,0);" rx="1"/>
<text x="46" y="108" style="font-family:sans-serif;font-size:10px;">
项
</text>
<rect x="521.0" y="66.0" width="15.0" height="16.0" style="fill:orange; stroke:rgb(0,0,0);" rx="1"/>
<text x="523" y="75" style="font-family:sans-serif;font-size:10px;">
项
</text>
<rect x="180.25" y="33.0" width="15.0" height="16.0" style="fill:orange; stroke:rgb(0,0,0);" rx="1"/>
<text x="182" y="42" style="font-family:sans-serif;font-size:10px;">
行
</text>
<rect x="498.0" y="66.0" width="16.0" height="16.0" style="fill:orange; stroke:rgb(0,0,0);" rx="1"/>
<text x="500" y="75" style="font-family:sans-serif;font-size:10px;">
\n
</text>
<rect x="809.0" y="66.0" width="15.0" height="16.0" style="fill:orange; stroke:rgb(0,0,0);" rx="1"/>
<text x="811" y="75" style="font-family:sans-serif;font-size:10px;">
项
</text>
<rect x="773.0" y="66.0" width="15.0" height="16.0" style="fill:orange; stroke:rgb(0,0,0);" rx="1"/>
<text x="775" y="75" style="font-family:sans-serif;font-size:10px;">
项
</text>
<rect x="803.5" y="99.0" width="26.0" height="16.0" style="fill:orange; stroke:rgb(0,0,0);" rx="1"/>
<text x="805" y="108" style="font-family:sans-serif;font-size:10px;">
八月
</text>
<rect x="55.25" y="66.0" width="15.0" height="16.0" style="fill:orange; stroke:rgb(0,0,0);" rx="1"/>
<text x="57" y="75" style="font-family:sans-serif;font-size:10px;">
行
</text>
<rect x="244.5" y="99.0" width="26.0" height="16.0" style="fill:orange; stroke:rgb(0,0,0);" rx="1"/>
<text x="246" y="108" style="font-family:sans-serif;font-size:10px;">
裤子
</text>
<rect x="82.5" y="99.0" width="15.0" height="16.0" style="fill:orange; stroke:rgb(0,0,0);" rx="1"/>
<text x="84" y="108" style="font-family:sans-serif;font-size:10px;">
项
</text>
<rect x="286.0" y="66.0" width="15.0" height="16.0" style="fill:orange; stroke:rgb(0,0,0);" rx="1"/>
<text x="288" y="75" style="font-family:sans-serif;font-size:10px;">
项
</text>
<rect x="365.5" y="99.0" width="62.0" height="16.0" style="fill:orange; stroke:rgb(0,0,0);" rx="1"/>
<text x="367" y="108" style="font-family:sans-serif;font-size:10px;">
"""未知?"""
</text>
<rect x="625.0" y="66.0" width="16.0" height="16.0" style="fill:orange; stroke:rgb(0,0,0);" rx="1"/>
<text x="627" y="75" style="font-family:sans-serif;font-size:10px;">
\n
</text>
<rect x="767.5" y="99.0" width="26.0" height="16.0" style="fill:orange; stroke:rgb(0,0,0);" rx="1"/>
<text x="769" y="108" style="font-family:sans-serif;font-size:10px;">
帽子
</text>
<rect x="573.25" y="33.0" width="15.0" height="16.0" style="fill:orange; stroke:rgb(0,0,0);" rx="1"/>
<text x="575" y="42" style="font-family:sans-serif;font-size:10px;">
行
</text>
<rect x="196.5" y="99.0" width="32.0" height="16.0" style="fill:orange; stroke:rgb(0,0,0);" rx="1"/>
<text x="198" y="108" style="font-family:sans-serif;font-size:10px;">
4000
</text>
<rect x="711.5" y="99.0" width="48.0" height="16.0" style="fill:orange; stroke:rgb(0,0,0);" rx="1"/>
<text x="713" y="108" style="font-family:sans-serif;font-size:10px;">
三千五百
</text>
<rect x="67.25" y="99.0" width="7.0" height="16.0" style="fill:orange; stroke:rgb(0,0,0);" rx="1"/>
<text x="69" y="108" style="font-family:sans-serif;font-size:10px;">
,
</text>
<rect x="502.5" y="99.0" width="52.0" height="16.0" style="fill:orange; stroke:rgb(0,0,0);" rx="1"/>
<text x="504" y="108" style="font-family:sans-serif;font-size:10px;">
"""未知?"
</text>
<rect x="750.0" y="66.0" width="16.0" height="16.0" style="fill:orange; stroke:rgb(0,0,0);" rx="1"/>
<text x="752" y="75" style="font-family:sans-serif;font-size:10px;">
\n
</text>
<rect x="548.0" y="66.0" width="7.0" height="16.0" style="fill:orange; stroke:rgb(0,0,0);" rx="1"/>
<text x="550" y="75" style="font-family:sans-serif;font-size:10px;">
,
</text>
<rect x="684.0" y="66.0" width="15.0" height="16.0" style="fill:orange; stroke:rgb(0,0,0);" rx="1"/>
<text x="686" y="75" style="font-family:sans-serif;font-size:10px;">
项
</text>
<rect x="648.0" y="66.0" width="15.0" height="16.0" style="fill:orange; stroke:rgb(0,0,0);" rx="1"/>
<text x="650" y="75" style="font-family:sans-serif;font-size:10px;">
项
</text>
<rect x="476.0" y="66.0" width="15.0" height="16.0" style="fill:orange; stroke:rgb(0,0,0);" rx="1"/>
<text x="478" y="75" style="font-family:sans-serif;font-size:10px;">
项
</text>
<rect x="328.5" y="66.0" width="15.0" height="16.0" style="fill:orange; stroke:rgb(0,0,0);" rx="1"/>
<text x="330" y="75" style="font-family:sans-serif;font-size:10px;">
项
</text>
<rect x="710.0" y="66.0" width="7.0" height="16.0" style="fill:orange; stroke:rgb(0,0,0);" rx="1"/>
<text x="712" y="75" style="font-family:sans-serif;font-size:10px;">
,
</text>
<rect x="0.0" y="132.0" width="26.0" height="16.0" style="fill:orange; stroke:rgb(0,0,0);" rx="1"/>
<text x="2" y="141" style="font-family:sans-serif;font-size:10px;">
产品
</text>
<rect x="33.0" y="132.0" width="37.0" height="16.0" style="fill:orange; stroke:rgb(0,0,0);" rx="1"/>
<text x="35" y="141" style="font-family:sans-serif;font-size:10px;">
出厂期
</text>
<rect x="350.5" y="66.0" width="16.0" height="16.0" style="fill:orange; stroke:rgb(0,0,0);" rx="1"/>
<text x="352" y="75" style="font-family:sans-serif;font-size:10px;">
\n
</text>
<rect x="831.0" y="66.0" width="7.0" height="16.0" style="fill:orange; stroke:rgb(0,0,0);" rx="1"/>
<text x="833" y="75" style="font-family:sans-serif;font-size:10px;">
,
</text>
<rect x="437.75" y="0.0" width="15.0" height="16.0" style="fill:orange; stroke:rgb(0,0,0);" rx="1"/>
<text x="439" y="9" style="font-family:sans-serif;font-size:10px;">
档
</text>
<rect x="561.5" y="99.0" width="26.0" height="16.0" style="fill:orange; stroke:rgb(0,0,0);" rx="1"/>
<text x="563" y="108" style="font-family:sans-serif;font-size:10px;">
六月
</text>
<rect x="440.0" y="66.0" width="15.0" height="16.0" style="fill:orange; stroke:rgb(0,0,0);" rx="1"/>
<text x="442" y="75" style="font-family:sans-serif;font-size:10px;">
项
</text>
<rect x="272.0" y="66.0" width="7.0" height="16.0" style="fill:orange; stroke:rgb(0,0,0);" rx="1"/>
<text x="274" y="75" style="font-family:sans-serif;font-size:10px;">
,
</text>
<rect x="250.0" y="66.0" width="15.0" height="16.0" style="fill:orange; stroke:rgb(0,0,0);" rx="1"/>
<text x="252" y="75" style="font-family:sans-serif;font-size:10px;">
项
</text>
<rect x="313.5" y="99.0" width="45.0" height="16.0" style="fill:orange; stroke:rgb(0,0,0);" rx="1"/>
<text x="315" y="108" style="font-family:sans-serif;font-size:10px;">
"5,000"
</text>
<rect x="845.0" y="66.0" width="15.0" height="16.0" style="fill:orange; stroke:rgb(0,0,0);" rx="1"/>
<text x="847" y="75" style="font-family:sans-serif;font-size:10px;">
项
</text>
<rect x="280.5" y="99.0" width="26.0" height="16.0" style="fill:orange; stroke:rgb(0,0,0);" rx="1"/>
<text x="282" y="108" style="font-family:sans-serif;font-size:10px;">
五月
</text>
<rect x="155.0" y="66.0" width="7.0" height="16.0" style="fill:orange; stroke:rgb(0,0,0);" rx="1"/>
<text x="157" y="75" style="font-family:sans-serif;font-size:10px;">
,
</text>
<rect x="163.5" y="99.0" width="26.0" height="16.0" style="fill:orange; stroke:rgb(0,0,0);" rx="1"/>
<text x="165" y="108" style="font-family:sans-serif;font-size:10px;">
三月
</text>
<rect x="205.0" y="66.0" width="15.0" height="16.0" style="fill:orange; stroke:rgb(0,0,0);" rx="1"/>
<text x="207" y="75" style="font-family:sans-serif;font-size:10px;">
项
</text>
<rect x="795.0" y="66.0" width="7.0" height="16.0" style="fill:orange; stroke:rgb(0,0,0);" rx="1"/>
<text x="797" y="75" style="font-family:sans-serif;font-size:10px;">
,
</text>
<rect x="589.0" y="66.0" width="7.0" height="16.0" style="fill:orange; stroke:rgb(0,0,0);" rx="1"/>
<text x="591" y="75" style="font-family:sans-serif;font-size:10px;">
,
</text>
<rect x="389.0" y="66.0" width="15.0" height="16.0" style="fill:orange; stroke:rgb(0,0,0);" rx="1"/>
<text x="391" y="75" style="font-family:sans-serif;font-size:10px;">
项
</text>
<rect x="191.0" y="66.0" width="7.0" height="16.0" style="fill:orange; stroke:rgb(0,0,0);" rx="1"/>
<text x="193" y="75" style="font-family:sans-serif;font-size:10px;">
,
</text>
</svg>