<svg width="1320.0" height="605.0" xmlns="http://www.w3.org/2000/svg" xmlns:xlink="http://www.w3.org/1999/xlink"><line x1="236.4375" y1="8.0" x2="20.5" y2="33.0" style="stroke:black; stroke-width:1px;" />
<line x1="236.4375" y1="8.0" x2="61.0" y2="33.0" style="stroke:black; stroke-width:1px;" />
<line x1="61.0" y1="41.0" x2="61.0" y2="66.0" style="stroke:black; stroke-width:1px;" />
<line x1="236.4375" y1="8.0" x2="244.9375" y2="33.0" style="stroke:black; stroke-width:1px;" />
<line x1="236.4375" y1="8.0" x2="428.875" y2="33.0" style="stroke:black; stroke-width:1px;" />
<line x1="428.875" y1="41.0" x2="94.0" y2="66.0" style="stroke:black; stroke-width:1px;" />
<line x1="94.0" y1="74.0" x2="68.5" y2="99.0" style="stroke:black; stroke-width:1px;" />
<line x1="68.5" y1="107.0" x2="68.5" y2="132.0" style="stroke:black; stroke-width:1px;" />
<line x1="94.0" y1="74.0" x2="94.0" y2="99.0" style="stroke:black; stroke-width:1px;" />
<line x1="94.0" y1="74.0" x2="119.5" y2="99.0" style="stroke:black; stroke-width:1px;" />
<line x1="119.5" y1="107.0" x2="119.5" y2="132.0" style="stroke:black; stroke-width:1px;" />
<line x1="428.875" y1="41.0" x2="137.0" y2="66.0" style="stroke:black; stroke-width:1px;" />
<line x1="428.875" y1="41.0" x2="180.0" y2="66.0" style="stroke:black; stroke-width:1px;" />
<line x1="180.0" y1="74.0" x2="180.0" y2="99.0" style="stroke:black; stroke-width:1px;" />
<line x1="180.0" y1="107.0" x2="148.0" y2="132.0" style="stroke:black; stroke-width:1px;" />
<line x1="148.0" y1="140.0" x2="148.0" y2="165.0" style="stroke:black; stroke-width:1px;" />
<line x1="148.0" y1="173.0" x2="148.0" y2="198.0" style="stroke:black; stroke-width:1px;" />
<line x1="180.0" y1="107.0" x2="212.0" y2="132.0" style="stroke:black; stroke-width:1px;" />
<line x1="212.0" y1="140.0" x2="188.5" y2="165.0" style="stroke:black; stroke-width:1px;" />
<line x1="212.0" y1="140.0" x2="212.0" y2="165.0" style="stroke:black; stroke-width:1px;" />
<line x1="212.0" y1="173.0" x2="186.5" y2="198.0" style="stroke:black; stroke-width:1px;" />
<line x1="186.5" y1="206.0" x2="186.5" y2="231.0" style="stroke:black; stroke-width:1px;" />
<line x1="212.0" y1="173.0" x2="212.0" y2="198.0" style="stroke:black; stroke-width:1px;" />
<line x1="212.0" y1="173.0" x2="237.5" y2="198.0" style="stroke:black; stroke-width:1px;" />
<line x1="237.5" y1="206.0" x2="237.5" y2="231.0" style="stroke:black; stroke-width:1px;" />
<line x1="212.0" y1="140.0" x2="235.5" y2="165.0" style="stroke:black; stroke-width:1px;" />
<line x1="428.875" y1="41.0" x2="248.625" y2="66.0" style="stroke:black; stroke-width:1px;" />
<line x1="428.875" y1="41.0" x2="317.25" y2="66.0" style="stroke:black; stroke-width:1px;" />
<line x1="317.25" y1="74.0" x2="317.25" y2="99.0" style="stroke:black; stroke-width:1px;" />
<line x1="317.25" y1="107.0" x2="276.0" y2="132.0" style="stroke:black; stroke-width:1px;" />
<line x1="276.0" y1="140.0" x2="276.0" y2="165.0" style="stroke:black; stroke-width:1px;" />
<line x1="276.0" y1="173.0" x2="276.0" y2="198.0" style="stroke:black; stroke-width:1px;" />
<line x1="317.25" y1="107.0" x2="358.5" y2="132.0" style="stroke:black; stroke-width:1px;" />
<line x1="358.5" y1="140.0" x2="309.0" y2="165.0" style="stroke:black; stroke-width:1px;" />
<line x1="309.0" y1="173.0" x2="309.0" y2="198.0" style="stroke:black; stroke-width:1px;" />
<line x1="358.5" y1="140.0" x2="342.0" y2="165.0" style="stroke:black; stroke-width:1px;" />
<line x1="342.0" y1="173.0" x2="342.0" y2="198.0" style="stroke:black; stroke-width:1px;" />
<line x1="342.0" y1="206.0" x2="342.0" y2="231.0" style="stroke:black; stroke-width:1px;" />
<line x1="358.5" y1="140.0" x2="375.0" y2="165.0" style="stroke:black; stroke-width:1px;" />
<line x1="375.0" y1="173.0" x2="375.0" y2="198.0" style="stroke:black; stroke-width:1px;" />
<line x1="358.5" y1="140.0" x2="408.0" y2="165.0" style="stroke:black; stroke-width:1px;" />
<line x1="408.0" y1="173.0" x2="408.0" y2="198.0" style="stroke:black; stroke-width:1px;" />
<line x1="408.0" y1="206.0" x2="408.0" y2="231.0" style="stroke:black; stroke-width:1px;" />
<line x1="428.875" y1="41.0" x2="410.25" y2="66.0" style="stroke:black; stroke-width:1px;" />
<line x1="428.875" y1="41.0" x2="503.25" y2="66.0" style="stroke:black; stroke-width:1px;" />
<line x1="503.25" y1="74.0" x2="503.25" y2="99.0" style="stroke:black; stroke-width:1px;" />
<line x1="503.25" y1="107.0" x2="441.0" y2="132.0" style="stroke:black; stroke-width:1px;" />
<line x1="441.0" y1="140.0" x2="441.0" y2="165.0" style="stroke:black; stroke-width:1px;" />
<line x1="441.0" y1="173.0" x2="441.0" y2="198.0" style="stroke:black; stroke-width:1px;" />
<line x1="503.25" y1="107.0" x2="490.5" y2="132.0" style="stroke:black; stroke-width:1px;" />
<line x1="490.5" y1="140.0" x2="474.0" y2="165.0" style="stroke:black; stroke-width:1px;" />
<line x1="474.0" y1="173.0" x2="474.0" y2="198.0" style="stroke:black; stroke-width:1px;" />
<line x1="490.5" y1="140.0" x2="507.0" y2="165.0" style="stroke:black; stroke-width:1px;" />
<line x1="507.0" y1="173.0" x2="507.0" y2="198.0" style="stroke:black; stroke-width:1px;" />
<line x1="507.0" y1="206.0" x2="507.0" y2="231.0" style="stroke:black; stroke-width:1px;" />
<line x1="503.25" y1="107.0" x2="565.5" y2="132.0" style="stroke:black; stroke-width:1px;" />
<line x1="565.5" y1="140.0" x2="542.0" y2="165.0" style="stroke:black; stroke-width:1px;" />
<line x1="565.5" y1="140.0" x2="565.5" y2="165.0" style="stroke:black; stroke-width:1px;" />
<line x1="565.5" y1="173.0" x2="540.0" y2="198.0" style="stroke:black; stroke-width:1px;" />
<line x1="540.0" y1="206.0" x2="540.0" y2="231.0" style="stroke:black; stroke-width:1px;" />
<line x1="565.5" y1="173.0" x2="565.5" y2="198.0" style="stroke:black; stroke-width:1px;" />
<line x1="565.5" y1="173.0" x2="591.0" y2="198.0" style="stroke:black; stroke-width:1px;" />
<line x1="591.0" y1="206.0" x2="591.0" y2="231.0" style="stroke:black; stroke-width:1px;" />
<line x1="565.5" y1="140.0" x2="589.0" y2="165.0" style="stroke:black; stroke-width:1px;" />
<line x1="428.875" y1="41.0" x2="575.0" y2="66.0" style="stroke:black; stroke-width:1px;" />
<line x1="428.875" y1="41.0" x2="646.75" y2="66.0" style="stroke:black; stroke-width:1px;" />
<line x1="646.75" y1="74.0" x2="646.75" y2="99.0" style="stroke:black; stroke-width:1px;" />
<line x1="646.75" y1="107.0" x2="622.0" y2="132.0" style="stroke:black; stroke-width:1px;" />
<line x1="622.0" y1="140.0" x2="622.0" y2="165.0" style="stroke:black; stroke-width:1px;" />
<line x1="622.0" y1="173.0" x2="622.0" y2="198.0" style="stroke:black; stroke-width:1px;" />
<line x1="646.75" y1="107.0" x2="671.5" y2="132.0" style="stroke:black; stroke-width:1px;" />
<line x1="671.5" y1="140.0" x2="655.0" y2="165.0" style="stroke:black; stroke-width:1px;" />
<line x1="655.0" y1="173.0" x2="655.0" y2="198.0" style="stroke:black; stroke-width:1px;" />
<line x1="671.5" y1="140.0" x2="688.0" y2="165.0" style="stroke:black; stroke-width:1px;" />
<line x1="688.0" y1="173.0" x2="688.0" y2="198.0" style="stroke:black; stroke-width:1px;" />
<line x1="688.0" y1="206.0" x2="688.0" y2="231.0" style="stroke:black; stroke-width:1px;" />
<line x1="428.875" y1="41.0" x2="696.25" y2="66.0" style="stroke:black; stroke-width:1px;" />
<line x1="428.875" y1="41.0" x2="745.75" y2="66.0" style="stroke:black; stroke-width:1px;" />
<line x1="745.75" y1="74.0" x2="745.75" y2="99.0" style="stroke:black; stroke-width:1px;" />
<line x1="745.75" y1="107.0" x2="721.0" y2="132.0" style="stroke:black; stroke-width:1px;" />
<line x1="721.0" y1="140.0" x2="721.0" y2="165.0" style="stroke:black; stroke-width:1px;" />
<line x1="721.0" y1="173.0" x2="721.0" y2="198.0" style="stroke:black; stroke-width:1px;" />
<line x1="745.75" y1="107.0" x2="770.5" y2="132.0" style="stroke:black; stroke-width:1px;" />
<line x1="770.5" y1="140.0" x2="754.0" y2="165.0" style="stroke:black; stroke-width:1px;" />
<line x1="754.0" y1="173.0" x2="754.0" y2="198.0" style="stroke:black; stroke-width:1px;" />
<line x1="770.5" y1="140.0" x2="787.0" y2="165.0" style="stroke:black; stroke-width:1px;" />
<line x1="787.0" y1="173.0" x2="787.0" y2="198.0" style="stroke:black; stroke-width:1px;" />
<line x1="787.0" y1="206.0" x2="787.0" y2="231.0" style="stroke:black; stroke-width:1px;" />
<line x1="428.875" y1="41.0" x2="763.75" y2="66.0" style="stroke:black; stroke-width:1px;" />
<line x1="236.4375" y1="8.0" x2="452.375" y2="33.0" style="stroke:black; stroke-width:1px;" />
<rect x="494.0" y="198.0" width="26.0" height="16.0" style="fill:orange; stroke:rgb(0,0,0);" rx="1"/>
<text x="496" y="207" style="font-family:sans-serif;font-size:10px;">
标识
</text>
<rect x="774.0" y="165.0" width="26.0" height="16.0" style="fill:orange; stroke:rgb(0,0,0);" rx="1"/>
<text x="776" y="174" style="font-family:sans-serif;font-size:10px;">
结名
</text>
<rect x="304.25" y="99.0" width="26.0" height="16.0" style="fill:orange; stroke:rgb(0,0,0);" rx="1"/>
<text x="306" y="108" style="font-family:sans-serif;font-size:10px;">
边句
</text>
<rect x="232.0" y="165.0" width="7.0" height="16.0" style="fill:orange; stroke:rgb(0,0,0);" rx="1"/>
<text x="234" y="174" style="font-family:sans-serif;font-size:10px;">
]
</text>
<rect x="224.5" y="198.0" width="26.0" height="16.0" style="fill:orange; stroke:rgb(0,0,0);" rx="1"/>
<text x="226" y="207" style="font-family:sans-serif;font-size:10px;">
标识
</text>
<rect x="677.0" y="231.0" width="22.0" height="16.0" style="fill:orange; stroke:rgb(0,0,0);" rx="1"/>
<text x="679" y="240" style="font-family:sans-serif;font-size:10px;">
函2
</text>
<rect x="495.75" y="66.0" width="15.0" height="16.0" style="fill:orange; stroke:rgb(0,0,0);" rx="1"/>
<text x="497" y="75" style="font-family:sans-serif;font-size:10px;">
句
</text>
<rect x="106.5" y="99.0" width="26.0" height="16.0" style="fill:orange; stroke:rgb(0,0,0);" rx="1"/>
<text x="108" y="108" style="font-family:sans-serif;font-size:10px;">
标识
</text>
<rect x="494.0" y="165.0" width="26.0" height="16.0" style="fill:orange; stroke:rgb(0,0,0);" rx="1"/>
<text x="496" y="174" style="font-family:sans-serif;font-size:10px;">
结名
</text>
<rect x="49.0" y="132.0" width="39.0" height="16.0" style="fill:orange; stroke:rgb(0,0,0);" rx="1"/>
<text x="51" y="141" style="font-family:sans-serif;font-size:10px;">
rankdir
</text>
<rect x="172.5" y="66.0" width="15.0" height="16.0" style="fill:orange; stroke:rgb(0,0,0);" rx="1"/>
<text x="174" y="75" style="font-family:sans-serif;font-size:10px;">
句
</text>
<rect x="368.0" y="198.0" width="14.0" height="16.0" style="fill:orange; stroke:rgb(0,0,0);" rx="1"/>
<text x="370" y="207" style="font-family:sans-serif;font-size:10px;">
-&gt;
</text>
<rect x="169.5" y="231.0" width="34.0" height="16.0" style="fill:orange; stroke:rgb(0,0,0);" rx="1"/>
<text x="171" y="240" style="font-family:sans-serif;font-size:10px;">
shape
</text>
<rect x="738.25" y="66.0" width="15.0" height="16.0" style="fill:orange; stroke:rgb(0,0,0);" rx="1"/>
<text x="740" y="75" style="font-family:sans-serif;font-size:10px;">
句
</text>
<rect x="263.0" y="165.0" width="26.0" height="16.0" style="fill:orange; stroke:rgb(0,0,0);" rx="1"/>
<text x="265" y="174" style="font-family:sans-serif;font-size:10px;">
标识
</text>
<rect x="496.0" y="231.0" width="22.0" height="16.0" style="fill:orange; stroke:rgb(0,0,0);" rx="1"/>
<text x="498" y="240" style="font-family:sans-serif;font-size:10px;">
函1
</text>
<rect x="658.5" y="132.0" width="26.0" height="16.0" style="fill:orange; stroke:rgb(0,0,0);" rx="1"/>
<text x="660" y="141" style="font-family:sans-serif;font-size:10px;">
边向
</text>
<rect x="42.5" y="66.0" width="37.0" height="16.0" style="fill:orange; stroke:rgb(0,0,0);" rx="1"/>
<text x="44" y="75" style="font-family:sans-serif;font-size:10px;">
调函图
</text>
<rect x="397.0" y="231.0" width="22.0" height="16.0" style="fill:orange; stroke:rgb(0,0,0);" rx="1"/>
<text x="399" y="240" style="font-family:sans-serif;font-size:10px;">
函2
</text>
<rect x="639.25" y="66.0" width="15.0" height="16.0" style="fill:orange; stroke:rgb(0,0,0);" rx="1"/>
<text x="641" y="75" style="font-family:sans-serif;font-size:10px;">
句
</text>
<rect x="642.0" y="165.0" width="26.0" height="16.0" style="fill:orange; stroke:rgb(0,0,0);" rx="1"/>
<text x="644" y="174" style="font-family:sans-serif;font-size:10px;">
边符
</text>
<rect x="329.0" y="165.0" width="26.0" height="16.0" style="fill:orange; stroke:rgb(0,0,0);" rx="1"/>
<text x="331" y="174" style="font-family:sans-serif;font-size:10px;">
结名
</text>
<rect x="633.75" y="99.0" width="26.0" height="16.0" style="fill:orange; stroke:rgb(0,0,0);" rx="1"/>
<text x="635" y="108" style="font-family:sans-serif;font-size:10px;">
边句
</text>
<rect x="585.5" y="165.0" width="7.0" height="16.0" style="fill:orange; stroke:rgb(0,0,0);" rx="1"/>
<text x="587" y="174" style="font-family:sans-serif;font-size:10px;">
]
</text>
<rect x="675.0" y="165.0" width="26.0" height="16.0" style="fill:orange; stroke:rgb(0,0,0);" rx="1"/>
<text x="677" y="174" style="font-family:sans-serif;font-size:10px;">
结名
</text>
<rect x="228.9375" y="0.0" width="15.0" height="16.0" style="fill:orange; stroke:rgb(0,0,0);" rx="1"/>
<text x="230" y="9" style="font-family:sans-serif;font-size:10px;">
图
</text>
<rect x="227.0" y="231.0" width="21.0" height="16.0" style="fill:orange; stroke:rgb(0,0,0);" rx="1"/>
<text x="229" y="240" style="font-family:sans-serif;font-size:10px;">
box
</text>
<rect x="552.5" y="132.0" width="26.0" height="16.0" style="fill:orange; stroke:rgb(0,0,0);" rx="1"/>
<text x="554" y="141" style="font-family:sans-serif;font-size:10px;">
描列
</text>
<rect x="710.0" y="198.0" width="22.0" height="16.0" style="fill:orange; stroke:rgb(0,0,0);" rx="1"/>
<text x="712" y="207" style="font-family:sans-serif;font-size:10px;">
函2
</text>
<rect x="611.0" y="198.0" width="22.0" height="16.0" style="fill:orange; stroke:rgb(0,0,0);" rx="1"/>
<text x="613" y="207" style="font-family:sans-serif;font-size:10px;">
函1
</text>
<rect x="206.5" y="198.0" width="11.0" height="16.0" style="fill:orange; stroke:rgb(0,0,0);" rx="1"/>
<text x="208" y="207" style="font-family:sans-serif;font-size:10px;">
=
</text>
<rect x="708.0" y="165.0" width="26.0" height="16.0" style="fill:orange; stroke:rgb(0,0,0);" rx="1"/>
<text x="710" y="174" style="font-family:sans-serif;font-size:10px;">
标识
</text>
<rect x="467.0" y="198.0" width="14.0" height="16.0" style="fill:orange; stroke:rgb(0,0,0);" rx="1"/>
<text x="469" y="207" style="font-family:sans-serif;font-size:10px;">
-&gt;
</text>
<rect x="199.0" y="132.0" width="26.0" height="16.0" style="fill:orange; stroke:rgb(0,0,0);" rx="1"/>
<text x="201" y="141" style="font-family:sans-serif;font-size:10px;">
描列
</text>
<rect x="263.0" y="132.0" width="26.0" height="16.0" style="fill:orange; stroke:rgb(0,0,0);" rx="1"/>
<text x="265" y="141" style="font-family:sans-serif;font-size:10px;">
结名
</text>
<rect x="241.4375" y="33.0" width="7.0" height="16.0" style="fill:orange; stroke:rgb(0,0,0);" rx="1"/>
<text x="243" y="42" style="font-family:sans-serif;font-size:10px;">
{
</text>
<rect x="461.0" y="165.0" width="26.0" height="16.0" style="fill:orange; stroke:rgb(0,0,0);" rx="1"/>
<text x="463" y="174" style="font-family:sans-serif;font-size:10px;">
边符
</text>
<rect x="173.5" y="198.0" width="26.0" height="16.0" style="fill:orange; stroke:rgb(0,0,0);" rx="1"/>
<text x="175" y="207" style="font-family:sans-serif;font-size:10px;">
标识
</text>
<rect x="86.5" y="66.0" width="15.0" height="16.0" style="fill:orange; stroke:rgb(0,0,0);" rx="1"/>
<text x="88" y="75" style="font-family:sans-serif;font-size:10px;">
句
</text>
<rect x="573.0" y="231.0" width="36.0" height="16.0" style="fill:orange; stroke:rgb(0,0,0);" rx="1"/>
<text x="575" y="240" style="font-family:sans-serif;font-size:10px;">
dotted
</text>
<rect x="55.5" y="99.0" width="26.0" height="16.0" style="fill:orange; stroke:rgb(0,0,0);" rx="1"/>
<text x="57" y="108" style="font-family:sans-serif;font-size:10px;">
标识
</text>
<rect x="430.0" y="198.0" width="22.0" height="16.0" style="fill:orange; stroke:rgb(0,0,0);" rx="1"/>
<text x="432" y="207" style="font-family:sans-serif;font-size:10px;">
函1
</text>
<rect x="477.5" y="132.0" width="26.0" height="16.0" style="fill:orange; stroke:rgb(0,0,0);" rx="1"/>
<text x="479" y="141" style="font-family:sans-serif;font-size:10px;">
边向
</text>
<rect x="609.0" y="165.0" width="26.0" height="16.0" style="fill:orange; stroke:rgb(0,0,0);" rx="1"/>
<text x="611" y="174" style="font-family:sans-serif;font-size:10px;">
标识
</text>
<rect x="296.0" y="165.0" width="26.0" height="16.0" style="fill:orange; stroke:rgb(0,0,0);" rx="1"/>
<text x="298" y="174" style="font-family:sans-serif;font-size:10px;">
边符
</text>
<rect x="135.0" y="132.0" width="26.0" height="16.0" style="fill:orange; stroke:rgb(0,0,0);" rx="1"/>
<text x="137" y="141" style="font-family:sans-serif;font-size:10px;">
结名
</text>
<rect x="675.0" y="198.0" width="26.0" height="16.0" style="fill:orange; stroke:rgb(0,0,0);" rx="1"/>
<text x="677" y="207" style="font-family:sans-serif;font-size:10px;">
标识
</text>
<rect x="129.5" y="198.0" width="37.0" height="16.0" style="fill:orange; stroke:rgb(0,0,0);" rx="1"/>
<text x="131" y="207" style="font-family:sans-serif;font-size:10px;">
主程式
</text>
<rect x="428.0" y="165.0" width="26.0" height="16.0" style="fill:orange; stroke:rgb(0,0,0);" rx="1"/>
<text x="430" y="174" style="font-family:sans-serif;font-size:10px;">
标识
</text>
<rect x="415.875" y="33.0" width="26.0" height="16.0" style="fill:orange; stroke:rgb(0,0,0);" rx="1"/>
<text x="417" y="42" style="font-family:sans-serif;font-size:10px;">
句群
</text>
<rect x="708.0" y="132.0" width="26.0" height="16.0" style="fill:orange; stroke:rgb(0,0,0);" rx="1"/>
<text x="710" y="141" style="font-family:sans-serif;font-size:10px;">
结名
</text>
<rect x="760.25" y="66.0" width="7.0" height="16.0" style="fill:orange; stroke:rgb(0,0,0);" rx="1"/>
<text x="762" y="75" style="font-family:sans-serif;font-size:10px;">
;
</text>
<rect x="552.5" y="165.0" width="26.0" height="16.0" style="fill:orange; stroke:rgb(0,0,0);" rx="1"/>
<text x="554" y="174" style="font-family:sans-serif;font-size:10px;">
单列
</text>
<rect x="527.0" y="198.0" width="26.0" height="16.0" style="fill:orange; stroke:rgb(0,0,0);" rx="1"/>
<text x="529" y="207" style="font-family:sans-serif;font-size:10px;">
标识
</text>
<rect x="88.5" y="99.0" width="11.0" height="16.0" style="fill:orange; stroke:rgb(0,0,0);" rx="1"/>
<text x="90" y="108" style="font-family:sans-serif;font-size:10px;">
=
</text>
<rect x="526.0" y="231.0" width="28.0" height="16.0" style="fill:orange; stroke:rgb(0,0,0);" rx="1"/>
<text x="528" y="240" style="font-family:sans-serif;font-size:10px;">
style
</text>
<rect x="448.875" y="33.0" width="7.0" height="16.0" style="fill:orange; stroke:rgb(0,0,0);" rx="1"/>
<text x="450" y="42" style="font-family:sans-serif;font-size:10px;">
}
</text>
<rect x="309.75" y="66.0" width="15.0" height="16.0" style="fill:orange; stroke:rgb(0,0,0);" rx="1"/>
<text x="311" y="75" style="font-family:sans-serif;font-size:10px;">
句
</text>
<rect x="406.75" y="66.0" width="7.0" height="16.0" style="fill:orange; stroke:rgb(0,0,0);" rx="1"/>
<text x="408" y="75" style="font-family:sans-serif;font-size:10px;">
;
</text>
<rect x="757.5" y="132.0" width="26.0" height="16.0" style="fill:orange; stroke:rgb(0,0,0);" rx="1"/>
<text x="759" y="141" style="font-family:sans-serif;font-size:10px;">
边向
</text>
<rect x="692.75" y="66.0" width="7.0" height="16.0" style="fill:orange; stroke:rgb(0,0,0);" rx="1"/>
<text x="694" y="75" style="font-family:sans-serif;font-size:10px;">
;
</text>
<rect x="776.0" y="231.0" width="22.0" height="16.0" style="fill:orange; stroke:rgb(0,0,0);" rx="1"/>
<text x="778" y="240" style="font-family:sans-serif;font-size:10px;">
函3
</text>
<rect x="331.0" y="231.0" width="22.0" height="16.0" style="fill:orange; stroke:rgb(0,0,0);" rx="1"/>
<text x="333" y="240" style="font-family:sans-serif;font-size:10px;">
函1
</text>
<rect x="732.75" y="99.0" width="26.0" height="16.0" style="fill:orange; stroke:rgb(0,0,0);" rx="1"/>
<text x="734" y="108" style="font-family:sans-serif;font-size:10px;">
边句
</text>
<rect x="48.0" y="33.0" width="26.0" height="16.0" style="fill:orange; stroke:rgb(0,0,0);" rx="1"/>
<text x="50" y="42" style="font-family:sans-serif;font-size:10px;">
标识
</text>
<rect x="199.0" y="165.0" width="26.0" height="16.0" style="fill:orange; stroke:rgb(0,0,0);" rx="1"/>
<text x="201" y="174" style="font-family:sans-serif;font-size:10px;">
单列
</text>
<rect x="428.0" y="132.0" width="26.0" height="16.0" style="fill:orange; stroke:rgb(0,0,0);" rx="1"/>
<text x="430" y="141" style="font-family:sans-serif;font-size:10px;">
结名
</text>
<rect x="538.5" y="165.0" width="7.0" height="16.0" style="fill:orange; stroke:rgb(0,0,0);" rx="1"/>
<text x="540" y="174" style="font-family:sans-serif;font-size:10px;">
[
</text>
<rect x="578.0" y="198.0" width="26.0" height="16.0" style="fill:orange; stroke:rgb(0,0,0);" rx="1"/>
<text x="580" y="207" style="font-family:sans-serif;font-size:10px;">
标识
</text>
<rect x="560.0" y="198.0" width="11.0" height="16.0" style="fill:orange; stroke:rgb(0,0,0);" rx="1"/>
<text x="562" y="207" style="font-family:sans-serif;font-size:10px;">
=
</text>
<rect x="490.25" y="99.0" width="26.0" height="16.0" style="fill:orange; stroke:rgb(0,0,0);" rx="1"/>
<text x="492" y="108" style="font-family:sans-serif;font-size:10px;">
边句
</text>
<rect x="329.0" y="198.0" width="26.0" height="16.0" style="fill:orange; stroke:rgb(0,0,0);" rx="1"/>
<text x="331" y="207" style="font-family:sans-serif;font-size:10px;">
标识
</text>
<rect x="257.5" y="198.0" width="37.0" height="16.0" style="fill:orange; stroke:rgb(0,0,0);" rx="1"/>
<text x="259" y="207" style="font-family:sans-serif;font-size:10px;">
主程式
</text>
<rect x="345.5" y="132.0" width="26.0" height="16.0" style="fill:orange; stroke:rgb(0,0,0);" rx="1"/>
<text x="347" y="141" style="font-family:sans-serif;font-size:10px;">
边向
</text>
<rect x="167.0" y="99.0" width="26.0" height="16.0" style="fill:orange; stroke:rgb(0,0,0);" rx="1"/>
<text x="169" y="108" style="font-family:sans-serif;font-size:10px;">
结句
</text>
<rect x="774.0" y="198.0" width="26.0" height="16.0" style="fill:orange; stroke:rgb(0,0,0);" rx="1"/>
<text x="776" y="207" style="font-family:sans-serif;font-size:10px;">
标识
</text>
<rect x="133.5" y="66.0" width="7.0" height="16.0" style="fill:orange; stroke:rgb(0,0,0);" rx="1"/>
<text x="135" y="75" style="font-family:sans-serif;font-size:10px;">
;
</text>
<rect x="185.0" y="165.0" width="7.0" height="16.0" style="fill:orange; stroke:rgb(0,0,0);" rx="1"/>
<text x="187" y="174" style="font-family:sans-serif;font-size:10px;">
[
</text>
<rect x="245.125" y="66.0" width="7.0" height="16.0" style="fill:orange; stroke:rgb(0,0,0);" rx="1"/>
<text x="247" y="75" style="font-family:sans-serif;font-size:10px;">
;
</text>
<rect x="302.0" y="198.0" width="14.0" height="16.0" style="fill:orange; stroke:rgb(0,0,0);" rx="1"/>
<text x="304" y="207" style="font-family:sans-serif;font-size:10px;">
-&gt;
</text>
<rect x="395.0" y="165.0" width="26.0" height="16.0" style="fill:orange; stroke:rgb(0,0,0);" rx="1"/>
<text x="397" y="174" style="font-family:sans-serif;font-size:10px;">
结名
</text>
<rect x="571.5" y="66.0" width="7.0" height="16.0" style="fill:orange; stroke:rgb(0,0,0);" rx="1"/>
<text x="573" y="75" style="font-family:sans-serif;font-size:10px;">
;
</text>
<rect x="395.0" y="198.0" width="26.0" height="16.0" style="fill:orange; stroke:rgb(0,0,0);" rx="1"/>
<text x="397" y="207" style="font-family:sans-serif;font-size:10px;">
标识
</text>
<rect x="609.0" y="132.0" width="26.0" height="16.0" style="fill:orange; stroke:rgb(0,0,0);" rx="1"/>
<text x="611" y="141" style="font-family:sans-serif;font-size:10px;">
结名
</text>
<rect x="111.0" y="132.0" width="17.0" height="16.0" style="fill:orange; stroke:rgb(0,0,0);" rx="1"/>
<text x="113" y="141" style="font-family:sans-serif;font-size:10px;">
LR
</text>
<rect x="648.0" y="198.0" width="14.0" height="16.0" style="fill:orange; stroke:rgb(0,0,0);" rx="1"/>
<text x="650" y="207" style="font-family:sans-serif;font-size:10px;">
-&gt;
</text>
<rect x="362.0" y="165.0" width="26.0" height="16.0" style="fill:orange; stroke:rgb(0,0,0);" rx="1"/>
<text x="364" y="174" style="font-family:sans-serif;font-size:10px;">
边符
</text>
<rect x="135.0" y="165.0" width="26.0" height="16.0" style="fill:orange; stroke:rgb(0,0,0);" rx="1"/>
<text x="137" y="174" style="font-family:sans-serif;font-size:10px;">
标识
</text>
<rect x="747.0" y="198.0" width="14.0" height="16.0" style="fill:orange; stroke:rgb(0,0,0);" rx="1"/>
<text x="749" y="207" style="font-family:sans-serif;font-size:10px;">
-&gt;
</text>
<rect x="0.0" y="33.0" width="41.0" height="16.0" style="fill:orange; stroke:rgb(0,0,0);" rx="1"/>
<text x="2" y="42" style="font-family:sans-serif;font-size:10px;">
digraph
</text>
<rect x="741.0" y="165.0" width="26.0" height="16.0" style="fill:orange; stroke:rgb(0,0,0);" rx="1"/>
<text x="743" y="174" style="font-family:sans-serif;font-size:10px;">
边符
</text>
</svg>