<svg width="1294.7" height="609.4000000000001" xmlns="http://www.w3.org/2000/svg" xmlns:xlink="http://www.w3.org/1999/xlink"><line x1="225.1875" y1="8.0" x2="13.0" y2="33.0" style="stroke:black; stroke-width:1px;" />
<line x1="225.1875" y1="8.0" x2="46.0" y2="33.0" style="stroke:black; stroke-width:1px;" />
<line x1="46.0" y1="41.0" x2="46.0" y2="66.0" style="stroke:black; stroke-width:1px;" />
<line x1="225.1875" y1="8.0" x2="229.9375" y2="33.0" style="stroke:black; stroke-width:1px;" />
<line x1="225.1875" y1="8.0" x2="413.875" y2="33.0" style="stroke:black; stroke-width:1px;" />
<line x1="413.875" y1="41.0" x2="79.0" y2="66.0" style="stroke:black; stroke-width:1px;" />
<line x1="79.0" y1="74.0" x2="53.5" y2="99.0" style="stroke:black; stroke-width:1px;" />
<line x1="53.5" y1="107.0" x2="53.5" y2="132.0" style="stroke:black; stroke-width:1px;" />
<line x1="79.0" y1="74.0" x2="79.0" y2="99.0" style="stroke:black; stroke-width:1px;" />
<line x1="79.0" y1="74.0" x2="104.5" y2="99.0" style="stroke:black; stroke-width:1px;" />
<line x1="104.5" y1="107.0" x2="104.5" y2="132.0" style="stroke:black; stroke-width:1px;" />
<line x1="413.875" y1="41.0" x2="122.0" y2="66.0" style="stroke:black; stroke-width:1px;" />
<line x1="413.875" y1="41.0" x2="165.0" y2="66.0" style="stroke:black; stroke-width:1px;" />
<line x1="165.0" y1="74.0" x2="165.0" y2="99.0" style="stroke:black; stroke-width:1px;" />
<line x1="165.0" y1="107.0" x2="133.0" y2="132.0" style="stroke:black; stroke-width:1px;" />
<line x1="133.0" y1="140.0" x2="133.0" y2="165.0" style="stroke:black; stroke-width:1px;" />
<line x1="133.0" y1="173.0" x2="133.0" y2="198.0" style="stroke:black; stroke-width:1px;" />
<line x1="165.0" y1="107.0" x2="197.0" y2="132.0" style="stroke:black; stroke-width:1px;" />
<line x1="197.0" y1="140.0" x2="173.5" y2="165.0" style="stroke:black; stroke-width:1px;" />
<line x1="197.0" y1="140.0" x2="197.0" y2="165.0" style="stroke:black; stroke-width:1px;" />
<line x1="197.0" y1="173.0" x2="171.5" y2="198.0" style="stroke:black; stroke-width:1px;" />
<line x1="171.5" y1="206.0" x2="171.5" y2="231.0" style="stroke:black; stroke-width:1px;" />
<line x1="197.0" y1="173.0" x2="197.0" y2="198.0" style="stroke:black; stroke-width:1px;" />
<line x1="197.0" y1="173.0" x2="222.5" y2="198.0" style="stroke:black; stroke-width:1px;" />
<line x1="222.5" y1="206.0" x2="222.5" y2="231.0" style="stroke:black; stroke-width:1px;" />
<line x1="197.0" y1="140.0" x2="220.5" y2="165.0" style="stroke:black; stroke-width:1px;" />
<line x1="413.875" y1="41.0" x2="233.625" y2="66.0" style="stroke:black; stroke-width:1px;" />
<line x1="413.875" y1="41.0" x2="302.25" y2="66.0" style="stroke:black; stroke-width:1px;" />
<line x1="302.25" y1="74.0" x2="302.25" y2="99.0" style="stroke:black; stroke-width:1px;" />
<line x1="302.25" y1="107.0" x2="261.0" y2="132.0" style="stroke:black; stroke-width:1px;" />
<line x1="261.0" y1="140.0" x2="261.0" y2="165.0" style="stroke:black; stroke-width:1px;" />
<line x1="261.0" y1="173.0" x2="261.0" y2="198.0" style="stroke:black; stroke-width:1px;" />
<line x1="302.25" y1="107.0" x2="343.5" y2="132.0" style="stroke:black; stroke-width:1px;" />
<line x1="343.5" y1="140.0" x2="294.0" y2="165.0" style="stroke:black; stroke-width:1px;" />
<line x1="294.0" y1="173.0" x2="294.0" y2="198.0" style="stroke:black; stroke-width:1px;" />
<line x1="343.5" y1="140.0" x2="327.0" y2="165.0" style="stroke:black; stroke-width:1px;" />
<line x1="327.0" y1="173.0" x2="327.0" y2="198.0" style="stroke:black; stroke-width:1px;" />
<line x1="327.0" y1="206.0" x2="327.0" y2="231.0" style="stroke:black; stroke-width:1px;" />
<line x1="343.5" y1="140.0" x2="360.0" y2="165.0" style="stroke:black; stroke-width:1px;" />
<line x1="360.0" y1="173.0" x2="360.0" y2="198.0" style="stroke:black; stroke-width:1px;" />
<line x1="343.5" y1="140.0" x2="393.0" y2="165.0" style="stroke:black; stroke-width:1px;" />
<line x1="393.0" y1="173.0" x2="393.0" y2="198.0" style="stroke:black; stroke-width:1px;" />
<line x1="393.0" y1="206.0" x2="393.0" y2="231.0" style="stroke:black; stroke-width:1px;" />
<line x1="413.875" y1="41.0" x2="395.25" y2="66.0" style="stroke:black; stroke-width:1px;" />
<line x1="413.875" y1="41.0" x2="488.25" y2="66.0" style="stroke:black; stroke-width:1px;" />
<line x1="488.25" y1="74.0" x2="488.25" y2="99.0" style="stroke:black; stroke-width:1px;" />
<line x1="488.25" y1="107.0" x2="426.0" y2="132.0" style="stroke:black; stroke-width:1px;" />
<line x1="426.0" y1="140.0" x2="426.0" y2="165.0" style="stroke:black; stroke-width:1px;" />
<line x1="426.0" y1="173.0" x2="426.0" y2="198.0" style="stroke:black; stroke-width:1px;" />
<line x1="488.25" y1="107.0" x2="475.5" y2="132.0" style="stroke:black; stroke-width:1px;" />
<line x1="475.5" y1="140.0" x2="459.0" y2="165.0" style="stroke:black; stroke-width:1px;" />
<line x1="459.0" y1="173.0" x2="459.0" y2="198.0" style="stroke:black; stroke-width:1px;" />
<line x1="475.5" y1="140.0" x2="492.0" y2="165.0" style="stroke:black; stroke-width:1px;" />
<line x1="492.0" y1="173.0" x2="492.0" y2="198.0" style="stroke:black; stroke-width:1px;" />
<line x1="492.0" y1="206.0" x2="492.0" y2="231.0" style="stroke:black; stroke-width:1px;" />
<line x1="488.25" y1="107.0" x2="550.5" y2="132.0" style="stroke:black; stroke-width:1px;" />
<line x1="550.5" y1="140.0" x2="527.0" y2="165.0" style="stroke:black; stroke-width:1px;" />
<line x1="550.5" y1="140.0" x2="550.5" y2="165.0" style="stroke:black; stroke-width:1px;" />
<line x1="550.5" y1="173.0" x2="525.0" y2="198.0" style="stroke:black; stroke-width:1px;" />
<line x1="525.0" y1="206.0" x2="525.0" y2="231.0" style="stroke:black; stroke-width:1px;" />
<line x1="550.5" y1="173.0" x2="550.5" y2="198.0" style="stroke:black; stroke-width:1px;" />
<line x1="550.5" y1="173.0" x2="576.0" y2="198.0" style="stroke:black; stroke-width:1px;" />
<line x1="576.0" y1="206.0" x2="576.0" y2="231.0" style="stroke:black; stroke-width:1px;" />
<line x1="550.5" y1="140.0" x2="574.0" y2="165.0" style="stroke:black; stroke-width:1px;" />
<line x1="413.875" y1="41.0" x2="560.0" y2="66.0" style="stroke:black; stroke-width:1px;" />
<line x1="413.875" y1="41.0" x2="631.75" y2="66.0" style="stroke:black; stroke-width:1px;" />
<line x1="631.75" y1="74.0" x2="631.75" y2="99.0" style="stroke:black; stroke-width:1px;" />
<line x1="631.75" y1="107.0" x2="607.0" y2="132.0" style="stroke:black; stroke-width:1px;" />
<line x1="607.0" y1="140.0" x2="607.0" y2="165.0" style="stroke:black; stroke-width:1px;" />
<line x1="607.0" y1="173.0" x2="607.0" y2="198.0" style="stroke:black; stroke-width:1px;" />
<line x1="631.75" y1="107.0" x2="656.5" y2="132.0" style="stroke:black; stroke-width:1px;" />
<line x1="656.5" y1="140.0" x2="640.0" y2="165.0" style="stroke:black; stroke-width:1px;" />
<line x1="640.0" y1="173.0" x2="640.0" y2="198.0" style="stroke:black; stroke-width:1px;" />
<line x1="656.5" y1="140.0" x2="673.0" y2="165.0" style="stroke:black; stroke-width:1px;" />
<line x1="673.0" y1="173.0" x2="673.0" y2="198.0" style="stroke:black; stroke-width:1px;" />
<line x1="673.0" y1="206.0" x2="673.0" y2="231.0" style="stroke:black; stroke-width:1px;" />
<line x1="413.875" y1="41.0" x2="681.25" y2="66.0" style="stroke:black; stroke-width:1px;" />
<line x1="413.875" y1="41.0" x2="730.75" y2="66.0" style="stroke:black; stroke-width:1px;" />
<line x1="730.75" y1="74.0" x2="730.75" y2="99.0" style="stroke:black; stroke-width:1px;" />
<line x1="730.75" y1="107.0" x2="706.0" y2="132.0" style="stroke:black; stroke-width:1px;" />
<line x1="706.0" y1="140.0" x2="706.0" y2="165.0" style="stroke:black; stroke-width:1px;" />
<line x1="706.0" y1="173.0" x2="706.0" y2="198.0" style="stroke:black; stroke-width:1px;" />
<line x1="730.75" y1="107.0" x2="755.5" y2="132.0" style="stroke:black; stroke-width:1px;" />
<line x1="755.5" y1="140.0" x2="739.0" y2="165.0" style="stroke:black; stroke-width:1px;" />
<line x1="739.0" y1="173.0" x2="739.0" y2="198.0" style="stroke:black; stroke-width:1px;" />
<line x1="755.5" y1="140.0" x2="772.0" y2="165.0" style="stroke:black; stroke-width:1px;" />
<line x1="772.0" y1="173.0" x2="772.0" y2="198.0" style="stroke:black; stroke-width:1px;" />
<line x1="772.0" y1="206.0" x2="772.0" y2="231.0" style="stroke:black; stroke-width:1px;" />
<line x1="413.875" y1="41.0" x2="748.75" y2="66.0" style="stroke:black; stroke-width:1px;" />
<line x1="225.1875" y1="8.0" x2="437.375" y2="33.0" style="stroke:black; stroke-width:1px;" />
<rect x="479.0" y="198.0" width="26.0" height="16.0" style="fill:orange; stroke:rgb(0,0,0);" rx="1"/>
<text x="481" y="207" style="font-family:sans-serif;font-size:10px;">
标识
</text>
<rect x="759.0" y="165.0" width="26.0" height="16.0" style="fill:orange; stroke:rgb(0,0,0);" rx="1"/>
<text x="761" y="174" style="font-family:sans-serif;font-size:10px;">
结名
</text>
<rect x="289.25" y="99.0" width="26.0" height="16.0" style="fill:orange; stroke:rgb(0,0,0);" rx="1"/>
<text x="291" y="108" style="font-family:sans-serif;font-size:10px;">
边句
</text>
<rect x="217.0" y="165.0" width="7.0" height="16.0" style="fill:orange; stroke:rgb(0,0,0);" rx="1"/>
<text x="219" y="174" style="font-family:sans-serif;font-size:10px;">
]
</text>
<rect x="209.5" y="198.0" width="26.0" height="16.0" style="fill:orange; stroke:rgb(0,0,0);" rx="1"/>
<text x="211" y="207" style="font-family:sans-serif;font-size:10px;">
标识
</text>
<rect x="662.0" y="231.0" width="22.0" height="16.0" style="fill:orange; stroke:rgb(0,0,0);" rx="1"/>
<text x="664" y="240" style="font-family:sans-serif;font-size:10px;">
函2
</text>
<rect x="480.75" y="66.0" width="15.0" height="16.0" style="fill:orange; stroke:rgb(0,0,0);" rx="1"/>
<text x="482" y="75" style="font-family:sans-serif;font-size:10px;">
句
</text>
<rect x="91.5" y="99.0" width="26.0" height="16.0" style="fill:orange; stroke:rgb(0,0,0);" rx="1"/>
<text x="93" y="108" style="font-family:sans-serif;font-size:10px;">
标识
</text>
<rect x="479.0" y="165.0" width="26.0" height="16.0" style="fill:orange; stroke:rgb(0,0,0);" rx="1"/>
<text x="481" y="174" style="font-family:sans-serif;font-size:10px;">
结名
</text>
<rect x="34.0" y="132.0" width="39.0" height="16.0" style="fill:orange; stroke:rgb(0,0,0);" rx="1"/>
<text x="36" y="141" style="font-family:sans-serif;font-size:10px;">
rankdir
</text>
<rect x="157.5" y="66.0" width="15.0" height="16.0" style="fill:orange; stroke:rgb(0,0,0);" rx="1"/>
<text x="159" y="75" style="font-family:sans-serif;font-size:10px;">
句
</text>
<rect x="353.0" y="198.0" width="14.0" height="16.0" style="fill:orange; stroke:rgb(0,0,0);" rx="1"/>
<text x="355" y="207" style="font-family:sans-serif;font-size:10px;">
-&gt;
</text>
<rect x="154.5" y="231.0" width="34.0" height="16.0" style="fill:orange; stroke:rgb(0,0,0);" rx="1"/>
<text x="156" y="240" style="font-family:sans-serif;font-size:10px;">
shape
</text>
<rect x="723.25" y="66.0" width="15.0" height="16.0" style="fill:orange; stroke:rgb(0,0,0);" rx="1"/>
<text x="725" y="75" style="font-family:sans-serif;font-size:10px;">
句
</text>
<rect x="248.0" y="165.0" width="26.0" height="16.0" style="fill:orange; stroke:rgb(0,0,0);" rx="1"/>
<text x="250" y="174" style="font-family:sans-serif;font-size:10px;">
标识
</text>
<rect x="481.0" y="231.0" width="22.0" height="16.0" style="fill:orange; stroke:rgb(0,0,0);" rx="1"/>
<text x="483" y="240" style="font-family:sans-serif;font-size:10px;">
函1
</text>
<rect x="643.5" y="132.0" width="26.0" height="16.0" style="fill:orange; stroke:rgb(0,0,0);" rx="1"/>
<text x="645" y="141" style="font-family:sans-serif;font-size:10px;">
边向
</text>
<rect x="27.5" y="66.0" width="37.0" height="16.0" style="fill:orange; stroke:rgb(0,0,0);" rx="1"/>
<text x="29" y="75" style="font-family:sans-serif;font-size:10px;">
调函图
</text>
<rect x="382.0" y="231.0" width="22.0" height="16.0" style="fill:orange; stroke:rgb(0,0,0);" rx="1"/>
<text x="384" y="240" style="font-family:sans-serif;font-size:10px;">
函2
</text>
<rect x="624.25" y="66.0" width="15.0" height="16.0" style="fill:orange; stroke:rgb(0,0,0);" rx="1"/>
<text x="626" y="75" style="font-family:sans-serif;font-size:10px;">
句
</text>
<rect x="627.0" y="165.0" width="26.0" height="16.0" style="fill:orange; stroke:rgb(0,0,0);" rx="1"/>
<text x="629" y="174" style="font-family:sans-serif;font-size:10px;">
边符
</text>
<rect x="314.0" y="165.0" width="26.0" height="16.0" style="fill:orange; stroke:rgb(0,0,0);" rx="1"/>
<text x="316" y="174" style="font-family:sans-serif;font-size:10px;">
结名
</text>
<rect x="618.75" y="99.0" width="26.0" height="16.0" style="fill:orange; stroke:rgb(0,0,0);" rx="1"/>
<text x="620" y="108" style="font-family:sans-serif;font-size:10px;">
边句
</text>
<rect x="570.5" y="165.0" width="7.0" height="16.0" style="fill:orange; stroke:rgb(0,0,0);" rx="1"/>
<text x="572" y="174" style="font-family:sans-serif;font-size:10px;">
]
</text>
<rect x="660.0" y="165.0" width="26.0" height="16.0" style="fill:orange; stroke:rgb(0,0,0);" rx="1"/>
<text x="662" y="174" style="font-family:sans-serif;font-size:10px;">
结名
</text>
<rect x="217.6875" y="0.0" width="15.0" height="16.0" style="fill:orange; stroke:rgb(0,0,0);" rx="1"/>
<text x="219" y="9" style="font-family:sans-serif;font-size:10px;">
图
</text>
<rect x="212.0" y="231.0" width="21.0" height="16.0" style="fill:orange; stroke:rgb(0,0,0);" rx="1"/>
<text x="214" y="240" style="font-family:sans-serif;font-size:10px;">
box
</text>
<rect x="537.5" y="132.0" width="26.0" height="16.0" style="fill:orange; stroke:rgb(0,0,0);" rx="1"/>
<text x="539" y="141" style="font-family:sans-serif;font-size:10px;">
描列
</text>
<rect x="695.0" y="198.0" width="22.0" height="16.0" style="fill:orange; stroke:rgb(0,0,0);" rx="1"/>
<text x="697" y="207" style="font-family:sans-serif;font-size:10px;">
函2
</text>
<rect x="596.0" y="198.0" width="22.0" height="16.0" style="fill:orange; stroke:rgb(0,0,0);" rx="1"/>
<text x="598" y="207" style="font-family:sans-serif;font-size:10px;">
函1
</text>
<rect x="191.5" y="198.0" width="11.0" height="16.0" style="fill:orange; stroke:rgb(0,0,0);" rx="1"/>
<text x="193" y="207" style="font-family:sans-serif;font-size:10px;">
=
</text>
<rect x="693.0" y="165.0" width="26.0" height="16.0" style="fill:orange; stroke:rgb(0,0,0);" rx="1"/>
<text x="695" y="174" style="font-family:sans-serif;font-size:10px;">
标识
</text>
<rect x="452.0" y="198.0" width="14.0" height="16.0" style="fill:orange; stroke:rgb(0,0,0);" rx="1"/>
<text x="454" y="207" style="font-family:sans-serif;font-size:10px;">
-&gt;
</text>
<rect x="184.0" y="132.0" width="26.0" height="16.0" style="fill:orange; stroke:rgb(0,0,0);" rx="1"/>
<text x="186" y="141" style="font-family:sans-serif;font-size:10px;">
描列
</text>
<rect x="248.0" y="132.0" width="26.0" height="16.0" style="fill:orange; stroke:rgb(0,0,0);" rx="1"/>
<text x="250" y="141" style="font-family:sans-serif;font-size:10px;">
结名
</text>
<rect x="226.4375" y="33.0" width="7.0" height="16.0" style="fill:orange; stroke:rgb(0,0,0);" rx="1"/>
<text x="228" y="42" style="font-family:sans-serif;font-size:10px;">
{
</text>
<rect x="446.0" y="165.0" width="26.0" height="16.0" style="fill:orange; stroke:rgb(0,0,0);" rx="1"/>
<text x="448" y="174" style="font-family:sans-serif;font-size:10px;">
边符
</text>
<rect x="158.5" y="198.0" width="26.0" height="16.0" style="fill:orange; stroke:rgb(0,0,0);" rx="1"/>
<text x="160" y="207" style="font-family:sans-serif;font-size:10px;">
标识
</text>
<rect x="71.5" y="66.0" width="15.0" height="16.0" style="fill:orange; stroke:rgb(0,0,0);" rx="1"/>
<text x="73" y="75" style="font-family:sans-serif;font-size:10px;">
句
</text>
<rect x="558.0" y="231.0" width="36.0" height="16.0" style="fill:orange; stroke:rgb(0,0,0);" rx="1"/>
<text x="560" y="240" style="font-family:sans-serif;font-size:10px;">
dotted
</text>
<rect x="40.5" y="99.0" width="26.0" height="16.0" style="fill:orange; stroke:rgb(0,0,0);" rx="1"/>
<text x="42" y="108" style="font-family:sans-serif;font-size:10px;">
标识
</text>
<rect x="415.0" y="198.0" width="22.0" height="16.0" style="fill:orange; stroke:rgb(0,0,0);" rx="1"/>
<text x="417" y="207" style="font-family:sans-serif;font-size:10px;">
函1
</text>
<rect x="462.5" y="132.0" width="26.0" height="16.0" style="fill:orange; stroke:rgb(0,0,0);" rx="1"/>
<text x="464" y="141" style="font-family:sans-serif;font-size:10px;">
边向
</text>
<rect x="594.0" y="165.0" width="26.0" height="16.0" style="fill:orange; stroke:rgb(0,0,0);" rx="1"/>
<text x="596" y="174" style="font-family:sans-serif;font-size:10px;">
标识
</text>
<rect x="281.0" y="165.0" width="26.0" height="16.0" style="fill:orange; stroke:rgb(0,0,0);" rx="1"/>
<text x="283" y="174" style="font-family:sans-serif;font-size:10px;">
边符
</text>
<rect x="120.0" y="132.0" width="26.0" height="16.0" style="fill:orange; stroke:rgb(0,0,0);" rx="1"/>
<text x="122" y="141" style="font-family:sans-serif;font-size:10px;">
结名
</text>
<rect x="660.0" y="198.0" width="26.0" height="16.0" style="fill:orange; stroke:rgb(0,0,0);" rx="1"/>
<text x="662" y="207" style="font-family:sans-serif;font-size:10px;">
标识
</text>
<rect x="114.5" y="198.0" width="37.0" height="16.0" style="fill:orange; stroke:rgb(0,0,0);" rx="1"/>
<text x="116" y="207" style="font-family:sans-serif;font-size:10px;">
主程式
</text>
<rect x="413.0" y="165.0" width="26.0" height="16.0" style="fill:orange; stroke:rgb(0,0,0);" rx="1"/>
<text x="415" y="174" style="font-family:sans-serif;font-size:10px;">
标识
</text>
<rect x="400.875" y="33.0" width="26.0" height="16.0" style="fill:orange; stroke:rgb(0,0,0);" rx="1"/>
<text x="402" y="42" style="font-family:sans-serif;font-size:10px;">
句群
</text>
<rect x="693.0" y="132.0" width="26.0" height="16.0" style="fill:orange; stroke:rgb(0,0,0);" rx="1"/>
<text x="695" y="141" style="font-family:sans-serif;font-size:10px;">
结名
</text>
<rect x="745.25" y="66.0" width="7.0" height="16.0" style="fill:orange; stroke:rgb(0,0,0);" rx="1"/>
<text x="747" y="75" style="font-family:sans-serif;font-size:10px;">
;
</text>
<rect x="537.5" y="165.0" width="26.0" height="16.0" style="fill:orange; stroke:rgb(0,0,0);" rx="1"/>
<text x="539" y="174" style="font-family:sans-serif;font-size:10px;">
单列
</text>
<rect x="512.0" y="198.0" width="26.0" height="16.0" style="fill:orange; stroke:rgb(0,0,0);" rx="1"/>
<text x="514" y="207" style="font-family:sans-serif;font-size:10px;">
标识
</text>
<rect x="73.5" y="99.0" width="11.0" height="16.0" style="fill:orange; stroke:rgb(0,0,0);" rx="1"/>
<text x="75" y="108" style="font-family:sans-serif;font-size:10px;">
=
</text>
<rect x="511.0" y="231.0" width="28.0" height="16.0" style="fill:orange; stroke:rgb(0,0,0);" rx="1"/>
<text x="513" y="240" style="font-family:sans-serif;font-size:10px;">
style
</text>
<rect x="433.875" y="33.0" width="7.0" height="16.0" style="fill:orange; stroke:rgb(0,0,0);" rx="1"/>
<text x="435" y="42" style="font-family:sans-serif;font-size:10px;">
}
</text>
<rect x="294.75" y="66.0" width="15.0" height="16.0" style="fill:orange; stroke:rgb(0,0,0);" rx="1"/>
<text x="296" y="75" style="font-family:sans-serif;font-size:10px;">
句
</text>
<rect x="391.75" y="66.0" width="7.0" height="16.0" style="fill:orange; stroke:rgb(0,0,0);" rx="1"/>
<text x="393" y="75" style="font-family:sans-serif;font-size:10px;">
;
</text>
<rect x="742.5" y="132.0" width="26.0" height="16.0" style="fill:orange; stroke:rgb(0,0,0);" rx="1"/>
<text x="744" y="141" style="font-family:sans-serif;font-size:10px;">
边向
</text>
<rect x="677.75" y="66.0" width="7.0" height="16.0" style="fill:orange; stroke:rgb(0,0,0);" rx="1"/>
<text x="679" y="75" style="font-family:sans-serif;font-size:10px;">
;
</text>
<rect x="761.0" y="231.0" width="22.0" height="16.0" style="fill:orange; stroke:rgb(0,0,0);" rx="1"/>
<text x="763" y="240" style="font-family:sans-serif;font-size:10px;">
函3
</text>
<rect x="316.0" y="231.0" width="22.0" height="16.0" style="fill:orange; stroke:rgb(0,0,0);" rx="1"/>
<text x="318" y="240" style="font-family:sans-serif;font-size:10px;">
函1
</text>
<rect x="717.75" y="99.0" width="26.0" height="16.0" style="fill:orange; stroke:rgb(0,0,0);" rx="1"/>
<text x="719" y="108" style="font-family:sans-serif;font-size:10px;">
边句
</text>
<rect x="33.0" y="33.0" width="26.0" height="16.0" style="fill:orange; stroke:rgb(0,0,0);" rx="1"/>
<text x="35" y="42" style="font-family:sans-serif;font-size:10px;">
标识
</text>
<rect x="184.0" y="165.0" width="26.0" height="16.0" style="fill:orange; stroke:rgb(0,0,0);" rx="1"/>
<text x="186" y="174" style="font-family:sans-serif;font-size:10px;">
单列
</text>
<rect x="413.0" y="132.0" width="26.0" height="16.0" style="fill:orange; stroke:rgb(0,0,0);" rx="1"/>
<text x="415" y="141" style="font-family:sans-serif;font-size:10px;">
结名
</text>
<rect x="523.5" y="165.0" width="7.0" height="16.0" style="fill:orange; stroke:rgb(0,0,0);" rx="1"/>
<text x="525" y="174" style="font-family:sans-serif;font-size:10px;">
[
</text>
<rect x="563.0" y="198.0" width="26.0" height="16.0" style="fill:orange; stroke:rgb(0,0,0);" rx="1"/>
<text x="565" y="207" style="font-family:sans-serif;font-size:10px;">
标识
</text>
<rect x="545.0" y="198.0" width="11.0" height="16.0" style="fill:orange; stroke:rgb(0,0,0);" rx="1"/>
<text x="547" y="207" style="font-family:sans-serif;font-size:10px;">
=
</text>
<rect x="475.25" y="99.0" width="26.0" height="16.0" style="fill:orange; stroke:rgb(0,0,0);" rx="1"/>
<text x="477" y="108" style="font-family:sans-serif;font-size:10px;">
边句
</text>
<rect x="314.0" y="198.0" width="26.0" height="16.0" style="fill:orange; stroke:rgb(0,0,0);" rx="1"/>
<text x="316" y="207" style="font-family:sans-serif;font-size:10px;">
标识
</text>
<rect x="242.5" y="198.0" width="37.0" height="16.0" style="fill:orange; stroke:rgb(0,0,0);" rx="1"/>
<text x="244" y="207" style="font-family:sans-serif;font-size:10px;">
主程式
</text>
<rect x="330.5" y="132.0" width="26.0" height="16.0" style="fill:orange; stroke:rgb(0,0,0);" rx="1"/>
<text x="332" y="141" style="font-family:sans-serif;font-size:10px;">
边向
</text>
<rect x="152.0" y="99.0" width="26.0" height="16.0" style="fill:orange; stroke:rgb(0,0,0);" rx="1"/>
<text x="154" y="108" style="font-family:sans-serif;font-size:10px;">
结句
</text>
<rect x="759.0" y="198.0" width="26.0" height="16.0" style="fill:orange; stroke:rgb(0,0,0);" rx="1"/>
<text x="761" y="207" style="font-family:sans-serif;font-size:10px;">
标识
</text>
<rect x="118.5" y="66.0" width="7.0" height="16.0" style="fill:orange; stroke:rgb(0,0,0);" rx="1"/>
<text x="120" y="75" style="font-family:sans-serif;font-size:10px;">
;
</text>
<rect x="170.0" y="165.0" width="7.0" height="16.0" style="fill:orange; stroke:rgb(0,0,0);" rx="1"/>
<text x="172" y="174" style="font-family:sans-serif;font-size:10px;">
[
</text>
<rect x="230.125" y="66.0" width="7.0" height="16.0" style="fill:orange; stroke:rgb(0,0,0);" rx="1"/>
<text x="232" y="75" style="font-family:sans-serif;font-size:10px;">
;
</text>
<rect x="287.0" y="198.0" width="14.0" height="16.0" style="fill:orange; stroke:rgb(0,0,0);" rx="1"/>
<text x="289" y="207" style="font-family:sans-serif;font-size:10px;">
-&gt;
</text>
<rect x="380.0" y="165.0" width="26.0" height="16.0" style="fill:orange; stroke:rgb(0,0,0);" rx="1"/>
<text x="382" y="174" style="font-family:sans-serif;font-size:10px;">
结名
</text>
<rect x="556.5" y="66.0" width="7.0" height="16.0" style="fill:orange; stroke:rgb(0,0,0);" rx="1"/>
<text x="558" y="75" style="font-family:sans-serif;font-size:10px;">
;
</text>
<rect x="380.0" y="198.0" width="26.0" height="16.0" style="fill:orange; stroke:rgb(0,0,0);" rx="1"/>
<text x="382" y="207" style="font-family:sans-serif;font-size:10px;">
标识
</text>
<rect x="594.0" y="132.0" width="26.0" height="16.0" style="fill:orange; stroke:rgb(0,0,0);" rx="1"/>
<text x="596" y="141" style="font-family:sans-serif;font-size:10px;">
结名
</text>
<rect x="96.0" y="132.0" width="17.0" height="16.0" style="fill:orange; stroke:rgb(0,0,0);" rx="1"/>
<text x="98" y="141" style="font-family:sans-serif;font-size:10px;">
LR
</text>
<rect x="633.0" y="198.0" width="14.0" height="16.0" style="fill:orange; stroke:rgb(0,0,0);" rx="1"/>
<text x="635" y="207" style="font-family:sans-serif;font-size:10px;">
-&gt;
</text>
<rect x="347.0" y="165.0" width="26.0" height="16.0" style="fill:orange; stroke:rgb(0,0,0);" rx="1"/>
<text x="349" y="174" style="font-family:sans-serif;font-size:10px;">
边符
</text>
<rect x="120.0" y="165.0" width="26.0" height="16.0" style="fill:orange; stroke:rgb(0,0,0);" rx="1"/>
<text x="122" y="174" style="font-family:sans-serif;font-size:10px;">
标识
</text>
<rect x="732.0" y="198.0" width="14.0" height="16.0" style="fill:orange; stroke:rgb(0,0,0);" rx="1"/>
<text x="734" y="207" style="font-family:sans-serif;font-size:10px;">
-&gt;
</text>
<rect x="0.0" y="33.0" width="26.0" height="16.0" style="fill:orange; stroke:rgb(0,0,0);" rx="1"/>
<text x="2" y="42" style="font-family:sans-serif;font-size:10px;">
矢图
</text>
<rect x="726.0" y="165.0" width="26.0" height="16.0" style="fill:orange; stroke:rgb(0,0,0);" rx="1"/>
<text x="728" y="174" style="font-family:sans-serif;font-size:10px;">
边符
</text>
</svg>